<svg width="1878" height="1938" viewBox="0 0 1878 1938" fill="#C46D5E" xmlns="http://www.w3.org/2000/svg">
<path d="M1.79431 254.981C1.51817 256.194 3.67844 243.309 1.79431 254.981C3.97788 245.394 5.82723 235.732 7.928 226.125C15.1899 192.917 25.236 160.583 41.0777 130.433C49.2901 114.804 58.0748 99.1727 68.8095 85.2445C83.2416 66.5189 100.828 50.695 121.815 39.0097C135.548 31.3634 150.271 27.3909 165.634 25.0341C182.228 22.4883 196.695 28.2711 209.574 37.4866C223.858 47.7079 230.311 62.5462 232.246 80.1519C234.033 96.4143 232.477 112.336 229.697 128.067C227.621 139.819 223.156 151.189 215.643 160.997C208.489 170.336 192.274 173.343 182.102 166.654C178.177 164.073 174.542 160.951 171.15 157.686C165.809 152.544 165.724 145.994 169.678 139.759C177.156 127.966 185.001 116.315 191.311 103.901C196.26 94.1644 199.396 83.4749 195.068 72.1589C192.403 65.1912 186.338 59.4208 177.35 61.8464C168.009 64.3672 160.723 69.5471 153.885 75.7285C141.299 87.1056 131.95 101.08 123.267 115.46C115.544 128.25 108.531 141.467 100.886 154.305C88.2797 175.471 79.0691 198.237 69.9116 220.951C65.5708 231.718 63.4107 243.446 61.0161 254.896C57.5649 271.397 56.884 287.94 62.8937 304.18C68.3044 318.802 77.4921 329.844 93.0792 333.52C98.3613 334.765 104.486 333.688 109.982 332.521C122.224 329.923 132.443 322.88 142.037 315.353C151.717 307.758 161.108 299.616 169.607 290.738C179.543 280.358 188.788 269.243 197.588 257.871C210.068 241.742 222.25 225.35 233.843 208.575C243.723 194.277 252.214 179.02 262.044 164.685C268.287 155.581 275.982 147.484 282.797 138.757C290.862 128.43 300.849 120.361 311.564 113.004C322.326 105.614 334.371 102.689 347.151 102.113C359.394 101.56 370.279 112.251 371.007 124.94C371.217 128.596 371.51 132.348 370.946 135.927C369.518 144.99 364.226 148.001 354.068 149.082C352.09 149.293 350.056 148.959 348.073 149.148C345.034 149.439 343.446 148.622 342.526 145.289C341.273 140.75 337.382 139.653 332.886 142.66C325.053 147.897 320.039 155.577 315.084 163.195C306.233 176.806 300.529 191.864 297.356 207.691C295.278 218.054 293.459 228.672 296.036 239.331C296.445 241.023 296.879 242.794 297.736 244.278C302.641 252.777 308.266 253.191 317.429 245.106C327.513 236.209 333.777 224.658 337.827 212.044C338.67 209.419 337.064 205.732 335.914 202.797C332.93 195.174 330.491 187.562 333.973 179.507C339.127 167.582 349.435 162.413 362.101 166.433C365.269 167.439 367.549 171.49 370.006 174.341C370.754 175.209 370.75 176.739 371.054 177.974C373.054 186.096 376.298 187.815 384.562 185.193C387.32 184.319 390.125 183.595 392.896 182.76C400.481 180.472 403.431 173.776 407.078 167.763C416.561 152.126 426.741 137.042 440.201 124.429C452.113 113.265 465.623 105.133 481.865 102.212C504.968 98.0572 520.142 119.346 516.824 137.465C515.727 143.456 511.684 148.235 505.684 149.966C499.754 151.678 493.173 147.849 489.206 141.548C484.842 134.615 482.662 134.296 476.768 139.951C467.77 148.585 460.801 158.681 454.856 169.63C447.169 183.788 440.666 198.413 436.715 214.028C434.208 223.934 433.051 233.873 439.978 242.983C444.067 248.362 448.584 250.104 454.258 247.105C471.408 238.039 483.627 224.844 490.219 206.203C494.591 193.839 500.014 181.781 505.814 170.003C516.038 149.241 527.516 129.081 537.272 108.111C542.778 96.2741 546.359 83.4577 549.967 70.8421C554.164 56.1644 557.358 41.2022 561.147 26.4044C563.833 15.9129 569.221 11.7544 581.259 13.5469C596.05 15.7493 602.684 25.8612 607.233 38.5217C609.739 45.4971 607.206 52.0591 605.821 58.6255C601.992 76.7789 594.184 93.5713 586.946 110.492C581.2 123.926 574.971 137.218 567.971 150.034C559.112 166.253 550.142 182.552 539.516 197.615C532.375 207.737 525.536 217.766 521.189 229.305C519.512 233.759 518.772 238.65 518.255 243.413C518.064 245.169 519.38 247.506 520.744 248.812C521.305 249.349 523.996 248.163 525.387 247.253C535.678 240.52 542.151 230.341 547.914 220.036C554.701 207.9 560.569 195.18 565.942 182.339C571.879 168.152 578.953 154.624 588.386 142.601C597.208 131.357 607.051 120.852 619.472 113.292C627.554 108.372 635.714 103.814 645.847 105.031C654.122 106.025 662.508 106.121 670.769 107.2C678.716 108.238 689.449 119.854 689.994 128.655C690.719 140.369 691.613 152.545 684.069 162.71C678.595 170.086 672.63 177.264 665.949 183.535C658.139 190.866 649.469 197.323 640.865 203.748C636.384 207.094 631.483 210.128 626.343 212.28C619.328 215.217 615.687 220.549 614.547 227.402C613.391 234.358 613.058 241.795 619.506 246.782C621.546 248.361 625.505 249.657 627.49 248.731C636.018 244.754 645.06 241.028 652.235 235.156C673.536 217.724 689.246 195.409 701.916 171.288C713.319 149.576 722.919 126.916 733.275 104.656C735.645 99.5633 738.125 94.4963 740.073 89.2386C742.714 82.1075 739.648 77.6972 731.956 77.1009C712.788 75.615 694.16 78.0061 676.378 85.5075C672.719 87.0511 669.559 89.7361 666.043 91.6675C657.065 96.6003 651.16 97.5452 645.495 89.3669C643.328 86.2381 643.648 80.2693 644.807 76.1492C649.464 59.5895 662.268 51.2134 677.816 47.2998C688.93 44.5021 700.521 43.3993 711.967 42.1742C722.589 41.0373 733.296 40.6478 743.976 40.1364C746.853 39.9986 749.854 41.1939 752.645 40.7713C759.774 39.6922 761.417 33.574 763.108 27.9091C764.112 24.5435 764.155 20.8917 765.154 17.5237C767.443 9.80069 771.274 7.43369 778.923 6.96506C787.564 6.43561 795.334 8.65289 802.427 13.2072C804.461 14.5137 806.426 16.9869 807.005 19.2829C808.23 24.1334 808.548 29.2164 809.186 34.2106C809.884 39.6792 813.529 43.0118 818.972 43.074C819.972 43.0854 820.977 43.018 821.973 43.0844C835.093 43.9585 835.855 40.9538 839.122 28.3164C840.28 23.8354 840.506 19.1167 841.219 14.516C841.863 10.3592 848.134 4.76014 852.318 5.13355C860.121 5.82986 868.23 5.92444 874.456 11.834C879.764 16.8718 882.542 22.8175 882.325 30.4615C881.939 44.06 886.88 48.9157 900.672 49.0135C906.923 49.0578 913.223 48.7677 919.42 47.9895C928.35 46.8684 937.538 46.5336 945.702 42.0414C948.644 40.4225 951.381 38.4312 954.204 36.5975C961.075 32.1338 967.557 31.3964 970.328 36.0726C972.432 39.6225 972.967 44.7372 972.541 48.9891C972.009 54.2882 969.136 58.7614 964.128 61.8378C955.182 67.3323 945.299 70.4187 935.23 71.8707C918.26 74.3177 901.117 75.6913 884.005 76.9706C875.72 77.59 873.954 83.7258 871.459 89.513C866.261 101.566 861.314 113.728 856.007 125.731C851.802 135.241 847.71 144.856 842.681 153.933C834.425 168.838 825.12 183.162 816.889 198.079C811.02 208.715 806.162 219.912 800.903 230.882C799.088 234.668 800.002 238.31 803.238 240.493C806.504 242.695 808.93 239.744 811.213 237.645C823.695 226.169 830.703 211.084 838.124 196.346C848.502 175.738 860.053 155.833 873.756 137.292C878.757 130.525 884.546 123.882 891.272 118.954C901.564 111.415 912.82 104.437 925.662 102.642C935 101.337 944.851 101.973 954.244 103.331C961.877 104.435 969.219 115.733 969.246 123.542C969.253 125.709 969.26 127.876 969.245 130.044C969.195 137.207 964.148 142.739 956.992 143.002C955.282 143.065 953.338 142.065 951.824 141.065C948.579 138.921 945.689 136.226 942.392 134.179C937.332 131.04 933.75 135.031 931.121 138.005C925.337 144.551 919.929 151.53 915.15 158.843C904.944 174.461 895.117 190.346 890.133 208.62C887.904 216.791 885.238 225.135 888.344 233.458C891.353 241.525 898.009 249.432 905.516 246.867C911.193 244.927 917.867 241.662 920.844 236.937C927.102 227.003 930.978 215.598 936.307 205.036C939.837 198.039 943.206 190.561 948.383 184.879C959.181 173.03 966.868 159.528 971.808 144.619C975.033 134.888 976.291 124.489 978.201 114.345C979.124 109.444 982.199 104.776 988.429 104.864C998.43 105.006 1006.45 109.846 1012.25 116.283C1018.24 122.933 1020.31 131.75 1018.69 142.006C1015.64 161.276 1009.26 179.121 1000.09 195.994C995.342 204.735 988.857 212.535 983.128 220.741C981.276 223.395 978.844 225.777 977.605 228.679C976.737 230.711 976.682 233.779 977.619 235.737C979.118 238.872 982.39 238.91 985.347 237.522C992.96 233.948 998.259 227.766 1003.24 221.272C1015.6 205.172 1024.35 187.159 1031.73 168.349C1033.66 163.439 1036.36 158.64 1043.34 159.022C1050.95 159.439 1056.33 166.687 1054.7 174.351C1051.36 190.037 1043.06 203.413 1035.76 217.342C1027.51 233.081 1016.38 246.42 1003.46 258.296C993.318 267.618 982.183 275.782 968.534 279.315C959.126 281.75 950.493 280.527 944.333 271.815C943.575 270.742 942.484 269.901 941.54 268.96C936.835 264.27 934.731 264.124 929.56 268.353C922.632 274.019 915.161 278.862 906.292 280.537C889.988 283.616 873.56 284.52 859.42 273.962C853.249 269.355 848.662 262.607 843.438 256.758C841.142 254.187 839.05 251.434 836.065 247.785C828.155 256.043 821.013 263.976 813.337 271.353C808.004 276.478 802.117 281.082 794.416 282.486C779.624 285.183 765.23 281.238 759.735 264.532C755.785 252.526 755.858 252.55 746.229 260.42C737.116 267.868 727.331 274.724 715.903 278.072C701.582 282.268 691.096 282.224 681.332 269.845C679.123 267.044 676.946 264.215 674.812 261.355C672.009 257.6 669.11 257.075 665.08 259.708C651.423 268.632 637.21 276.307 621.051 279.759C606.24 282.923 592.092 281.582 579.986 271.955C575.282 268.214 571.834 262.722 568.358 257.654C564.496 252.024 562.476 248.915 554.131 256.539C546.012 263.954 538.184 271.863 529.245 278.159C518.873 285.465 506.908 287.278 495.36 280.598C491.397 278.306 488.288 274.009 485.67 270.045C481.895 264.327 478.625 262.41 473.092 266.307C461.045 274.789 447.025 276.871 433.298 280.03C417.746 283.609 397.182 275.318 390.079 261.183C386.969 254.996 386.642 247.108 386.287 239.932C385.976 233.642 387.191 227.237 388.1 220.937C389.087 214.096 383.277 211.759 377.847 213.748C368.853 217.042 361.682 221.124 358.364 231.656C355.594 240.452 350.217 248.965 344.197 256.083C332.665 269.718 319.302 281.432 301.37 286.425C289.511 289.728 277.526 290.94 265.748 287.031C255.933 283.774 248.987 276.809 244.947 267.122C244.143 265.194 242.977 263.419 242.035 261.545C238.683 254.874 234.165 254.25 229.618 260.067C216.42 276.954 202.402 293.09 186.834 307.858C181.247 313.159 175.984 318.801 170.453 324.164C153.562 340.546 135.288 355.09 113.672 364.796C101.308 370.348 88.7446 375.923 74.7178 375.143C47.0275 373.605 24.734 362.871 10.8567 337.54C5.87588 328.449 4.26064 318.531 1.8738 308.742C2.37362 311.243 1.35784 306.626 1.8738 308.742C-1.09 299.665 -0.0898287 266.653 1.79431 254.981ZM784.153 163.435C788.825 153.394 793.808 143.484 798.094 133.281C804.231 118.669 809.938 103.875 815.655 89.0915C817.363 84.6758 815.648 81.1098 811.032 80.1609C806.589 79.2478 801.926 79.4131 797.362 79.0844C794.476 78.8765 793.132 80.1087 792.077 82.9645C782.623 108.546 772.511 133.863 760.157 158.218C751.724 174.841 743.265 191.452 734.722 208.019C729.933 217.304 724.868 226.447 720.144 235.764C719.495 237.045 720.102 238.963 720.128 240.587C721.534 240.228 723.042 240.086 724.33 239.477C734.371 234.729 741.732 226.812 748.401 218.291C754.272 210.79 759.936 203.081 765.094 195.079C771.625 184.947 777.551 174.426 784.153 163.435ZM642.107 148.657C640.01 152.404 637.472 155.988 636.001 159.966C635.263 161.964 635.643 165.471 636.993 166.873C638.744 168.691 641.713 170.214 644.805 167.904C654.396 160.742 662.196 152.101 667.502 141.302C668.585 139.099 669.662 136.435 667.267 134.97C665.116 133.654 662.07 132.798 659.623 133.151C650.878 134.413 647.501 142.209 642.107 148.657Z"/>
<path d="M1876.56 181.624C1876.06 184.625 1874.09 189.264 1873.66 190.203C1865.45 208.084 1854.48 224.197 1841.89 239.194C1835.21 247.138 1828.2 254.837 1820.85 262.157C1816.15 266.843 1811.14 271.966 1805.25 274.572C1789.83 281.387 1772.1 280.71 1766.41 261.16C1763.36 250.677 1762.97 239.485 1764.21 228.135C1766.16 210.39 1772.32 194.397 1780.57 178.96C1785.58 169.601 1791 160.462 1795.98 151.092C1798 147.293 1799.51 143.194 1800.94 139.121C1801.44 137.682 1801.02 135.916 1801.02 134.299C1800.51 133.976 1799.99 133.653 1799.48 133.331C1793.69 137.565 1787.47 141.325 1782.23 146.151C1775.31 152.529 1768.66 159.345 1762.76 166.674C1747.2 186.007 1737.89 208.64 1730.68 232.054C1726.96 244.165 1725.56 256.978 1722.25 269.241C1721.34 272.617 1717.61 277.301 1714.68 277.685C1704.86 278.975 1694.57 279.164 1686 272.83C1682.1 269.95 1679.17 265.766 1675.56 261.914C1669.66 266.046 1664.05 270.807 1657.73 274.213C1644.61 281.271 1630.74 284.506 1616.32 278.076C1608.87 274.751 1604.45 268.389 1601.48 260.965C1600.82 259.327 1600.1 257.714 1599.47 256.069C1598.01 252.315 1595.8 252.238 1592.71 254.34C1583.78 260.41 1574.8 266.394 1565.77 272.314C1557.18 277.944 1547.4 279.39 1538.27 275.769C1532.86 273.626 1528.43 268.032 1524.59 263.173C1519.67 256.936 1519.83 256.877 1514.38 262.478C1508.67 268.346 1502.94 274.913 1495.86 278.53C1488.37 282.356 1479.73 284.093 1470.48 282.434C1460.78 280.692 1454.06 275.876 1450.4 267.423C1446.43 258.245 1445.44 248.422 1447.28 238.328C1448.73 230.342 1449.33 222.203 1450.44 214.151C1450.92 210.715 1448.52 209.358 1446.21 209.302C1442.01 209.2 1437.71 209.714 1433.61 210.652C1432.29 210.954 1431.04 213.247 1430.46 214.879C1425.94 227.768 1421.61 240.741 1413.4 251.909C1402.89 266.23 1390.53 278.361 1372.52 282.486C1354.58 286.597 1337.86 284.358 1324.28 270.514C1315.8 261.863 1311.87 250.931 1310.51 239.221C1309.71 232.32 1310.6 225.239 1310.32 218.255C1309.47 197.105 1314.51 177.115 1324.63 158.949C1336.53 137.586 1353.22 120.454 1377.33 112.853C1386.81 109.864 1396.96 107.341 1406.78 107.431C1427.75 107.624 1437.51 119.074 1438.34 139.964C1438.59 146.325 1433.67 151.178 1427.33 151.01C1423.35 150.905 1419.29 150.177 1415.47 149.04C1411.16 147.758 1408.17 144.981 1408.31 139.828C1408.34 138.619 1407.49 137.025 1406.53 136.307C1406.06 135.956 1404 136.91 1403.33 137.786C1397.59 145.222 1390.88 152.194 1386.62 160.421C1378.97 175.187 1372.21 190.498 1366.24 206.027C1362.52 215.705 1360.14 226.088 1358.67 236.371C1357.76 242.767 1358.42 250.155 1365.51 254.057C1366.76 254.743 1368.89 254.62 1370.31 254.077C1380.04 250.355 1387.73 244.125 1392.22 234.583C1395.54 227.517 1398.21 220.145 1401.49 213.053C1403.53 208.628 1401.67 205.087 1399.43 201.779C1393.08 192.388 1391.83 182.263 1394.66 171.539C1396.67 163.929 1404.64 157.704 1413.48 157.224C1418.68 156.942 1424.01 157.298 1429.15 158.15C1435.73 159.24 1438.61 164.427 1440.38 170.274C1441.39 173.649 1442.63 177.03 1443.06 180.495C1443.72 185.79 1447.17 185.873 1450.8 184.898C1460.81 182.215 1469.06 176.81 1474.21 167.612C1481.14 155.234 1485.24 141.926 1486.45 127.741C1486.97 121.729 1487.12 115.559 1488.72 109.821C1489.47 107.141 1493.09 103.715 1495.74 103.395C1505.16 102.259 1522.6 105.205 1528.59 116.948C1530.59 120.85 1532.13 125.431 1532.26 129.75C1532.61 141.333 1531.14 152.741 1525.8 163.337C1519.81 175.225 1514.17 187.299 1507.91 199.039C1501.63 210.805 1494.74 222.246 1488.19 233.864C1487.17 235.663 1486.14 237.587 1485.77 239.574C1485.48 241.174 1485.66 243.956 1486.57 244.425C1487.93 245.136 1490.42 244.847 1491.89 244.023C1502.96 237.827 1509.97 227.601 1516.28 217.214C1526.8 199.908 1536.43 182.061 1546.41 164.429C1550.61 157.018 1555.23 149.797 1558.77 142.083C1561.74 135.626 1564.85 128.895 1562.55 121.231C1561.35 117.232 1564.98 111.324 1569.36 110.14C1576.76 108.138 1584.24 108.258 1591.41 111.123C1600.8 114.875 1605.39 122.683 1606.32 132.116C1607.81 147.267 1606.16 162.123 1598.29 175.653C1587.45 194.281 1576.52 212.86 1565.64 231.469C1564.51 233.409 1563.24 235.327 1562.5 237.421C1562.01 238.838 1562.34 240.546 1562.31 242.124C1564.24 242.082 1566.6 242.753 1568.03 241.882C1577.3 236.204 1584.71 228.441 1591.18 219.807C1603.02 204.031 1613.11 187.179 1621.43 169.301C1633.14 144.133 1643.49 118.428 1651.5 91.8143C1652.46 88.5978 1653.59 85.4162 1654.88 82.3134C1656.21 79.0843 1655.61 77.2538 1651.87 76.9241C1650.28 76.7841 1648.72 76.134 1647.15 76.1252C1634.81 76.0564 1622.47 75.8753 1610.14 76.1507C1599.26 76.3935 1590.23 80.5159 1583.2 89.295C1581.61 91.2821 1577.17 92.3657 1574.49 91.7855C1570.48 90.9153 1567.93 87.292 1567.48 82.9299C1565.34 62.2852 1574.82 51.1059 1593.08 44.2397C1598.55 42.1805 1604.73 41.4855 1610.64 41.1839C1629.47 40.2227 1648.33 39.8971 1667.16 39.0118C1677.66 38.5184 1681.32 34.2669 1681.48 23.492C1681.54 19.6585 1681.4 15.8204 1681.51 11.9893C1681.7 5.82584 1684.91 2.6252 1691.12 2.01384C1692.86 1.66522 1700.32 1.21249 1702.5 1.56124C1705.5 2.06141 1705.04 2.25078 1707.58 3.07155C1711.8 4.43362 1716.55 5.03595 1720.11 7.41393C1729.62 13.7846 1731.77 23.9104 1731.32 34.5168C1731.18 37.7595 1731.93 39.2517 1734.62 40.0931C1741.93 42.3823 1749.09 40.7993 1756.09 38.717C1757.5 38.2989 1759.01 36.2769 1759.4 34.7275C1760.7 29.447 1762.09 24.0778 1762.38 18.6854C1762.73 12.1131 1761.67 5.38199 1767.98 0.76512C1768.14 1.0096 1767.99 0.755661 1767.98 0.76512C1770.52 -0.439453 1781.57 0.0607133 1788.77 0.377201C1801.18 5.75756 1806.3 15.5949 1807.73 28.1342C1807.86 29.2523 1810.28 30.2564 1811.79 31.0288C1813.43 31.8725 1815.55 31.9987 1816.92 33.1102C1822.16 37.3744 1822.07 43.3107 1820.92 49.1442C1819.31 57.2779 1813.17 61.6462 1806.2 64.7295C1801.45 66.8303 1799.08 70.28 1797.44 74.9654C1794.96 82.0442 1791.83 88.8956 1789.23 95.9337C1788.24 98.6082 1787.92 101.532 1787.29 104.342C1790.26 104.173 1793.39 104.57 1796.16 103.737C1809.13 99.8304 1820.41 102.587 1830.45 111.473C1836.85 117.135 1838.39 124.477 1839.85 132.609C1842.14 145.362 1838.39 157.017 1834.21 168.05C1826.61 188.101 1816.89 207.342 1808.21 226.987C1806.02 231.942 1804.46 237.172 1802.47 242.223C1801.39 244.989 1802.33 245.746 1804.7 244.436C1809.73 241.654 1815.36 239.385 1819.42 235.511C1837.27 218.454 1849.07 197.303 1858.57 174.795C1862.34 165.863 1867.92 162.934 1876.56 166.118C1879.06 168.119 1877.79 174.229 1876.56 181.624ZM1718.96 127.138C1723.81 113.743 1728.8 100.398 1733.45 86.9372C1737.23 75.9943 1737.05 76.1595 1725.27 75.9777C1720.42 75.9028 1718.76 78.6344 1717.55 82.3201C1716.75 84.7462 1716.5 87.3806 1715.5 89.7094C1707.52 108.39 1700.09 127.347 1691.17 145.573C1682.42 163.449 1672.18 180.599 1662.47 198.002C1657.62 206.703 1652.31 215.155 1647.6 223.931C1645.75 227.39 1643.69 231.446 1648.41 236.294C1655.22 231.306 1663.08 227.377 1668.43 221.258C1680.76 207.16 1690.8 191.297 1698.46 174.11C1705.31 158.754 1711.86 143.263 1718.96 127.138Z"/>
<path d="M1143.35 379.261C1144.41 379.417 1141.9 378.594 1143.35 379.261C1133.22 377.764 1122.8 377.439 1113 374.775C1102.1 371.813 1091.53 367.276 1081.25 362.492C1068.05 356.348 1057.91 346.087 1049.42 334.561C1041.8 324.231 1038.67 312.178 1038.11 299.176C1037.45 283.752 1038.98 268.476 1044.05 254.245C1053.16 228.638 1070.97 210.881 1098.3 205.402C1112.57 202.54 1127.05 203.576 1141.48 207.819C1152.89 211.172 1162.47 216.501 1171.12 224.342C1179.89 232.288 1182.34 242.78 1184.58 253.69C1187.64 268.654 1181.99 283.047 1167.81 289.269C1157.96 293.595 1142.53 291.647 1135.99 285.442C1131.23 280.916 1132.53 276.134 1133.94 270.734C1136.32 261.599 1136.73 252.208 1132.87 243.357C1129.16 234.834 1116.98 228.412 1107.87 230.285C1101.68 231.558 1095.64 233.84 1089.73 236.163C1080.37 239.842 1074.26 247.25 1070.93 256.261C1067.84 264.63 1065.16 273.535 1064.56 282.358C1063.47 298.303 1070.55 312.297 1079.03 325.206C1087.12 337.538 1100.11 343.022 1113.91 346.066C1129.46 349.493 1144.93 346.91 1159.63 341.904C1168.76 338.795 1177.42 333.64 1185.42 328.136C1189.88 325.069 1193.18 319.751 1195.87 314.828C1199.28 308.578 1202.14 301.877 1204.18 295.056C1208.09 282.035 1209.6 268.759 1206.38 255.201C1202.66 239.537 1199.92 223.615 1195.61 208.124C1191.97 195.037 1186.14 182.568 1182.28 169.529C1177.13 152.132 1171.37 134.677 1168.77 116.824C1166.12 98.5803 1164.63 79.6052 1170.46 61.4828C1176.23 43.5663 1189.42 32.7268 1207.36 28.2104C1219.03 25.2732 1231.02 25.4891 1243.08 26.8882C1251.63 27.8803 1260.29 27.7752 1268.44 31.059C1280.42 35.8909 1290.25 43.4677 1298.55 53.4451C1305.13 61.3517 1309.69 70.0506 1311.72 79.9838C1313.31 87.7646 1314.53 95.6618 1315.27 103.567C1316.04 111.778 1316.4 120.068 1316.24 128.311C1316.13 134.136 1315.27 140.026 1314.02 145.729C1312.43 152.985 1306.94 157.48 1298.58 158.006C1287.93 158.676 1277.5 156.963 1267.85 152.132C1261.92 149.167 1259.36 143.689 1261.16 137.697C1264.51 126.519 1269.02 115.611 1271.41 104.247C1273.49 94.3418 1276.01 83.4835 1268.18 74.5257C1258.48 63.424 1244.38 63.2438 1235.43 75.7905C1229.34 84.3148 1227.48 93.9045 1230.79 103.911C1237.54 124.288 1244.74 144.515 1251.6 164.856C1255.34 175.944 1259.26 187.009 1262.21 198.316C1266.36 214.183 1270.77 230.113 1273.04 246.301C1275.18 261.596 1276.03 277.354 1274.96 292.733C1273.96 307.096 1269.18 320.908 1259.56 332.593C1247.83 346.831 1234.61 359.252 1217.49 366.363C1202.23 372.7 1186.89 379.509 1169.75 379.249C1170.46 378.455 1168.74 379.233 1169.75 379.249C1163.36 379.63 1150.51 379.261 1143.35 379.261Z"/>
<path d="M614.726 1938C606.455 1931.73 605.837 1923.49 606.004 1914.45C606.279 1899.66 602.634 1885.19 597.128 1871.76C587.62 1848.56 589.475 1825.63 594.344 1802.03C603.015 1759.99 606.677 1717.32 609.484 1674.54C611.476 1644.17 614.387 1613.8 616.215 1583.5C618.464 1546.23 621.868 1508.24 610.562 1471.29C602.156 1443.82 586.799 1420.99 562.468 1406.17C537.655 1391.07 511.882 1376.95 482.401 1372.34C475.056 1371.2 467.647 1369.59 460.276 1369.64C418.287 1369.87 377.032 1364.39 335.928 1356.12C299.256 1348.75 263.616 1338.26 228.348 1325.99C217.267 1322.14 210.93 1312.83 201.666 1307.01C182.168 1294.77 162.16 1283.27 144.118 1268.81C134.308 1260.94 130.544 1250.78 129.404 1238.36C127.091 1213.15 134.919 1190.87 147.437 1169.94C159.724 1149.4 170.217 1127.83 184.08 1108.16C199.915 1085.69 219.999 1067.99 243.043 1053.7C272.01 1035.73 300.348 1016.81 329.077 998.517C345.167 988.27 361.329 978.015 377.646 968.081C407.276 950.042 430.753 924.505 457.939 903.554C478.953 887.359 497.146 868.794 512.484 847.25C524.093 830.943 527.993 811.771 533.143 793.036C539.236 770.873 543.655 748.22 552.879 726.972C555.506 720.922 559.218 716.644 565.753 714.794C586.038 709.052 606.387 703.497 626.491 697.171C642.609 692.099 658.387 692.206 674.321 697.354C676.111 697.932 678.016 698.826 680.25 697.352C682.484 684.931 684.271 672.138 687.125 659.587C708.636 564.977 763.401 496.119 849.464 452.133C892.769 430.001 939.287 420.243 987.762 421.046C1131.86 423.433 1254.15 524.908 1281.49 667.244C1284.2 681.336 1285.25 695.542 1286.69 709.715C1287.35 716.188 1290.05 718.475 1295.85 719.917C1308.32 723.021 1320.95 723.65 1333.57 722.543C1350.64 721.046 1366.32 725.131 1381.51 732.276C1398.28 740.168 1415.65 746.487 1433.33 751.971C1439.87 753.997 1446.01 756.738 1451.64 760.834C1461.01 767.656 1467.51 775.341 1462.83 787.875C1462.4 789.052 1462.34 790.463 1462.45 791.738C1465.25 826.689 1457.56 861.427 1460.39 896.404C1461.13 905.53 1464.77 913.035 1469.47 921.05C1471.57 919.976 1472.98 919.332 1474.31 918.559C1494.1 907.1 1516.39 915.208 1523.82 936.875C1527.07 946.334 1523.09 954.095 1516.12 960.254C1505.82 969.342 1505.62 971.075 1511.93 983.071C1520.23 998.838 1532.16 1011.81 1544.49 1024.1C1563.37 1042.9 1581.04 1062.75 1598.66 1082.65C1616.78 1103.13 1638.33 1119.98 1657.38 1139.49C1676.43 1159.01 1692.78 1179.94 1701.95 1205.88C1710.53 1230.12 1720.89 1253.4 1736.01 1274.48C1751.53 1296.1 1749.37 1321.15 1748.15 1345.82C1747.71 1354.64 1744.52 1362.91 1742.56 1371.43C1735.73 1401.11 1714.67 1410.34 1684.22 1415.97C1666.29 1419.28 1649.23 1413.45 1632.99 1407.06C1616.83 1400.69 1600.05 1399.69 1583.39 1398.93C1553.23 1397.54 1524.09 1393.11 1497.18 1378.61C1493.77 1376.78 1490.08 1375 1487.45 1372.28C1479.26 1363.83 1470.38 1363.93 1460.98 1369.39C1443.81 1379.34 1424.79 1385.54 1407.63 1395.34C1388.83 1406.08 1368.27 1411.65 1347.92 1417.85C1340.55 1420.1 1336.97 1423.93 1336.13 1431.16C1331.54 1470.75 1327.21 1510.38 1322.2 1549.92C1318.7 1577.58 1314.35 1605.15 1309.97 1632.66C1304.18 1669.08 1304.62 1705.65 1303.22 1742.24C1302.05 1772.88 1305.14 1803.08 1308.1 1833.46C1310.35 1856.63 1299.65 1877.78 1293.56 1899.55C1289.68 1913.4 1283.15 1925.99 1273.21 1937.42C1268.91 1938 1264.92 1938 1260.5 1937.53C1263.09 1934.07 1263.08 1931.34 1258.98 1929.55C1256.35 1928.4 1253.5 1927.52 1250.66 1927.07C1234.37 1924.5 1218.27 1921.68 1204.17 1912.02C1201.16 1909.96 1196.67 1907.78 1191.65 1911.67C1193.26 1920.09 1192.71 1929.05 1192.94 1938C1190.24 1938 1187.53 1938 1183.82 1937.11C1182.73 1928.82 1182.84 1921.42 1182.47 1914.05C1182.26 1909.76 1182.86 1904.41 1175.98 1904.45C1169.6 1904.49 1168.07 1908.17 1168.2 1913.94C1168.37 1921.95 1167.83 1929.98 1167.6 1938C1164.89 1938 1162.18 1938 1158.93 1937.26C1159.3 1929.63 1160.66 1922.71 1157.66 1916.02C1149.2 1915.14 1145.68 1918.54 1146.71 1926.51C1147.21 1930.34 1147.64 1934.17 1148.1 1938C1144.76 1938 1141.41 1938 1137.52 1937.3C1139.31 1918.04 1136.22 1912.55 1123.87 1914.71C1126.98 1922.21 1126.54 1930.32 1128.6 1938C1125.26 1938 1121.91 1938 1117.95 1937.36C1117.12 1929.43 1118.39 1920.79 1109.81 1917.76C1099.79 1914.21 1086.18 1922.55 1081.18 1934.39C1075.99 1934.39 1070.46 1934.39 1064.92 1934.39C1074.36 1937.35 1084.32 1933.74 1093.5 1938C1073.96 1938 1054.43 1938 1034.54 1937.65C1036.43 1935.66 1040.21 1936.68 1041.63 1932.62C1036.81 1928.24 1031.12 1925.34 1024.46 1925.98C991.541 1929.14 958.517 1928.38 925.536 1929.1C921.942 1929.18 918.396 1929.37 916.094 1932.63C915.959 1935.59 918.664 1936.27 919.97 1938C904.98 1938 889.991 1938 873.371 1937.65C856.601 1936.37 841.446 1934.36 826.379 1938C813.989 1938 801.599 1938 788.23 1937.2C788.248 1929.4 784.837 1926.15 778.146 1925.67C769.462 1925.05 760.778 1924.44 752.126 1923.83C749.005 1928.54 748.454 1933.12 750.336 1938C746.993 1938 743.65 1938 739.43 1937.2C739.625 1926.94 740.861 1917.51 745.025 1908.55C727.744 1906.1 727.614 1906.24 727.448 1921.5C727.388 1927 727.114 1932.5 726.938 1938C724.23 1938 721.522 1938 717.906 1937.11C716.991 1934.28 716.97 1932.34 716.981 1930.4C717.07 1914.63 712.559 1910.85 696.609 1913.36C695.336 1913.56 694.085 1913.9 692.828 1914.19C677.422 1917.79 661.933 1921.08 646.649 1925.14C639.249 1927.1 630.862 1927.19 624.832 1932.79C626.289 1936.68 629.781 1935.97 631.397 1938C626.133 1938 620.868 1938 614.726 1938ZM1030.78 1074.9C1021.98 1088.55 1009.83 1095.52 993.224 1094.57C988.799 1094.32 984.173 1095.51 979.81 1096.68C969.833 1099.36 958.3 1109.81 958.819 1116.05C960.724 1138.96 962.151 1161.95 965.328 1184.7C968.283 1205.85 972.906 1226.7 974.577 1248.13C976.296 1270.18 975.938 1292.28 977.536 1314.28C980.188 1350.78 976.515 1386.91 972.292 1422.98C968.929 1451.7 967.505 1480.44 968.232 1509.29C968.763 1530.35 970.066 1551.4 971.246 1572.44C973.11 1605.68 968.134 1638.47 965.088 1671.39C962.762 1696.53 961.981 1721.73 957.975 1746.82C954.315 1769.73 948.794 1792.81 951.68 1816.35C954.618 1840.33 952.75 1864.37 953.357 1888.37C953.44 1891.61 953.332 1894.9 953.806 1898.09C956.742 1917.86 960.126 1920.45 980.011 1918.56C980.334 1918.53 980.66 1918.52 980.984 1918.51C985.418 1918.47 987.492 1916.17 987.401 1911.8C987.202 1902.2 990.462 1893.29 992.874 1884.21C1002.75 1847.02 1004.29 1845.54 1041.34 1838.81C1045.27 1838.09 1049.37 1836.97 1056.22 1841.19C1046.62 1844.3 1039.55 1846.78 1032.36 1848.87C1019.22 1852.69 1008.57 1858.69 1005.59 1873.73C1003.4 1884.84 999.959 1895.7 997.369 1906.74C996.526 1910.33 995.165 1914.4 1000.66 1918.51C1011.16 1894.57 1028.53 1876.17 1046.27 1858.13C1064.47 1839.64 1086.42 1828.03 1112.33 1823.42C1070.5 1843.99 1038.18 1874.18 1012.55 1916.03C1025.19 1915.01 1034.73 1913.8 1044.3 1913.59C1054.58 1913.36 1061.32 1908.67 1067.88 1900.87C1088.16 1876.77 1106.16 1850.81 1127.59 1827.67C1136.65 1817.89 1144.38 1807.73 1138.31 1793.22C1137.96 1792.39 1138.21 1791.29 1138.2 1790.32C1137.9 1763.33 1139.58 1736.38 1144.26 1709.87C1147.15 1693.47 1142.58 1674.85 1156.62 1661.18C1157.18 1660.63 1157.08 1659.32 1157.16 1658.36C1158.56 1640.6 1160.05 1622.85 1161.32 1605.09C1162.29 1591.51 1162.88 1577.9 1163.89 1564.33C1164.18 1560.54 1166.63 1556.21 1162.89 1553.47C1159.28 1550.82 1155.36 1553.7 1151.95 1555.33C1148.77 1556.86 1145.96 1559.17 1142.96 1561.1C1139.95 1563.03 1138.41 1567.76 1132.73 1566.01C1132.35 1562.18 1134.34 1559.39 1136.64 1556.69C1142.48 1549.84 1149.56 1544.85 1158.31 1542.48C1161.93 1541.5 1165.01 1540.5 1165.17 1535.75C1166.12 1506.87 1171.73 1478.49 1174.48 1449.81C1175.32 1441.1 1175.61 1432.07 1173.4 1420.79C1140.56 1455.92 1104.58 1484.29 1073.3 1518.28C1069.56 1513.51 1071.32 1511.12 1073.18 1508.83C1076.87 1504.29 1080.59 1499.78 1084.37 1495.33C1108.85 1466.52 1138.97 1443.42 1164.77 1415.94C1168.93 1411.5 1174.31 1407.83 1174.82 1401.01C1177.43 1366.09 1181.24 1331.2 1182.28 1296.23C1184.11 1234.47 1178.9 1173.06 1168.66 1112.12C1166.11 1096.94 1161.36 1082.33 1154.91 1066.24C1153.76 1070.8 1153.1 1073.29 1152.5 1075.8C1151.82 1078.64 1151.35 1081.54 1150.53 1084.34C1147.33 1095.17 1143.68 1096.64 1133.48 1091.31C1132.04 1090.56 1130.72 1089.58 1129.28 1088.84C1108.65 1078.28 1090.88 1063.42 1071.82 1050.49C1065.41 1046.14 1060.43 1046.19 1054.5 1051.23C1046.3 1058.22 1038.92 1065.94 1030.78 1074.9ZM599.672 1114.11C601.946 1076.41 615.334 1040.82 621.431 1002.53C605.619 1004.81 590.207 1005.3 576.217 1011.3C558.926 1018.72 556.168 1035.62 554.625 1052.7C544.362 1047.91 553.459 1033.7 541.769 1032.07C533.517 1030.92 525.021 1027.81 516.38 1031.95C532.58 1053.89 542.985 1087.01 542.806 1096.15C537.653 1095.67 537.43 1090.95 535.925 1087.74C529.573 1074.21 523.404 1060.53 514.939 1048.19C505.305 1034.14 491.176 1028.17 474.405 1027.85C470.61 1027.78 467.588 1029.11 464.721 1031.59C446.706 1047.18 430.943 1064.83 416.598 1083.79C415.227 1085.61 413.634 1087.32 414.302 1089.9C417.026 1100.41 419.747 1110.92 422.56 1121.79C438.463 1111.11 443.816 1111.5 455.709 1125.16C467.928 1139.19 476.676 1155.61 485.906 1171.65C487.065 1173.66 488.692 1176.29 485.602 1178.52C480.848 1178 479.711 1173.71 477.76 1170.61C468.395 1155.72 458.069 1141.58 446.137 1128.65C443.278 1125.55 440.252 1122.19 435.282 1125.03C424.233 1131.36 422.792 1157.56 432.828 1165.39C447.225 1176.62 460.681 1188.91 470.42 1204.54C494.898 1243.85 513.332 1286.07 529.583 1329.28C531.196 1333.57 536.188 1340.36 529.046 1342.69C522.058 1344.97 522.225 1336.49 520.524 1332.17C503.725 1289.54 486.224 1247.25 461.291 1208.53C453.26 1196.06 442.739 1185.94 430 1175.71C429.565 1187.67 434.261 1197.16 430.813 1207.18C412.178 1173.24 418.846 1133.27 405.445 1097.21C403.2 1099.36 401.49 1100.47 400.49 1102.04C392.106 1115.15 383.789 1128.3 375.644 1141.56C374.71 1143.08 374.943 1145.33 374.655 1147.24C371.718 1166.79 369.052 1186.39 365.788 1205.89C360.759 1235.94 341.185 1258.39 324.871 1282.48C322.998 1285.25 320.378 1288.25 313.824 1285.83C339.427 1249.14 362.573 1211.66 360.263 1164.15C357.784 1167.79 355.505 1170.86 353.505 1174.11C335.805 1202.84 317.695 1231.33 300.627 1260.43C285.137 1286.83 267.386 1310.01 232.874 1317C257.848 1326.59 281.288 1332.77 304.682 1339.19C327.679 1345.5 350.503 1353.83 371.988 1335.21C374.144 1333.34 376.997 1333.85 378.768 1336.49C380.317 1338.8 379.397 1341.05 377.639 1342.62C374.217 1345.67 370.523 1348.41 365.937 1352.09C398.398 1356.92 429.22 1360.33 460.444 1360.63C471.596 1360.74 483.04 1361.62 494.157 1364.36C516.422 1369.85 536.546 1380.52 556.863 1390.47C566.893 1395.38 576.397 1401.92 584.614 1410.02C613.705 1438.68 627.116 1474.09 627.657 1514.12C628.042 1542.58 628.762 1571 624.87 1599.6C620.471 1631.94 620.921 1664.92 618.267 1697.54C615.217 1735.02 611.64 1772.48 603.448 1809.32C599.328 1827.84 597.98 1846.18 605.582 1864.56C610.645 1876.8 613.68 1889.85 615.856 1903.04C616.888 1909.3 614.913 1915.89 617.875 1922.44C630.15 1919.37 642.056 1916.43 653.936 1913.38C656.249 1912.79 657.66 1910.97 658.889 1908.95C669.215 1892.05 682.411 1878.8 702.638 1874.32C705.039 1873.79 707.964 1872.8 707.976 1869.5C707.987 1866.15 705.69 1864.14 702.819 1863.09C698.86 1861.63 694.77 1860.85 690.474 1860.61C679.236 1859.98 668.596 1862.97 657.829 1865.31C654.858 1865.96 651.773 1868.06 648.224 1863.91C663.888 1848.3 684.039 1852.29 703.243 1851.33C703.379 1835.76 699.907 1820.88 703.457 1806.24C706.119 1795.25 705.44 1784.16 704.404 1773.27C702.49 1753.14 701.703 1733.15 704.756 1713.11C705.409 1708.82 704.43 1704.88 702.654 1700.85C698.977 1692.51 694.942 1683.86 704.899 1676.58C705.752 1675.96 706.28 1674.26 706.215 1673.11C705.49 1660.17 705.669 1647.06 703.598 1634.33C695.984 1587.52 692.601 1540.4 691.311 1493.07C691.127 1486.31 692.609 1479.5 692.373 1472.75C691.58 1450.04 690.776 1427.32 689.174 1404.65C687.757 1384.6 686.979 1364.42 684.628 1344.53C680.726 1311.52 679.842 1278.25 680.924 1245.43C682.208 1206.49 683.379 1167.57 683.276 1128.63C683.227 1110.01 685.266 1091.73 688.707 1073.53C692.12 1055.47 694.979 1037.38 692.581 1018.77C661.091 1048.2 654.181 1085.46 656.117 1125.8C657.279 1150.02 663.588 1173.14 670.168 1196.26C671.192 1199.86 673.954 1203.96 670.38 1208.14C666.743 1206.97 665.768 1204.13 664.916 1201.46C659.306 1183.87 651.431 1166.88 648.981 1148.44C643.269 1105.42 643.414 1063.41 672.404 1026.95C677.456 1020.59 682.104 1013.92 687.987 1008.29C691.585 1004.84 691.919 1001.01 689.836 996.781C687.836 992.725 683.987 992.745 680.515 993.512C672.479 995.287 664.345 994.668 656.261 995.185C636.068 996.476 631.76 1000.49 627.958 1020.26C625.877 1031.08 623.972 1042.01 620.758 1052.52C613.291 1076.93 609.433 1102.03 608.753 1127.28C607.799 1162.66 604.065 1197.82 602.371 1233.13C602.266 1235.32 602.602 1237.86 596.671 1239.14C598.162 1197.64 595.842 1156.76 599.672 1114.11ZM1550.15 1387.03C1568.99 1386.82 1587.71 1390.9 1607.51 1389.54C1606.06 1387.54 1605.31 1386.5 1604.55 1385.46C1587.7 1362.39 1569.87 1339.85 1558.59 1313.33C1545.88 1283.45 1535.02 1252.86 1525.34 1221.86C1515.22 1189.44 1502.41 1158.33 1481.19 1131.3C1478.55 1127.94 1476.27 1124.41 1471.45 1124C1462.4 1123.25 1453.34 1122.57 1444.31 1121.58C1435.81 1120.64 1429.26 1123.94 1423.38 1129.74C1414.73 1138.27 1408.74 1148.75 1401.65 1158.44C1399.46 1161.43 1398.03 1165.59 1392.6 1165.16C1392.38 1163.99 1391.65 1162.61 1392.02 1161.66C1399.31 1142.89 1409.16 1125.96 1426.86 1114.98C1432.59 1111.43 1438.79 1110.62 1445.59 1111.83C1452.19 1113 1458.99 1113.03 1467.54 1113.7C1461.95 1106.85 1460.13 1098.03 1452.36 1096.3C1437.14 1092.91 1427.11 1083.22 1416.72 1072.66C1389.04 1044.54 1354.21 1026.48 1320.42 1007.19C1309.66 1001.04 1298.27 995.202 1284.91 993.373C1284.35 1002.04 1288.95 1008.74 1290.89 1016.1C1300.98 1054.42 1307.54 1093.39 1312.6 1132.65C1315.88 1158.09 1318.8 1183.56 1317.74 1209.29C1317.58 1213.08 1317.9 1218.28 1312.67 1218.3C1307.43 1218.31 1307.48 1213.14 1307.64 1209.34C1309.11 1175.4 1304.48 1141.89 1299.29 1108.58C1293.35 1070.5 1288 1032.16 1273.59 995.934C1271.54 990.781 1269.07 986.669 1263.33 985.319C1244.49 980.893 1225.57 980.083 1206.35 982.748C1199.08 983.756 1198.66 986.756 1200.91 992.54C1207.75 1010.09 1211.86 1028.43 1216.72 1046.59C1228.76 1091.66 1234.91 1137.66 1237.5 1183.93C1241.18 1249.79 1235.97 1315.68 1234.23 1381.56C1233.63 1404.32 1228.56 1426.62 1226.97 1449.22C1225.56 1469.27 1224.21 1489.18 1221.28 1509.16C1216.64 1540.84 1213.91 1572.87 1213.19 1604.97C1212.97 1614.95 1213.16 1624.94 1213.16 1634.95C1234.91 1634.17 1237.72 1631.92 1242.87 1612.45C1244.2 1607.44 1246.06 1602.58 1247.43 1597.58C1252.69 1578.31 1260.88 1559.86 1261.41 1539.31C1261.69 1528.06 1263.07 1516.61 1266.59 1505.75C1270.07 1494.99 1275.25 1485.29 1285.6 1479.08C1288.39 1483.41 1286.89 1485.98 1285.24 1488.43C1277.23 1500.37 1273.57 1513.72 1272.77 1527.89C1271.54 1549.39 1267.76 1570.25 1260.21 1590.57C1254.49 1605.96 1250.43 1621.96 1245.68 1637.53C1251.45 1643.65 1261.16 1645.12 1263.72 1654.34C1258.68 1657.35 1255.1 1654.12 1251.46 1652.55C1246.4 1650.37 1241.78 1647.08 1236.62 1645.27C1221.92 1640.11 1212.6 1646.1 1211.36 1661.28C1210.97 1666.08 1211.02 1670.89 1212.22 1675.77C1213.84 1682.4 1215.32 1690.17 1211.4 1695.69C1205.64 1703.81 1206.47 1712.18 1207.25 1720.71C1208.66 1735.92 1209.13 1751.13 1209.06 1766.38C1209.06 1767.61 1209.05 1769.05 1211.55 1769.86C1224.95 1760.43 1238.04 1749.31 1254.05 1740.8C1255.07 1748.41 1250.87 1750.56 1247.85 1753.12C1237.18 1762.11 1226.36 1770.93 1215.49 1779.67C1210.83 1783.41 1208.77 1787.9 1214.51 1791.45C1233.3 1803.08 1253.63 1811.39 1275.04 1816.82C1279.96 1818.07 1285.21 1818.47 1286.2 1824.32C1287.34 1831.03 1287.84 1838.04 1281.85 1843.02C1278.6 1841.61 1278.64 1839.54 1278.32 1837.65C1276.37 1826.3 1273.42 1824.97 1262.71 1830.07C1255.05 1833.7 1249.15 1839.65 1241.34 1844.63C1253.94 1851.65 1267.92 1848.52 1282.59 1854.27C1268.96 1860.94 1257.28 1859.64 1245.67 1857.6C1234.18 1855.58 1223.19 1849.21 1210.95 1854.34C1209.13 1855.11 1206.33 1854.85 1204.44 1849.76C1222.46 1844.35 1239.22 1836.07 1253.76 1821.43C1237.14 1816.88 1223.83 1806.93 1208.25 1800.56C1205.52 1813.49 1209.06 1825.46 1205.55 1836.78C1199.28 1856.99 1189.79 1876.44 1192.24 1899.32C1202.4 1899.09 1211.78 1903.88 1220.99 1909.61C1224.72 1911.93 1229.48 1912.78 1233.88 1913.81C1243.99 1916.18 1254.32 1917.71 1264.25 1920.65C1270.76 1922.57 1274.15 1920.71 1276.42 1914.96C1279.15 1908.01 1282.37 1901.22 1284.58 1894.11C1292.46 1868.78 1301.47 1843.91 1296.12 1816.16C1292.57 1797.82 1291.23 1778.76 1292.32 1760C1293.16 1745.41 1294.15 1730.83 1293.59 1716.26C1292.24 1681.01 1297.78 1646.41 1302.71 1611.74C1305.9 1589.28 1310.51 1566.98 1312.9 1544.45C1317.03 1505.49 1321.45 1466.59 1326.67 1427.78C1328.07 1417.39 1332.92 1411.5 1343.07 1408.79C1356.22 1405.29 1369.77 1402.28 1382 1396.6C1413.92 1381.79 1444.93 1365.05 1478.18 1352.06C1474.84 1340.65 1470.57 1329.03 1468.17 1317.03C1465.73 1304.84 1467.29 1292.57 1471.25 1279.1C1473.24 1281.57 1473.97 1282.05 1473.95 1282.51C1473.18 1311.62 1482.69 1337.92 1495.58 1363.38C1496.79 1365.77 1497.48 1368.26 1500.09 1369.28C1516.05 1375.54 1531.23 1384 1550.15 1387.03ZM768.015 1839.07C767.04 1846.37 766.066 1853.66 765.051 1861.26C772.834 1862.89 780.792 1855.83 788.776 1862.6C786.919 1863.92 786.013 1865.05 784.922 1865.27C762.388 1869.91 752.443 1883.17 756.537 1906.24C756.701 1907.16 756.366 1908.17 756.29 1909.14C756.078 1911.87 757.352 1913.88 760.03 1913.77C770.237 1913.34 779.981 1916.4 790.787 1914.23C802.512 1911.88 817.513 1906.13 826.087 1922.38C826.656 1923.46 828.889 1924.01 830.418 1924.18C851.491 1926.55 872.264 1924.19 891.905 1921.34C891.905 1908.71 892.683 1897.35 891.768 1886.13C888.192 1842.31 890.335 1798.53 893.723 1754.91C895.974 1725.91 901.029 1697.13 904.448 1668.19C907.339 1643.73 907.325 1619.04 911.524 1594.74C914.411 1578.03 914.639 1561.09 913.049 1544.27C911.069 1523.31 907.955 1502.53 911.547 1481.38C913.657 1468.96 914.374 1456.31 915.72 1443.76C918.174 1420.89 917.641 1397.81 921.144 1374.99C925.406 1347.24 924.15 1319.39 921.869 1291.52C919.546 1263.12 913.149 1234.92 915.85 1206.26C919.014 1172.69 915.06 1138.75 921.499 1105.38C923.491 1095.06 919.171 1089.66 908.692 1087.96C890.61 1085.04 878.585 1074.2 870.657 1057.91C865.84 1048.01 860.05 1038.58 854.457 1029.07C852.01 1024.91 848.639 1021.97 843.191 1024.33C827.112 1031.29 810.476 1037.12 795.583 1046.54C783.2 1054.37 782.179 1057.34 784.849 1071.52C786.406 1079.79 783.736 1081.94 775.461 1079.95C764.751 1077.36 762.631 1069.07 761.587 1060.06C759.593 1042.86 757.818 1025.64 755.953 1008.43C753.012 1037.62 752.625 1066.96 748.16 1095.67C740.825 1142.84 740.96 1190.01 743.024 1237.35C745.311 1289.8 749.544 1342.21 750.306 1394.67C751.276 1461.5 751.333 1528.34 755.043 1595.1C756.137 1614.8 759.237 1634.4 759.915 1654.1C760.426 1668.95 766.386 1684.5 761.201 1698.37C757.009 1709.58 754.989 1720.38 754.014 1731.94C752.135 1754.23 754.071 1776.52 761.913 1796.98C767.129 1810.59 770.179 1823.26 768.015 1839.07ZM589.841 858.626C606.189 848.622 624.404 845.991 643.039 845.842C650.881 845.779 657.243 849.263 660.833 857.15C664.781 865.824 671.73 872.454 677.985 879.454C681.026 882.856 684.297 888.039 690.07 884.027C695.398 880.324 694.056 874.628 692.264 869.868C689.067 861.375 685.309 853.06 681.274 844.925C676.043 834.381 668.132 826.275 656.854 822.299C640.339 816.475 623.583 811.39 606.54 807.289C602.724 806.371 596.625 807.021 597.855 800.787C599.005 794.958 604.553 796.648 608.403 797.677C621.561 801.196 634.528 805.439 647.711 808.85C670.844 814.834 686.741 828.51 694.804 851.195C697.517 858.829 700.954 866.204 703.775 873.803C705.831 879.342 709.959 881.754 715.157 880.263C719.998 878.875 720.573 874.219 719.413 869.74C718.603 866.611 717.77 863.373 716.247 860.563C708.204 845.733 700.684 830.539 691.524 816.417C683.569 804.153 673.3 791.92 659.674 787.321C640.478 780.842 619.857 778.57 599.827 774.593C596.06 773.845 591.005 774.243 591.654 768.688C592.245 763.64 596.835 765.069 600.3 765.326C620.155 766.797 638.943 773.793 658.532 776.572C665.355 777.541 670.479 780.86 675.42 785.375C688.815 797.616 700.777 811.488 716.12 821.526C719.783 823.922 723.475 828.26 728.166 824.213C732.548 820.435 729.961 815.757 728.122 811.662C714.835 782.08 690.815 763.262 663.513 747.901C659.268 745.513 654.135 744.746 649.26 745.795C634.167 749.043 618.873 743.843 603.765 747.118C600.824 747.756 596.523 748.012 595.878 743.616C595.109 738.373 599.703 738.194 603.12 737.955C620.612 736.731 637.803 733.408 655.114 730.912C662.232 729.886 668.462 732.337 674.224 736.561C682.342 742.511 690.468 748.496 698.982 753.845C705.799 758.129 712.22 763.416 720.335 765.225C724.353 766.121 728.177 765.364 730.576 761.459C732.99 757.53 730.491 754.637 728.221 751.885C726.578 749.893 724.743 747.977 722.701 746.41C709.044 735.935 695.679 725.019 681.489 715.315C668.215 706.237 654.051 699.34 636.83 704.654C614.851 711.436 592.67 717.567 570.533 723.83C566.005 725.111 563.591 727.858 561.868 732.125C552.129 756.249 546.228 781.474 539.916 806.603C534.668 827.496 526.981 847.385 512.411 863.775C496.504 881.67 479.827 898.608 460.897 913.619C435.299 933.916 412.226 957.197 384.561 975.193C365.022 987.903 345.062 999.885 325.427 1012.41C305.462 1025.14 286.39 1039.21 265.791 1051.02C249.221 1060.52 233.427 1071.29 218.638 1083.51C202.328 1096.99 190.207 1114.15 180.179 1132.07C166.954 1155.71 150.316 1177.84 142.545 1204.22C133.275 1235.7 137.457 1255.45 161.965 1270.52C178.539 1280.71 195.26 1290.7 211.456 1301.47C219.76 1306.99 228.015 1307.73 237.274 1305.64C256.936 1301.18 270.655 1288.47 281.238 1272.54C308.707 1231.18 332.393 1187.43 360.35 1146.35C371.477 1130 380.355 1111.94 392.707 1096.64C416.544 1067.11 441.51 1038.48 469.692 1012.77C491.673 992.722 515.358 975.354 543.026 964.531C562.936 956.742 576.982 943.872 586.948 925.394C598.333 904.286 608.203 882.604 614.899 858.52C608.496 860.783 602.533 863.019 596.482 864.987C591.984 866.449 587.585 867.252 589.841 858.626ZM1448.36 1065.59C1455.55 1078.31 1463.28 1090.72 1472.38 1102.15C1500.54 1137.56 1521.89 1176.25 1535.4 1219.78C1549.42 1264.91 1562.94 1310.54 1590.92 1349.89C1607.31 1372.95 1622.75 1396.12 1653.16 1403.88C1673.79 1409.14 1692.13 1405.61 1710.79 1397.81C1727.15 1390.97 1731.26 1376.43 1734.77 1361.32C1735.36 1358.8 1736.55 1356.36 1736.78 1353.82C1739.13 1327.97 1743.34 1301.5 1726.62 1278.62C1712.82 1259.74 1704.1 1238.6 1695.23 1217.34C1686.26 1195.82 1677.38 1174.51 1660.43 1157.17C1641.81 1138.12 1620.81 1121.46 1603.04 1101.83C1574.09 1069.86 1544.14 1038.82 1515.48 1006.61C1510.44 1000.94 1506.31 994.463 1501.33 987.774C1499.12 990.721 1497.48 992.681 1496.08 994.802C1485.41 1011.04 1471.72 1024.12 1455.63 1034.99C1450.23 1038.63 1440.6 1038.1 1439.8 1045.79C1439.13 1052.26 1444.66 1058.23 1448.36 1065.59ZM1327.93 812.811C1332.44 813.373 1337.03 813.553 1341.43 814.57C1355.31 817.777 1369.64 819.06 1383.05 824.196C1386.12 825.369 1389.35 827.339 1387.94 831.376C1386.52 835.452 1383.2 834.796 1379.81 833.645C1353.68 824.759 1326.78 821.528 1299.31 823.412C1286.04 824.323 1273.66 829.037 1260.54 832.901C1263.74 840.639 1269.72 842.605 1276.17 843.836C1298.77 848.143 1321.73 850.556 1343.94 856.903C1360.78 861.715 1368.83 873.654 1367.44 890.904C1366.6 901.277 1365.22 911.533 1363.63 921.805C1360.3 943.319 1373.67 969.579 1393.12 978.269C1406.47 984.232 1420.19 987.357 1433.2 976.101C1439.8 970.393 1447.61 966.101 1454.5 960.702C1467.82 950.279 1469.31 942.975 1461.41 928.039C1456.22 918.232 1450.49 908.307 1450.27 897.147C1449.89 877.068 1449.13 856.977 1451.01 836.84C1452.03 825.98 1456.05 815.111 1453.02 804.046C1451.25 797.572 1451.15 791.216 1452.91 784.842C1454.59 778.733 1452.89 774.255 1447.72 770.488C1443.45 767.377 1438.94 764.982 1434.01 763.272C1411.03 755.3 1387.94 747.562 1366.08 736.76C1354.75 731.162 1342.78 730.387 1330.91 732.379C1318.34 734.487 1306.28 732.308 1294.3 730.047C1286.27 728.529 1278.37 727.246 1270.24 727.535C1265.93 727.689 1260.13 725.971 1258.56 731.795C1256.85 738.117 1261.25 742.463 1266.42 744.859C1276.28 749.432 1286.72 751.854 1297.63 749.04C1320.25 743.199 1342.37 742.873 1364.21 752.816C1372.73 756.689 1382.03 758.816 1390.97 761.742C1394.62 762.934 1399.7 763.627 1397.84 768.996C1396.04 774.177 1391.35 771.949 1387.77 770.801C1374.18 766.437 1360.63 761.946 1347.1 757.394C1339.34 754.782 1331.69 753.782 1323.29 754.64C1298.64 757.158 1275.32 765.867 1250.91 769.352C1246.2 770.025 1242.36 773.243 1242.64 778.687C1242.94 784.613 1246.53 788.473 1252.39 789.085C1261.44 790.029 1270.67 790.538 1279.53 788.319C1302.42 782.587 1325.44 780.781 1348.94 783.346C1366.14 785.223 1382.59 790.319 1399.38 793.935C1402.93 794.7 1409.07 796.226 1407.17 801.815C1405.38 807.06 1400.2 804.89 1396.15 803.776C1393.96 803.173 1391.73 802.66 1389.6 801.902C1339.75 784.232 1291.07 792.767 1242.71 808.416C1240.37 809.176 1237.33 809.929 1237.28 813.211C1237.24 816.238 1239.8 817.572 1242.13 818.728C1250.34 822.809 1259.34 824.066 1267.68 820.955C1286.66 813.88 1306.23 812.648 1327.93 812.811ZM954.463 1180.51C952.121 1167.35 952.53 1154 952.073 1140.73C951.558 1125.83 946.914 1113.41 933.712 1105.23C930.829 1106.72 930.837 1109.34 930.548 1111.94C927.495 1139.36 925.551 1166.83 926.291 1194.44C926.62 1206.72 924.045 1218.77 925.246 1231.28C928.621 1266.42 934.18 1301.35 934.353 1336.83C934.465 1360.04 928.777 1382.48 927.811 1405.54C926.851 1428.48 926.331 1451.51 922.594 1474.32C920.618 1486.38 918.373 1498.64 919.391 1510.96C920.564 1525.17 922.363 1539.29 922.807 1553.58C923.506 1576.05 920.699 1598.22 918.432 1620.46C915.841 1645.9 913.067 1671.32 911.197 1696.81C909.133 1724.94 902.486 1752.43 901.945 1780.86C901.513 1803.55 902.887 1826.38 900.336 1848.95C897.86 1870.86 904.28 1892.18 903.074 1913.91C902.868 1917.63 904.493 1920.44 908.679 1920.21C921.502 1919.52 934.315 1918.63 948.725 1917.71C941.468 1897.7 942.866 1878.21 942.819 1858.83C942.798 1850.08 945.199 1841.35 943.507 1832.63C939.291 1810.91 942.174 1789.52 945.011 1767.89C948.587 1740.64 954.6 1713.61 954.547 1685.97C954.51 1667.08 956.952 1648.36 959.555 1629.86C963.993 1598.33 961.205 1566.97 959.347 1535.74C957.258 1500.6 958.685 1465.6 961.395 1430.82C963.581 1402.78 967.408 1374.83 968.061 1346.63C968.444 1330.09 966.764 1313.56 966.729 1297.08C966.648 1258.31 963.103 1220.05 954.463 1180.51ZM1020.98 640.745C979.91 622.651 938.584 633.483 913.342 669.567C896.574 693.537 892.681 720.186 899.302 748.476C900.186 752.251 901.55 755.372 906.529 756.386C919.219 758.971 920.958 761.986 918.986 775.46C917.629 784.726 919.805 792.322 926.696 799.242C954.052 826.714 1000.28 829.792 1033.1 805.88C1087.77 766.057 1081.9 677.081 1020.98 640.745ZM1193.08 944.779C1183.19 953.384 1173.31 961.99 1162.36 971.522C1175.02 975.616 1186.28 974.154 1197.45 973.314C1217.52 971.805 1237.7 970.079 1257.55 973.98C1288.36 980.036 1316.72 992.667 1343.61 1008.76C1376.15 1028.23 1409.19 1046.97 1434.34 1076.36C1436.97 1079.43 1440.39 1081.36 1445.15 1081.96C1440.03 1071.32 1435.4 1061.69 1430.75 1052.07C1429.35 1049.17 1428.48 1045.47 1425.23 1044.33C1409.32 1038.74 1404.08 1024.29 1397 1011.24C1388.07 994.796 1380.57 977.512 1365.27 965.213C1355.89 957.669 1352.31 946.572 1353.11 934.662C1353.72 925.61 1351.04 918.067 1345.36 911.397C1335.73 900.102 1331.43 886.441 1329.18 872.309C1327.96 864.67 1324.25 861.731 1317.47 860.607C1302.13 858.065 1286.63 856.149 1271.55 852.508C1262.98 850.438 1259 852.037 1255.13 860.094C1239.96 891.685 1219.28 919.45 1193.08 944.779ZM525.342 1021.01C531.512 1021.1 537.684 1021.13 543.852 1021.29C547.905 1021.39 551.938 1021.03 554.258 1017.31C563.227 1002.92 577.293 998.376 592.991 996.39C622.21 992.693 650.791 983.997 680.463 984.13C698.173 984.21 715.274 982.572 732.171 976.87C739.908 974.26 746.239 971.198 750.902 964.206C755.273 957.652 761.325 952.653 769.355 950.687C771.629 950.13 773.646 949.113 774.078 944.909C756.943 928.961 742.208 909.706 728.029 889.574C719.97 894.063 712.631 895.168 705.413 889.886C703.206 888.272 701.31 889.531 699.174 890.639C684.966 898.01 680.452 897.243 669.272 886.071C663.831 880.633 658.991 874.295 650.148 872.9C643.454 881.916 638.09 891.959 627.4 897.584C611.776 905.806 601.041 918.531 592.918 934.528C585.593 948.951 575.294 962.287 559.072 967.96C532.999 977.078 511.459 993.798 488.595 1008.33C485.717 1010.16 482.676 1012.29 481.993 1016.85C488.399 1017.29 494.076 1019.36 499.212 1022.91C501.73 1024.66 504.616 1025.54 507.432 1023.72C512.437 1020.47 517.99 1021.02 525.342 1021.01ZM793.154 800.297C785.972 790.268 778.846 780.2 771.575 770.236C769.408 767.265 767.513 763.098 760.442 767.072C784.009 805.669 814.372 838.949 842.89 875.365C835.994 875.903 834.169 872.36 831.848 869.979C820.741 858.587 809.881 846.954 798.757 835.58C795.836 832.593 792.898 828.243 787.686 831.548C786.188 838.368 794.933 840.75 793.916 847.914C780.469 839.846 772.663 825.682 758.571 819.077C755.669 824.972 758.77 827.372 761.16 829.828C772.706 841.688 784.36 853.443 795.91 865.3C798.107 867.556 801.247 869.378 801.587 874.674C787.381 863.964 775.7 852.836 764.386 841.264C762.338 839.17 759.642 835.605 756.235 838.958C753.498 841.653 756.008 844.422 757.78 846.678C765.596 856.63 773.577 866.454 781.338 876.448C783.319 879 786.902 880.843 786.524 885.246C781.308 885.078 779.107 880.639 775.276 879.17C768.536 876.585 767.65 880.085 772.46 891.387C767.131 894.329 762.882 898.769 765.285 905.138C767.665 911.448 769.534 919.364 779.697 917.707C783.081 917.155 785.33 920.445 787.577 922.795C789.366 924.666 792.308 928.022 793.696 926.832C800.062 921.375 806.016 926.754 810.571 927.225C815.124 925.117 810.531 920.244 815.168 919.533C826.532 917.791 821.147 912.434 817.752 907.57C814.216 902.505 808.65 898.776 807.508 891.885C819.421 899.389 830.53 907.689 841.764 915.815C844.204 917.58 847.147 920.899 850.138 917.217C852.494 914.316 849.545 911.917 847.835 909.597C843.74 904.042 837.853 899.858 834.465 893.087C853.153 887.687 858.93 912.138 876.275 910.014C876.547 899.209 864.568 895.616 862.633 886.058C871.27 887.291 874.905 899.252 886.607 894.302C870.999 871.323 851.366 852.733 835.755 830.881C857.671 845.748 878.4 862.022 900.411 871.959C907.519 869.601 902.869 864.39 906.403 862.841C917.31 858.062 910.152 853.381 906.124 849.543C897.201 841.042 887.509 833.343 878.672 824.76C872.844 819.099 865.876 814.247 863.501 805.066C877.218 816.053 890.934 827.039 903.439 837.054C911.481 833.151 901.873 827.373 908.066 824.289C913.416 821.625 910.857 818.303 908.972 814.645C906.296 809.453 901.122 805.596 899.783 799.237C903.897 798.812 907.317 803.092 911.158 797.724C907.513 791.131 904.904 781.652 896.629 779.904C891.119 778.74 887.336 776.872 883.489 773.542C876.317 767.335 869.062 761.226 861.842 755.077C861.032 755.771 860.222 756.466 859.412 757.16C860.025 768.771 872.804 773.778 876.507 784.114C870.582 785.214 868.07 775.333 861.298 780.712C863.015 788.628 871.858 792.524 873.689 800.583C869.381 801.926 867.62 798.959 865.602 797.259C853.688 787.224 841.081 778.021 829.914 767.071C826.574 763.794 823.058 758.8 816.503 762.285C816.71 763.858 816.45 765.411 817.1 766.293C826.183 778.621 830.161 793.914 841.943 804.935C855.405 817.528 867.073 832.042 879.453 845.782C880.806 847.284 883.135 848.875 880.048 852.183C868.873 844.74 857.191 837.892 846.941 828.879C834.751 818.161 822.564 807.442 810.285 796.827C807.716 794.605 804.84 790.82 801.146 793.947C797.66 796.9 800.141 800.501 802.126 803.509C803.194 805.127 804.522 806.578 805.768 808.076C818.221 823.048 830.698 838.001 843.116 853.003C844.342 854.484 846.837 855.702 844.739 859.292C825.1 841.936 809.032 822.138 793.154 800.297ZM1180.5 569.127C1180.51 568.803 1180.44 568.449 1180.55 568.161C1180.66 567.883 1180.94 567.461 1181.15 567.463C1185.43 567.499 1187.75 571.088 1190.98 573.023C1193.36 574.447 1195.74 575.51 1198.12 573.48C1200.49 571.467 1198.8 569.357 1197.79 567.36C1197.06 565.937 1196.32 564.523 1195.5 562.937C1197.64 561.21 1200.05 560.006 1201.38 558.063C1206.77 550.19 1199.71 535.582 1190.13 535.467C1185.93 535.417 1183.06 534.026 1181.01 531.176C1176.51 524.926 1171.97 524.793 1167.64 530.192C1162.9 529.348 1160.76 523.521 1156.01 525.972C1153.04 528.993 1157.04 531.727 1155.68 534.569C1153.11 536.295 1148.77 532.755 1147.15 536.999C1145.59 541.068 1148.87 543.649 1150.95 546.396C1154.89 551.591 1159.06 556.616 1163.42 562.083C1160.14 563.128 1158.92 561.974 1157.65 561.027C1147.52 553.429 1137.41 545.784 1127.24 538.232C1124.48 536.178 1121.32 532.522 1117.93 535.827C1113.97 539.668 1119.01 541.897 1120.86 544.532C1124.68 549.984 1130.74 553.665 1133.84 560.183C1115.09 566.01 1109.06 541.144 1091.53 543.351C1092.1 553.811 1103.39 557.718 1105.38 567.623C1096.65 565.617 1092.99 554.433 1080.83 557.916C1096.42 582.106 1117.3 600.617 1132.92 623.405C1129.44 622.239 1126.74 620.244 1124.14 618.113C1109.04 605.708 1091.89 596.257 1076.11 584.891C1064.21 576.317 1061.96 588.224 1057.5 592.699C1053.09 597.116 1059.12 601.261 1062.52 604.443C1073.9 615.087 1085.5 625.504 1096.87 636.151C1099.22 638.342 1102.41 640.357 1102.2 645.469C1087.44 637.05 1077.88 622.974 1063.57 616.814C1054.02 630.781 1059.01 642.217 1068.45 652.624C1063.92 654.847 1056.49 648.931 1057.9 656.667C1059.15 663.554 1063.7 671.876 1071.06 673.184C1077.55 674.338 1081.38 677.558 1085.85 681.159C1092.65 686.637 1098.52 693.5 1108.72 698.213C1107.44 684.974 1095.64 680.282 1092.88 670.246C1097.88 669.519 1101.03 677.663 1106.36 671.983C1104.83 664.398 1096.15 660.717 1094.81 651.322C1115.4 663.632 1130.02 681.359 1150.01 692.471C1144.19 674.774 1136.71 658.726 1123.3 645.405C1110.04 632.234 1098.27 617.563 1085.84 603.55C1086.54 602.806 1087.24 602.062 1087.94 601.318C1093.58 604.901 1099.34 608.303 1104.84 612.1C1123.58 625.056 1139.73 641.15 1157.2 655.648C1159.99 657.96 1163.48 662.16 1167.22 658.527C1170.89 654.965 1167.17 651.336 1164.75 648.404C1153.79 635.134 1142.64 622.014 1131.73 608.704C1128.23 604.437 1123.57 600.88 1121.03 594.456C1127.24 595.838 1129.77 599.726 1132.95 602.822C1157.32 626.555 1175.91 654.856 1195.82 682.124C1197.9 684.975 1199.12 689.636 1204.85 688.169C1207.31 681.035 1201.86 676.752 1198.56 672.045C1177.51 641.941 1153.92 613.798 1130.91 585.205C1129.02 582.856 1125.63 581.177 1126.5 575.932C1133.78 579.409 1138.01 585.602 1143.05 590.606C1152.27 599.752 1161.04 609.35 1170.15 618.604C1172.49 620.98 1175.18 625.064 1179.03 621.645C1182.54 618.533 1178.75 615.865 1177.02 613.371C1175.12 610.642 1172.07 608.508 1172.13 604.435C1176.61 604.401 1178.11 607.709 1180.39 609.783C1188.06 616.775 1195.57 623.929 1203.26 630.899C1205.19 632.646 1207.72 634.391 1210.11 631.857C1212.68 629.126 1210.07 627.01 1208.37 625.254C1197.28 613.836 1186.09 602.525 1174.94 591.166C1170.76 586.9 1166.6 582.601 1161.35 577.204C1167.74 577.285 1170.16 580.531 1172.86 583.042C1182.84 592.329 1192.66 601.794 1202.63 611.096C1205.31 613.594 1207.85 617.451 1213.24 613.152C1205.95 596.222 1191.86 584.322 1180.5 569.127ZM802.534 968.537C793.061 961.139 785.122 951 770.405 960.57C760.805 966.814 756.724 971.223 759.512 982.317C760.539 986.401 762.02 990.41 762.633 994.552C766.055 1017.67 769.274 1040.82 772.562 1063.96C772.55 1053.59 778.087 1046.96 785.88 1041.29C800.257 1030.84 816.847 1024.96 832.924 1018.04C850.564 1010.44 858.404 1013.26 867.204 1030.76C873.05 1042.39 879.928 1053.37 886.495 1064.57C889.656 1069.95 894.16 1073.42 899.918 1075.15C908.838 1077.82 917.873 1080.11 928.089 1082.9C924.118 1074.11 919.486 1067.25 914.513 1060.49C903.185 1045.1 887.199 1033.34 879.125 1015.48C876.935 1010.64 873.794 1007.83 868.957 1005.88C845.667 996.466 823.856 984.336 802.534 968.537ZM937.021 1075.87C943.311 1083.51 945.144 1094.21 954.737 1101.64C966.784 1086.94 982.571 1077.77 998.964 1069.35C1002.22 1067.68 1004.82 1064.15 1006.93 1060.96C1012.09 1053.12 1016.89 1045.03 1021.6 1036.91C1023 1034.5 1025.07 1031.63 1023.21 1028.79C1021.15 1025.64 1017.44 1026.07 1014.28 1026.46C976.432 1031.13 939.333 1026.55 902.578 1017.58C899.774 1016.9 896.964 1015.57 892.946 1020.27C907.311 1038.03 924.791 1054.13 937.021 1075.87ZM1091.19 1052.16C1106.79 1062.75 1121.26 1075.27 1139.87 1081.84C1145.12 1068.81 1145.43 1056.55 1143.36 1044.37C1140.87 1029.7 1137.1 1015.26 1134.39 1000.62C1132.76 991.812 1128.92 991.206 1121.65 995.039C1099.48 1006.74 1075.98 1015.02 1051.5 1020.44C1045.18 1021.84 1040.13 1024.61 1036.6 1030.26C1025.58 1047.87 1017.85 1067.7 1000.96 1081.83C1007.46 1084.89 1011.15 1081.81 1014.52 1078.18C1021.57 1070.58 1028.23 1062.6 1035.55 1055.27C1059.6 1031.22 1062.97 1031.08 1091.19 1052.16ZM1091.71 1909.89C1101.71 1909.25 1109.71 1905.9 1116.25 1897.28C1121.82 1889.96 1129.51 1883.95 1137.11 1878.55C1149.18 1869.98 1149.63 1869.78 1141.96 1855.29C1130.21 1860.05 1115.58 1856.98 1106.15 1869.01C1097.95 1879.45 1089.46 1889.66 1081.33 1900.15C1078.78 1903.46 1074.74 1905.97 1073.76 1911.3C1079.76 1910.83 1084.9 1910.43 1091.71 1909.89ZM750.852 1861.38C756.41 1857.08 756.497 1850.57 757.105 1844.57C759.108 1824.79 758.951 1824.77 739.032 1824.9C711.419 1825.09 707.618 1830.36 715.559 1857.46C715.65 1857.77 715.714 1858.09 715.811 1858.4C721.04 1875.01 723.948 1876.72 740.943 1873.11C738.123 1865 745.584 1864.85 750.852 1861.38ZM1191.62 1848.13C1193.01 1842.94 1195.97 1838.04 1194.57 1831.45C1189.49 1831.21 1184.39 1830.79 1179.3 1830.77C1149.21 1830.68 1147.49 1833.51 1156.12 1863.44C1158.85 1872.9 1163.43 1876.55 1173.29 1875.83C1179.85 1875.35 1183.33 1873.33 1185 1866.95C1186.55 1861.03 1189.03 1855.35 1191.62 1848.13ZM1509.53 932.38C1507.64 930.626 1505.9 928.665 1503.83 927.153C1495.37 920.973 1486.43 921.541 1480.28 928.488C1474.96 934.499 1474.98 944.733 1480.32 950.818C1487.61 959.128 1497.48 960.964 1505.35 955.475C1514.86 948.851 1516.01 943.84 1509.53 932.38ZM1203.84 1688.47C1204.53 1684.24 1203.33 1681.53 1198.5 1681.29C1187.15 1680.75 1176.1 1678.33 1165.06 1675.84C1160.66 1674.84 1158.36 1676.81 1157.33 1680.95C1156.26 1685.25 1158.69 1686.83 1162.26 1687.66C1172.65 1690.08 1183.05 1692.42 1193.41 1694.98C1198.38 1696.21 1201.58 1694.51 1203.84 1688.47ZM694.742 1887.05C684.794 1892.63 676.706 1900.38 667.06 1909.74C683.518 1907.07 697.054 1900.58 712.482 1903.26C711.814 1895.75 711.258 1889.49 710.655 1882.69C705.451 1884.06 700.777 1885.3 694.742 1887.05ZM753.044 1690.04C752.261 1687.33 750.752 1685.22 747.687 1685.43C735.315 1686.26 722.953 1687.25 710.422 1688.19C709.932 1696.83 713.343 1700.35 721.209 1699.67C729.528 1698.95 737.86 1698.36 746.196 1697.88C750.413 1697.64 752.744 1695.66 753.044 1690.04ZM1149.75 1882.16C1138.81 1885.85 1132.32 1894.58 1124.92 1903.14C1149.71 1906.94 1149.71 1906.94 1157.53 1902.95C1152.82 1897 1151.53 1889.86 1149.75 1882.16ZM1341.02 866.552C1336.92 875.865 1344.49 896.605 1354.58 903.739C1361.25 881.828 1358.31 872.916 1341.02 866.552ZM640.36 868.741C642.354 863.827 638.46 863.267 635.457 862.548C631.163 861.521 627.191 861.911 624.373 866.183C618.943 874.417 617.33 883.934 614.042 893.668C629.324 885.143 631.251 883.334 640.36 868.741ZM741.32 1814.59C746.458 1813.77 752.191 1816.45 756.87 1812.39C756.122 1806.86 752.544 1806.24 748.342 1806.17C738.661 1806.02 728.933 1806.92 719.325 1804.91C715.007 1804 713.2 1806.86 712.928 1810.3C712.594 1814.54 716.184 1814.44 719.076 1814.49C725.867 1814.61 732.662 1814.57 741.32 1814.59ZM728.788 1896.68C732.95 1896.78 737.111 1896.94 741.274 1896.95C744.873 1896.96 747.856 1895.96 747.18 1891.48C746.699 1888.3 746.11 1885.07 741.457 1885.4C736.992 1885.72 732.491 1885.5 728.008 1885.6C724.932 1885.66 722.194 1886.31 721.831 1890.14C721.46 1894.05 723.16 1896.23 728.788 1896.68ZM1134.92 1830.62C1131.04 1836.44 1127.16 1842.25 1123.13 1848.28C1143.25 1846.21 1145.41 1843.23 1139.58 1824.56C1138.05 1826.55 1136.88 1828.08 1134.92 1830.62ZM1179.65 1893.32C1181.78 1891.94 1183.37 1889.81 1181.26 1887.86C1176.64 1883.57 1170.96 1886.09 1165.72 1886.48C1163.65 1886.63 1162.22 1888.6 1162.99 1890.7C1165.17 1896.64 1170.26 1894.44 1174.5 1894.42C1175.77 1894.42 1177.03 1894.07 1179.65 1893.32ZM1183.65 1820.71C1187.62 1820.52 1191.77 1821.34 1198.01 1818.26C1180.97 1816.72 1166.34 1819.61 1151.97 1816.5C1161.39 1821.97 1171.79 1820.13 1183.65 1820.71Z"/>
<path d="M571.36 1187.32C573.007 1192.79 576.222 1197.3 573.665 1204.38C562.559 1195.65 563.968 1181.23 555.282 1172.54C546.674 1163.94 537.779 1156.1 526.413 1151.61C514.995 1147.1 503.01 1144.04 490.797 1136.46C494.636 1147.24 500.413 1154.7 506.153 1161.66C548.29 1212.71 568.438 1273.07 581.418 1336.58C582.649 1342.61 584.075 1348.62 584.859 1354.71C585.326 1358.34 586.42 1363.41 580.849 1364.04C575.784 1364.61 575.894 1359.6 575.353 1356.36C571.394 1332.69 566.785 1309.07 559.361 1286.3C544.204 1239.81 523.787 1195.98 491.965 1157.99C481.611 1145.63 473.306 1131.45 467.143 1116.3C466.314 1114.26 465.228 1112.11 466.543 1109.62C469.799 1107.39 471.921 1109.72 473.804 1111.9C486.222 1126.25 503.121 1133.36 520.341 1138.97C545.059 1147.03 563.633 1160.64 571.36 1187.32Z"/>
<path d="M416.761 1298.27C411.351 1302.88 408.6 1309.91 400.95 1310.93C399.565 1306.42 402.661 1304.45 404.626 1302.12C415.189 1289.62 421.797 1276.18 420.838 1258.85C419.91 1242.1 425.441 1226.87 439.332 1215.85C443.057 1212.9 446.442 1209.11 451.694 1210.98C453.414 1214.29 451.567 1215.73 449.743 1217.16C435.513 1228.34 429.891 1243.61 431.043 1260.95C432.025 1275.73 427.765 1287.71 416.761 1298.27Z"/>
<path d="M1384.4 1367.79C1377.57 1370.16 1374.55 1367.97 1377.06 1361.65C1400.48 1302.62 1427.33 1245.49 1470.36 1197.63C1477.83 1189.31 1485.59 1181.09 1497.62 1178C1490.17 1197.66 1481.85 1216.63 1473.77 1235.97C1468.98 1227.12 1471.63 1218.79 1473.13 1209.54C1466.61 1217.88 1459.73 1225.95 1453.65 1234.6C1428.15 1270.86 1407.64 1309.77 1392.49 1351.48C1390.51 1356.93 1387.49 1362.01 1384.4 1367.79Z"/>
<path d="M1358.22 1312.24C1356.67 1302.61 1354.72 1295.97 1343.36 1293.27C1329.31 1289.93 1328.28 1283.66 1337.46 1272.44C1365.89 1237.68 1397.98 1206.41 1430.33 1175.39C1433.63 1172.24 1434.06 1172.38 1441.34 1171.3C1442.45 1177.22 1437.74 1179.85 1434.7 1183.1C1406.1 1213.66 1375.12 1241.98 1348.61 1274.51C1347 1276.48 1345.55 1278.59 1343.93 1280.77C1346.92 1286.02 1350.57 1286.39 1355.43 1284.07C1364.52 1279.74 1373.69 1275.66 1381.69 1269.33C1385.11 1266.63 1388.77 1263.82 1393.47 1263.91C1395.65 1268.11 1392.71 1269.69 1390.67 1271.61C1389.97 1272.27 1389.09 1272.75 1388.35 1273.38C1380.53 1280.11 1366.7 1283.39 1364.92 1292.48C1362.85 1303.01 1368.65 1315.08 1370.94 1326.5C1371.74 1330.48 1374.35 1334.24 1372.47 1340.24C1363.08 1332.73 1361.83 1322.25 1358.22 1312.24Z"/>
<path d="M948.062 1168.32C944.826 1174.04 940.397 1175.1 935.23 1173.63C930.156 1172.19 928.332 1167.91 927.727 1163.31C926.82 1156.4 927.558 1149.51 932.953 1144.49C939.442 1138.45 948.657 1141.85 950.338 1150.58C951.468 1156.44 950.588 1162.11 948.062 1168.32Z"/>
<path d="M947.407 1436.69C953.847 1444.06 952.471 1451.8 949.881 1459.16C947.427 1466.14 939.682 1468.17 934.027 1464.09C928.438 1460.06 927.686 1450.95 931.939 1441.83C935.115 1435.02 939.793 1432.76 947.407 1436.69Z"/>
<path d="M946.961 1587.01C951.462 1594.51 952.124 1601.57 948.314 1608.75C945.727 1613.62 941.473 1615.35 936.154 1614.55C930.822 1613.74 928.745 1609.95 927.924 1605.14C925.552 1591.26 934.328 1582.38 946.961 1587.01Z"/>
<path d="M935.666 1755.61C935.921 1757.69 936.152 1759 936.022 1760.28C935.285 1767.51 933.018 1773.85 924.844 1775.37C919.576 1776.35 914.648 1774.49 912.837 1769.33C910.162 1761.71 912.074 1754.36 917.873 1748.74C922.548 1744.22 929.608 1746.91 935.666 1755.61Z"/>
<path d="M947.752 1313.92C938.456 1307.53 936.544 1300.1 941.242 1291.38C944.713 1284.95 952.822 1284.21 957.162 1289.93C963.556 1298.36 959.013 1311.04 947.752 1313.92Z"/>
<path d="M972.328 721.002C981.582 713.16 989.61 713.414 995.417 721.113C1000.56 727.937 998.805 736.43 991.131 741.224C985.458 744.767 979.833 744.084 974.883 739.943C968.769 734.829 968.053 728.508 972.328 721.002ZM982.231 733.758C986.693 734.243 989.158 732.269 988.369 727.79C987.959 725.463 985.525 723.837 983.16 724.83C979.163 726.508 977.929 729.415 982.231 733.758Z"/>
</svg>
