<svg width="832" height="779" viewBox="0 0 832 779" fill="#C46D5E" xmlns="http://www.w3.org/2000/svg">
<g clip-path="url(#clip0_302_13)">
<path d="M249.45 779C245.208 775.783 244.891 771.56 244.977 766.921C245.117 759.337 243.248 751.917 240.425 745.028C235.548 733.129 236.499 721.366 238.996 709.261C243.444 687.7 245.322 665.813 246.761 643.873C247.783 628.298 249.276 612.72 250.214 597.181C251.367 578.063 253.113 558.58 247.314 539.63C243.003 525.541 235.127 513.828 222.649 506.231C209.922 498.483 196.704 491.241 181.584 488.88C177.818 488.292 174.018 487.47 170.237 487.491C148.703 487.612 127.544 484.801 106.463 480.561C87.6553 476.779 69.3762 471.397 51.2888 465.106C45.6055 463.129 42.3554 458.353 37.6042 455.37C27.6044 449.092 17.3428 443.193 8.08943 435.776C3.05827 431.743 1.12769 426.534 0.543298 420.162C-0.642813 407.229 3.37164 395.805 9.79165 385.07C16.0935 374.532 21.475 363.471 28.5851 353.382C36.7063 341.858 47.0065 332.781 58.825 325.45C73.6812 316.234 88.2151 306.532 102.949 297.148C111.201 291.892 119.49 286.632 127.859 281.537C143.055 272.285 155.096 259.187 169.039 248.442C179.816 240.136 189.147 230.614 197.013 219.564C202.967 211.201 204.967 201.367 207.608 191.758C210.733 180.391 213 168.772 217.731 157.875C219.078 154.772 220.982 152.577 224.333 151.629C234.737 148.684 245.173 145.834 255.484 142.59C263.75 139.989 271.842 140.044 280.015 142.684C280.933 142.98 281.91 143.439 283.055 142.683C284.201 136.312 285.118 129.751 286.581 123.314C297.613 74.789 325.701 39.472 369.84 16.9124C392.049 5.56094 415.907 0.555907 440.768 0.967772C514.673 2.19218 577.388 54.2376 591.415 127.24C592.803 134.469 593.339 141.754 594.079 149.023C594.417 152.343 595.804 153.517 598.776 154.256C605.174 155.848 611.653 156.171 618.125 155.603C626.877 154.835 634.921 156.93 642.709 160.595C651.31 164.643 660.217 167.884 669.289 170.696C672.642 171.736 675.79 173.141 678.676 175.242C683.481 178.741 686.816 182.683 684.418 189.111C684.193 189.715 684.167 190.439 684.22 191.093C685.66 209.019 681.714 226.835 683.167 244.775C683.546 249.455 685.41 253.305 687.823 257.415C688.898 256.865 689.621 256.534 690.306 256.138C700.456 250.261 711.884 254.419 715.698 265.532C717.363 270.383 715.322 274.364 711.745 277.523C706.467 282.184 706.363 283.073 709.599 289.226C713.854 297.312 719.971 303.968 726.298 310.268C735.982 319.909 745.042 330.09 754.077 340.3C763.371 350.804 774.424 359.444 784.194 369.454C793.965 379.465 802.349 390.196 807.055 403.501C811.455 415.937 816.765 427.875 824.524 438.686C832.482 449.774 831.373 462.624 830.747 475.278C830.523 479.801 828.889 484.044 827.883 488.411C824.377 503.634 813.577 508.369 797.959 511.256C788.767 512.955 780.017 509.964 771.688 506.685C763.397 503.421 754.794 502.906 746.246 502.514C730.781 501.803 715.835 499.532 702.033 492.096C700.285 491.155 698.39 490.24 697.042 488.849C692.843 484.516 688.289 484.566 683.467 487.363C674.661 492.47 664.906 495.648 656.104 500.676C646.466 506.182 635.918 509.039 625.482 512.221C621.705 513.372 619.867 515.339 619.437 519.046C617.081 539.353 614.86 559.677 612.292 579.958C610.495 594.142 608.263 608.283 606.019 622.395C603.048 641.074 603.274 659.829 602.558 678.594C601.958 694.312 603.544 709.803 605.06 725.383C606.216 737.266 600.729 748.114 597.602 759.279C595.613 766.383 592.264 772.841 587.166 778.704C584.958 779 582.917 779 580.646 778.759C581.974 776.986 581.969 775.585 579.87 774.668C578.517 774.076 577.057 773.627 575.6 773.396C567.247 772.074 558.991 770.63 551.758 765.678C550.214 764.62 547.911 763.5 545.337 765.497C546.164 769.816 545.88 774.411 546 779C544.611 779 543.222 779 541.322 778.541C540.763 774.293 540.816 770.498 540.629 766.715C540.521 764.515 540.827 761.774 537.3 761.795C534.029 761.814 533.245 763.699 533.308 766.658C533.395 770.768 533.12 774.886 533 779C531.611 779 530.222 779 528.555 778.618C528.748 774.705 529.444 771.16 527.902 767.729C523.563 767.276 521.762 769.02 522.289 773.108C522.543 775.07 522.764 777.036 523 779C521.286 779 519.571 779 517.573 778.641C518.495 768.761 516.908 765.946 510.575 767.055C512.169 770.901 511.942 775.061 513 779C511.286 779 509.571 779 507.536 778.669C507.114 774.606 507.762 770.174 503.365 768.618C498.227 766.8 491.245 771.074 488.68 777.148C486.019 777.148 483.18 777.148 480.341 777.148C485.182 778.668 490.288 776.816 495 779C484.979 779 474.958 779 464.76 778.82C465.731 777.798 467.667 778.325 468.397 776.242C465.926 773.992 463.003 772.508 459.587 772.836C442.707 774.454 425.77 774.064 408.855 774.436C407.012 774.477 405.193 774.576 404.012 776.247C403.943 777.762 405.331 778.115 406 779C398.312 779 390.625 779 382.101 778.818C373.5 778.163 365.728 777.133 358 779C351.646 779 345.291 779 338.435 778.59C338.444 774.591 336.695 772.92 333.263 772.676C328.809 772.36 324.356 772.045 319.918 771.73C318.317 774.149 318.035 776.495 319 779C317.286 779 315.571 779 313.407 778.591C313.507 773.329 314.141 768.49 316.276 763.897C307.414 762.641 307.347 762.71 307.261 770.538C307.231 773.359 307.09 776.179 307 779C305.611 779 304.222 779 302.368 778.544C301.899 777.092 301.888 776.096 301.893 775.101C301.939 767.013 299.626 765.074 291.445 766.362C290.792 766.464 290.15 766.639 289.506 766.789C281.605 768.636 273.661 770.321 265.823 772.403C262.027 773.411 257.725 773.455 254.633 776.326C255.38 778.324 257.171 777.959 258 779C255.3 779 252.6 779 249.45 779ZM462.831 336.323C458.317 343.323 452.088 346.901 443.57 346.414C441.301 346.284 438.928 346.896 436.69 347.496C431.573 348.867 425.659 354.231 425.925 357.431C426.902 369.18 427.633 380.973 429.263 392.637C430.778 403.486 433.149 414.181 434.006 425.172C434.888 436.482 434.705 447.817 435.524 459.098C436.884 477.82 435.001 496.351 432.834 514.851C431.109 529.583 430.379 544.324 430.752 559.117C431.024 569.92 431.693 580.716 432.298 591.509C433.254 608.555 430.702 625.371 429.14 642.256C427.947 655.15 427.546 668.08 425.492 680.945C423.615 692.697 420.783 704.532 422.263 716.609C423.77 728.907 422.812 741.234 423.124 753.543C423.166 755.208 423.111 756.893 423.354 758.531C424.859 768.668 426.595 769.999 436.793 769.03C436.959 769.015 437.126 769.008 437.292 769.006C439.567 768.981 440.63 767.804 440.583 765.56C440.482 760.638 442.153 756.068 443.39 751.41C448.455 732.336 449.244 731.577 468.248 728.125C470.262 727.759 472.367 727.182 475.878 729.346C470.956 730.94 467.329 732.215 463.641 733.287C456.905 735.245 451.44 738.322 449.914 746.038C448.788 751.735 447.024 757.304 445.695 762.966C445.263 764.807 444.565 766.898 447.381 769.006C452.766 756.727 461.675 747.29 470.778 738.036C480.108 728.55 491.366 722.6 504.653 720.235C483.203 730.781 466.627 746.269 453.484 767.73C459.962 767.207 464.859 766.586 469.767 766.479C475.035 766.364 478.497 763.958 481.861 759.958C492.26 747.594 501.489 734.28 512.484 722.411C517.128 717.398 521.093 712.184 517.978 704.745C517.798 704.316 517.929 703.755 517.924 703.255C517.771 689.411 518.632 675.593 521.031 661.995C522.515 653.582 520.169 644.035 527.37 637.02C527.659 636.738 527.606 636.068 527.645 635.573C528.368 626.467 529.127 617.363 529.78 608.252C530.279 601.288 530.581 594.31 531.101 587.348C531.246 585.406 532.504 583.182 530.587 581.776C528.737 580.419 526.723 581.895 524.977 582.732C523.342 583.516 521.901 584.701 520.363 585.69C518.823 586.68 518.032 589.107 515.117 588.209C514.921 586.248 515.943 584.816 517.124 583.431C520.119 579.918 523.748 577.355 528.236 576.141C530.095 575.638 531.673 575.126 531.754 572.691C532.243 557.877 535.122 543.321 536.533 528.61C536.961 524.143 537.109 519.514 535.976 513.729C519.136 531.743 500.678 546.297 484.636 563.731C482.72 561.281 483.622 560.055 484.577 558.882C486.469 556.556 488.375 554.242 490.316 551.957C502.869 537.18 518.317 525.332 531.548 511.241C533.685 508.965 536.445 507.082 536.706 503.583C538.046 485.672 539.999 467.778 540.531 449.843C541.47 418.168 538.796 386.668 533.547 355.413C532.24 347.629 529.801 340.136 526.495 331.881C525.902 334.221 525.564 335.498 525.258 336.783C524.91 338.241 524.67 339.729 524.247 341.163C522.607 346.72 520.732 347.475 515.501 344.739C514.764 344.354 514.087 343.854 513.348 343.475C502.768 338.056 493.652 330.435 483.881 323.805C480.591 321.572 478.036 321.597 474.997 324.186C470.792 327.768 467.005 331.726 462.831 336.323ZM241.729 356.436C242.896 337.097 249.762 318.844 252.889 299.204C244.779 300.375 236.875 300.625 229.7 303.704C220.832 307.508 219.417 316.176 218.626 324.94C213.362 322.479 218.028 315.193 212.032 314.356C207.8 313.766 203.443 312.171 199.011 314.298C207.32 325.549 212.656 342.535 212.564 347.221C209.922 346.975 209.807 344.556 209.035 342.911C205.778 335.968 202.613 328.955 198.272 322.625C193.331 315.42 186.085 312.359 177.483 312.193C175.537 312.156 173.987 312.84 172.517 314.112C163.278 322.109 155.193 331.159 147.836 340.886C147.133 341.815 146.316 342.694 146.659 344.016C148.056 349.407 149.451 354.799 150.894 360.371C159.05 354.897 161.795 355.094 167.895 362.099C174.162 369.296 178.648 377.719 183.382 385.944C183.977 386.977 184.811 388.327 183.226 389.469C180.788 389.203 180.205 387.004 179.204 385.413C174.401 377.778 169.105 370.523 162.986 363.89C161.52 362.3 159.967 360.576 157.419 362.036C151.752 365.282 151.013 378.722 156.16 382.735C163.544 388.492 170.445 394.797 175.44 402.817C187.994 422.975 197.448 444.63 205.782 466.793C206.61 468.993 209.17 472.478 205.507 473.672C201.924 474.84 202.009 470.491 201.137 468.276C192.521 446.41 183.545 424.719 170.758 404.862C166.639 398.466 161.243 393.277 154.71 388.03C154.487 394.162 156.895 399.03 155.127 404.171C145.569 386.763 148.989 366.262 142.116 347.768C140.965 348.87 140.088 349.44 139.575 350.242C135.275 356.966 131.01 363.714 126.832 370.515C126.353 371.295 126.472 372.445 126.325 373.425C124.819 383.454 123.451 393.507 121.777 403.509C119.198 418.921 109.159 430.434 100.792 442.79C99.8318 444.209 98.4878 445.751 95.1268 444.509C108.257 425.687 120.129 406.468 118.944 382.099C117.673 383.965 116.504 385.542 115.478 387.207C106.4 401.942 97.1117 416.553 88.358 431.478C80.4141 445.023 71.3101 456.909 53.6097 460.493C66.4183 465.413 78.4401 468.581 90.4377 471.876C102.232 475.114 113.938 479.383 124.957 469.836C126.063 468.878 127.526 469.136 128.434 470.49C129.229 471.675 128.757 472.831 127.855 473.635C126.1 475.199 124.206 476.607 121.854 478.493C138.502 480.969 154.31 482.72 170.323 482.873C176.043 482.928 181.912 483.378 187.614 484.784C199.033 487.598 209.354 493.075 219.774 498.177C224.918 500.695 229.792 504.05 234.006 508.202C248.926 522.902 255.804 541.065 256.082 561.598C256.279 576.192 256.648 590.767 254.653 605.438C252.396 622.027 252.627 638.939 251.266 655.668C249.702 674.892 247.867 694.104 243.666 712.999C241.553 722.501 240.861 731.904 244.76 741.334C247.357 747.613 248.914 754.302 250.029 761.067C250.559 764.278 249.546 767.662 251.065 771.019C257.36 769.443 263.467 767.935 269.56 766.373C270.746 766.069 271.47 765.134 272.1 764.103C277.396 755.433 284.164 748.636 294.537 746.341C295.769 746.069 297.269 745.56 297.275 743.865C297.281 742.147 296.102 741.119 294.63 740.577C292.6 739.83 290.502 739.429 288.299 739.306C282.535 738.982 277.078 740.517 271.556 741.718C270.032 742.049 268.45 743.128 266.63 741C274.664 732.995 284.998 735.038 294.847 734.549C294.917 726.565 293.136 718.933 294.957 711.42C296.323 705.786 295.974 700.095 295.443 694.51C294.461 684.189 294.058 673.935 295.624 663.654C295.958 661.457 295.456 659.437 294.545 657.369C292.66 653.089 290.59 648.655 295.697 644.921C296.134 644.601 296.405 643.731 296.372 643.138C296 636.501 296.092 629.781 295.03 623.25C291.125 599.244 289.39 575.072 288.728 550.801C288.633 547.334 289.394 543.841 289.273 540.378C288.866 528.73 288.454 517.075 287.632 505.452C286.905 495.166 286.506 484.815 285.301 474.614C283.299 457.682 282.846 440.621 283.401 423.786C284.059 403.816 284.66 383.855 284.607 363.879C284.582 354.333 285.628 344.958 287.393 335.62C289.143 326.36 290.609 317.081 289.379 307.536C273.229 322.628 269.685 341.741 270.678 362.43C271.274 374.854 274.51 386.71 277.884 398.569C278.41 400.416 279.826 402.516 277.993 404.664C276.128 404.062 275.628 402.607 275.191 401.237C272.314 392.215 268.275 383.5 267.018 374.041C264.089 351.979 264.163 330.433 279.031 311.73C281.622 308.471 284.006 305.049 287.023 302.159C288.869 300.391 289.04 298.424 287.971 296.257C286.946 294.177 284.972 294.187 283.191 294.581C279.07 295.491 274.898 295.173 270.752 295.438C260.396 296.101 258.186 298.159 256.236 308.298C255.169 313.847 254.192 319.455 252.544 324.843C248.714 337.365 246.735 350.241 246.386 363.189C245.897 381.337 243.982 399.369 243.113 417.476C243.059 418.599 243.232 419.905 240.19 420.56C240.955 399.275 239.765 378.307 241.729 356.436ZM729.198 496.411C738.863 496.304 748.463 498.399 758.62 497.7C757.873 496.672 757.488 496.14 757.1 495.61C748.456 483.776 739.316 472.216 733.53 458.611C727.012 443.289 721.441 427.598 716.476 411.698C711.283 395.069 704.716 379.115 693.834 365.252C692.479 363.526 691.308 361.715 688.838 361.508C684.195 361.121 679.547 360.775 674.917 360.263C670.56 359.782 667.199 361.477 664.185 364.451C659.748 368.827 656.675 374.203 653.041 379.169C651.918 380.704 651.185 382.838 648.398 382.619C648.286 382.019 647.909 381.309 648.099 380.82C651.839 371.194 656.892 362.509 665.97 356.881C668.909 355.058 672.085 354.644 675.574 355.264C678.958 355.865 682.446 355.879 686.83 356.226C683.963 352.711 683.031 348.187 679.045 347.299C671.242 345.562 666.097 340.591 660.767 335.175C646.571 320.751 628.707 311.491 611.381 301.597C605.858 298.443 600.021 295.448 593.167 294.509C592.877 298.956 595.237 302.392 596.231 306.168C601.407 325.819 604.77 345.808 607.367 365.941C609.05 378.993 610.546 392.056 610.004 405.252C609.924 407.194 610.089 409.861 607.406 409.87C604.715 409.879 604.74 407.225 604.824 405.278C605.579 387.868 603.203 370.681 600.54 353.596C597.496 334.067 594.753 314.401 587.362 295.823C586.311 293.18 585.045 291.071 582.099 290.378C572.438 288.109 562.731 287.693 552.876 289.06C549.149 289.577 548.932 291.115 550.088 294.082C553.595 303.085 555.703 312.489 558.192 321.805C564.369 344.918 567.524 368.514 568.85 392.244C570.738 426.025 568.065 459.819 567.174 493.605C566.866 505.282 564.265 516.717 563.45 528.308C562.727 538.594 562.035 548.802 560.534 559.053C558.153 575.302 556.754 591.729 556.384 608.193C556.269 613.312 556.366 618.436 556.366 623.567C567.521 623.168 568.962 622.016 571.607 612.03C572.288 609.461 573.241 606.964 573.942 604.399C576.643 594.52 580.843 585.058 581.112 574.513C581.259 568.744 581.968 562.873 583.771 557.302C585.558 551.785 588.214 546.81 593.519 543.622C594.952 545.844 594.181 547.165 593.338 548.42C589.227 554.544 587.352 561.392 586.938 568.658C586.311 579.687 584.372 590.382 580.499 600.806C577.566 608.698 575.484 616.906 573.049 624.891C576.008 628.032 580.986 628.782 582.299 633.513C579.712 635.057 577.878 633.403 576.009 632.596C573.416 631.478 571.046 629.788 568.399 628.86C560.86 626.217 556.079 629.287 555.446 637.074C555.246 639.536 555.273 642.002 555.886 644.505C556.718 647.904 557.474 651.89 555.464 654.723C552.51 658.886 552.935 663.18 553.34 667.556C554.06 675.356 554.304 683.158 554.266 690.98C554.263 691.61 554.26 692.349 555.542 692.764C562.416 687.927 569.13 682.221 577.338 677.857C577.861 681.761 575.71 682.866 574.16 684.174C568.69 688.789 563.14 693.31 557.562 697.793C555.172 699.714 554.119 702.014 557.059 703.834C566.696 709.8 577.125 714.063 588.105 716.85C590.627 717.49 593.318 717.696 593.828 720.694C594.413 724.138 594.667 727.733 591.598 730.285C589.931 729.561 589.952 728.502 589.785 727.53C588.787 721.708 587.276 721.028 581.78 723.641C577.853 725.508 574.829 728.56 570.823 731.113C577.283 734.712 584.455 733.108 591.976 736.054C584.986 739.479 578.994 738.811 573.044 737.764C567.149 736.727 561.515 733.46 555.232 736.094C554.3 736.485 552.866 736.353 551.895 733.744C561.14 730.966 569.736 726.722 577.191 719.214C568.665 716.878 561.842 711.776 553.849 708.506C552.45 715.138 554.264 721.281 552.464 727.083C549.247 737.453 544.385 747.428 545.638 759.162C550.85 759.044 555.661 761.498 560.385 764.438C562.298 765.629 564.738 766.063 566.996 766.593C572.179 767.81 577.48 768.593 582.571 770.099C585.91 771.086 587.648 770.133 588.811 767.181C590.213 763.619 591.864 760.136 592.997 756.491C597.039 743.496 601.662 730.74 598.914 716.509C597.097 707.102 596.408 697.326 596.965 687.705C597.398 680.221 597.906 672.746 597.62 665.273C596.928 647.193 599.769 629.444 602.294 611.665C603.93 600.144 606.295 588.709 607.521 577.15C609.639 557.172 611.904 537.221 614.587 517.311C615.304 511.984 617.791 508.962 622.996 507.575C629.738 505.779 636.687 504.232 642.962 501.32C659.329 493.724 675.237 485.137 692.289 478.476C690.576 472.625 688.386 466.664 687.154 460.51C685.902 454.256 686.703 447.964 688.734 441.055C689.758 442.325 690.128 442.571 690.122 442.807C689.722 457.734 694.6 471.226 701.214 484.285C701.834 485.508 702.188 486.785 703.527 487.31C711.712 490.519 719.495 494.859 729.198 496.411ZM328.067 728.26C327.567 732.002 327.067 735.743 326.547 739.64C330.539 740.478 334.62 736.856 338.715 740.327C337.762 741.006 337.298 741.584 336.738 741.699C325.181 744.075 320.081 750.881 322.18 762.711C322.264 763.185 322.092 763.702 322.054 764.2C321.945 765.597 322.598 766.631 323.972 766.574C329.207 766.354 334.204 767.921 339.746 766.81C345.76 765.604 353.453 762.652 357.85 770.987C358.142 771.541 359.287 771.824 360.072 771.912C370.879 773.129 381.533 771.915 391.607 770.456C391.607 763.978 392.006 758.153 391.536 752.399C389.702 729.921 390.801 707.469 392.539 685.092C393.694 670.222 396.286 655.457 398.04 640.616C399.522 628.071 399.515 615.41 401.669 602.943C403.149 594.373 403.266 585.685 402.451 577.057C401.435 566.312 399.838 555.649 401.681 544.804C402.763 538.435 403.13 531.944 403.821 525.508C405.079 513.779 404.806 501.94 406.602 490.239C408.788 476.007 408.144 461.722 406.974 447.427C405.782 432.861 402.502 418.399 403.887 403.7C405.51 386.48 403.482 369.07 406.784 351.954C407.806 346.661 405.59 343.893 400.216 343.023C390.943 341.522 384.775 335.965 380.709 327.61C378.238 322.534 375.269 317.693 372.401 312.82C371.145 310.687 369.417 309.175 366.623 310.385C358.376 313.955 349.844 316.945 342.206 321.777C335.855 325.794 335.332 327.316 336.701 334.591C337.499 338.834 336.13 339.936 331.886 338.911C326.393 337.585 325.306 333.333 324.77 328.712C323.748 319.892 322.838 311.06 321.881 302.233C320.372 317.202 320.174 332.253 317.884 346.978C314.122 371.168 314.192 395.364 315.25 419.641C316.423 446.543 318.594 473.422 318.985 500.331C319.482 534.609 319.512 568.891 321.414 603.129C321.975 613.232 323.565 623.287 323.913 633.391C324.175 641.009 327.231 648.981 324.572 656.094C322.423 661.845 321.386 667.383 320.887 673.312C319.923 684.744 320.916 696.178 324.938 706.674C327.613 713.655 329.177 720.15 328.067 728.26ZM236.687 225.399C245.072 220.268 254.413 218.918 263.971 218.842C267.993 218.81 271.256 220.597 273.097 224.642C275.122 229.09 278.686 232.491 281.894 236.081C283.453 237.826 285.131 240.484 288.091 238.427C290.824 236.527 290.136 233.606 289.217 231.164C287.577 226.809 285.65 222.544 283.58 218.372C280.897 212.964 276.84 208.806 271.056 206.767C262.586 203.78 253.992 201.172 245.251 199.068C243.294 198.598 240.167 198.931 240.797 195.734C241.387 192.744 244.233 193.611 246.207 194.139C252.955 195.943 259.606 198.12 266.367 199.869C278.231 202.938 286.384 209.953 290.519 221.587C291.911 225.503 293.674 229.285 295.12 233.183C296.175 236.024 298.292 237.261 300.958 236.496C303.441 235.784 303.736 233.396 303.141 231.099C302.725 229.494 302.298 227.833 301.517 226.392C297.392 218.786 293.535 210.993 288.837 203.75C284.757 197.46 279.491 191.186 272.502 188.827C262.658 185.504 252.082 184.339 241.809 182.299C239.877 181.915 237.284 182.119 237.617 179.271C237.92 176.682 240.274 177.414 242.051 177.546C252.234 178.3 261.87 181.889 271.917 183.314C275.416 183.811 278.044 185.513 280.578 187.829C287.448 194.107 293.583 201.222 301.452 206.37C303.33 207.599 305.224 209.824 307.63 207.749C309.877 205.811 308.55 203.411 307.607 201.311C300.793 186.139 288.474 176.487 274.471 168.609C272.294 167.384 269.661 166.991 267.161 167.529C259.421 169.195 251.577 166.527 243.829 168.207C242.32 168.535 240.114 168.666 239.783 166.411C239.389 163.722 241.745 163.63 243.498 163.508C252.469 162.88 261.286 161.175 270.164 159.896C273.814 159.369 277.01 160.626 279.965 162.793C284.128 165.845 288.296 168.914 292.662 171.658C296.158 173.855 299.452 176.566 303.613 177.494C305.674 177.954 307.636 177.565 308.866 175.563C310.104 173.548 308.822 172.064 307.658 170.652C306.815 169.631 305.874 168.648 304.827 167.844C297.823 162.471 290.968 156.873 283.691 151.896C276.883 147.24 269.618 143.703 260.787 146.428C249.514 149.906 238.138 153.051 226.785 156.263C224.462 156.92 223.224 158.329 222.341 160.517C217.346 172.89 214.32 185.828 211.082 198.717C208.391 209.432 204.448 219.634 196.976 228.04C188.818 237.218 180.264 245.905 170.556 253.604C157.427 264.014 145.594 275.955 131.405 285.185C121.384 291.704 111.147 297.849 101.077 304.271C90.8379 310.801 81.0567 318.019 70.4918 324.076C61.9939 328.947 53.8934 334.474 46.3088 340.742C37.9438 347.655 31.7272 356.454 26.5844 365.647C19.8017 377.771 11.2682 389.121 7.28311 402.653C2.52852 418.798 4.6732 428.924 17.2425 436.656C25.7429 441.884 34.3187 447.004 42.6251 452.527C46.8841 455.359 51.1178 455.742 55.8664 454.666C65.9506 452.381 72.9866 445.862 78.4142 437.69C92.5022 416.478 104.65 394.041 118.988 372.971C124.695 364.585 129.248 355.324 135.583 347.475C147.808 332.329 160.613 317.646 175.067 304.46C186.34 294.175 198.487 285.268 212.677 279.716C222.888 275.722 230.092 269.121 235.204 259.643C241.043 248.817 246.104 237.697 249.539 225.344C246.255 226.505 243.196 227.652 240.093 228.661C237.786 229.411 235.53 229.823 236.687 225.399ZM676.994 331.548C680.683 338.073 684.65 344.44 689.312 350.301C703.756 368.461 714.706 388.307 721.637 410.63C728.824 433.776 735.76 457.181 750.108 477.365C758.516 489.193 766.435 501.073 782.033 505.053C792.612 507.753 802.019 505.943 811.588 501.941C819.976 498.432 822.087 490.977 823.888 483.227C824.189 481.932 824.8 480.681 824.918 479.378C826.121 466.122 828.281 452.547 819.706 440.811C812.629 431.126 808.157 420.286 803.609 409.379C799.009 398.343 794.453 387.411 785.76 378.521C776.209 368.751 765.441 360.206 756.325 350.136C741.479 333.739 726.12 317.82 711.418 301.298C708.832 298.392 706.717 295.068 704.161 291.638C703.027 293.149 702.186 294.154 701.471 295.242C695.998 303.571 688.974 310.278 680.721 315.854C677.955 317.724 673.013 317.45 672.605 321.396C672.262 324.713 675.096 327.776 676.994 331.548ZM615.232 201.901C617.542 202.189 619.898 202.281 622.155 202.803C629.272 204.448 636.623 205.106 643.501 207.74C645.072 208.341 646.731 209.352 646.008 211.422C645.278 213.513 643.575 213.176 641.84 212.586C628.438 208.029 614.643 206.372 600.551 207.338C593.745 207.805 587.397 210.223 580.669 212.205C582.31 216.174 585.374 217.182 588.684 217.813C600.275 220.022 612.049 221.26 623.441 224.515C632.079 226.983 636.207 233.107 635.492 241.954C635.062 247.274 634.357 252.535 633.542 257.802C631.834 268.837 638.69 282.306 648.665 286.762C655.512 289.821 662.545 291.424 669.222 285.651C672.607 282.723 676.61 280.522 680.146 277.753C686.974 272.407 687.738 268.66 683.686 261C681.026 255.97 678.086 250.88 677.976 245.156C677.78 234.858 677.391 224.553 678.356 214.225C678.877 208.655 680.942 203.08 679.386 197.405C678.475 194.085 678.426 190.825 679.327 187.556C680.19 184.423 679.316 182.125 676.667 180.194C674.478 178.598 672.166 177.37 669.636 176.492C657.849 172.404 646.005 168.435 634.795 162.895C628.986 160.024 622.847 159.626 616.757 160.648C610.313 161.729 604.127 160.612 597.984 159.452C593.862 158.673 589.81 158.015 585.645 158.163C583.433 158.242 580.46 157.361 579.653 160.348C578.777 163.591 581.032 165.82 583.682 167.049C588.741 169.394 594.097 170.637 599.689 169.193C611.29 166.197 622.635 166.03 633.839 171.13C638.204 173.116 642.977 174.207 647.563 175.708C649.431 176.319 652.037 176.675 651.083 179.428C650.163 182.086 647.755 180.943 645.921 180.354C638.951 178.116 632.001 175.813 625.063 173.478C621.08 172.138 617.157 171.625 612.85 172.065C600.209 173.357 588.25 177.824 575.729 179.611C573.311 179.956 571.345 181.606 571.487 184.399C571.642 187.438 573.482 189.418 576.49 189.732C581.128 190.216 585.864 190.477 590.409 189.339C602.147 186.399 613.955 185.473 626.008 186.788C634.827 187.751 643.265 190.365 651.875 192.219C653.695 192.612 656.842 193.394 655.868 196.261C654.953 198.951 652.293 197.838 650.217 197.267C649.094 196.957 647.953 196.694 646.856 196.305C621.294 187.243 596.324 191.62 571.526 199.646C570.321 200.036 568.764 200.423 568.741 202.106C568.721 203.658 570.03 204.343 571.224 204.936C575.439 207.029 580.05 207.673 584.331 206.078C594.066 202.449 604.102 201.817 615.232 201.901ZM423.691 390.491C422.489 383.739 422.699 376.893 422.465 370.087C422.201 362.445 419.819 356.077 413.048 351.88C411.57 352.642 411.574 353.989 411.426 355.32C409.859 369.382 408.862 383.473 409.242 397.635C409.411 403.934 408.09 410.115 408.706 416.529C410.437 434.552 413.288 452.468 413.377 470.665C413.434 482.568 410.517 494.081 410.022 505.907C409.529 517.671 409.263 529.482 407.346 541.182C406.332 547.369 405.181 553.657 405.703 559.977C406.305 567.261 407.227 574.505 407.455 581.833C407.814 593.358 406.374 604.729 405.211 616.139C403.882 629.183 402.46 642.224 401.501 655.298C400.442 669.721 397.033 683.822 396.756 698.405C396.534 710.04 397.239 721.751 395.931 733.327C394.661 744.565 397.953 755.498 397.335 766.644C397.229 768.552 398.062 769.994 400.209 769.878C406.786 769.523 413.357 769.065 420.747 768.596C417.026 758.329 417.743 748.336 417.719 738.392C417.708 733.907 418.939 729.429 418.072 724.957C415.909 713.815 417.388 702.845 418.843 691.754C420.677 677.776 423.761 663.912 423.733 649.734C423.715 640.049 424.967 630.445 426.302 620.96C428.578 604.784 427.148 588.705 426.196 572.683C425.124 554.662 425.856 536.711 427.246 518.873C428.367 504.491 430.33 490.156 430.664 475.694C430.861 467.209 429.999 458.732 429.981 450.276C429.94 430.395 428.122 410.769 423.691 390.491ZM457.803 113.649C436.742 104.369 415.547 109.925 402.601 128.432C394.001 140.726 392.004 154.394 395.4 168.904C395.854 170.84 396.553 172.441 399.107 172.961C405.615 174.287 406.507 175.833 405.495 182.744C404.8 187.496 405.915 191.392 409.45 194.941C423.48 209.031 447.187 210.61 464.023 198.346C492.06 177.921 489.049 132.286 457.803 113.649ZM546.068 269.586C540.999 273.999 535.93 278.413 530.315 283.302C536.809 285.402 542.583 284.652 548.311 284.221C558.602 283.447 568.953 282.562 579.132 284.563C594.938 287.669 609.481 294.147 623.273 302.401C639.96 312.386 656.907 322 669.806 337.072C671.155 338.648 672.906 339.639 675.349 339.946C672.721 334.487 670.35 329.547 667.964 324.615C667.244 323.127 666.797 321.227 665.133 320.643C656.972 317.779 654.283 310.364 650.652 303.675C646.072 295.239 642.227 286.374 634.382 280.066C629.57 276.197 627.733 270.505 628.144 264.397C628.457 259.754 627.084 255.886 624.167 252.464C619.229 246.672 617.028 239.665 615.869 232.417C615.243 228.499 613.343 226.991 609.868 226.415C602 225.111 594.051 224.128 586.317 222.261C581.92 221.199 579.879 222.019 577.894 226.152C570.111 242.355 559.509 256.595 546.068 269.586ZM203.608 308.683C206.772 308.728 209.937 308.748 213.101 308.827C215.18 308.878 217.248 308.695 218.438 306.785C223.038 299.405 230.252 297.075 238.303 296.057C253.288 294.16 267.947 289.701 283.164 289.769C292.247 289.81 301.018 288.97 309.684 286.045C313.652 284.706 316.899 283.136 319.29 279.55C321.532 276.188 324.636 273.624 328.754 272.616C329.921 272.33 330.955 271.809 331.177 269.653C322.389 261.473 314.832 251.597 307.56 241.272C303.426 243.574 299.663 244.141 295.961 241.432C294.829 240.604 293.856 241.25 292.761 241.818C285.474 245.598 283.159 245.205 277.425 239.475C274.634 236.686 272.152 233.435 267.617 232.72C264.184 237.344 261.433 242.495 255.95 245.38C247.937 249.597 242.431 256.124 238.265 264.328C234.509 271.726 229.227 278.566 220.907 281.475C207.535 286.152 196.487 294.727 184.761 302.18C183.285 303.118 181.726 304.213 181.375 306.552C184.661 306.776 187.572 307.836 190.206 309.66C191.498 310.555 192.978 311.008 194.422 310.072C196.989 308.41 199.837 308.691 203.608 308.683ZM340.96 195.482C337.277 190.339 333.622 185.175 329.893 180.064C328.781 178.541 327.81 176.403 324.183 178.442C336.27 198.238 351.842 215.307 366.468 233.984C362.931 234.26 361.996 232.443 360.805 231.222C355.109 225.379 349.539 219.412 343.834 213.579C342.336 212.047 340.829 209.816 338.156 211.511C337.387 215.008 341.873 216.231 341.351 219.905C334.454 215.767 330.451 208.502 323.224 205.114C321.735 208.138 323.326 209.369 324.551 210.628C330.473 216.712 336.45 222.741 342.374 228.822C343.5 229.979 345.111 230.914 345.285 233.629C337.999 228.136 332.009 222.429 326.206 216.494C325.156 215.42 323.773 213.591 322.025 215.311C320.622 216.693 321.909 218.114 322.818 219.271C326.827 224.375 330.92 229.413 334.9 234.54C335.916 235.849 337.754 236.794 337.56 239.052C334.885 238.966 333.756 236.689 331.791 235.935C328.334 234.61 327.88 236.405 330.347 242.201C327.614 243.711 325.435 245.988 326.667 249.254C327.887 252.49 328.846 256.551 334.058 255.701C335.794 255.418 336.947 257.105 338.1 258.31C339.018 259.27 340.526 260.991 341.238 260.381C344.503 257.582 347.556 260.341 349.893 260.583C352.228 259.502 349.872 257.002 352.25 256.638C358.078 255.744 355.317 252.997 353.576 250.502C351.762 247.904 348.908 245.992 348.322 242.457C354.432 246.306 360.129 250.563 365.891 254.731C367.142 255.636 368.652 257.338 370.185 255.45C371.394 253.962 369.882 252.731 369.004 251.541C366.904 248.692 363.885 246.546 362.147 243.073C371.732 240.304 374.694 252.844 383.591 251.755C383.73 246.213 377.586 244.37 376.594 239.468C381.023 240.101 382.888 246.236 388.889 243.697C380.884 231.911 370.815 222.376 362.809 211.168C374.049 218.794 384.68 227.14 395.969 232.237C399.614 231.028 397.229 228.355 399.042 227.561C404.636 225.109 400.965 222.709 398.899 220.74C394.323 216.38 389.352 212.431 384.82 208.029C381.831 205.126 378.257 202.637 377.039 197.928C384.074 203.563 391.109 209.198 397.522 214.335C401.646 212.333 396.719 209.369 399.895 207.788C402.639 206.421 401.326 204.717 400.36 202.841C398.987 200.178 396.333 198.2 395.647 194.939C397.757 194.721 399.511 196.916 401.481 194.163C399.611 190.781 398.273 185.92 394.029 185.023C391.203 184.426 389.263 183.468 387.29 181.76C383.612 178.577 379.891 175.443 376.188 172.289C375.773 172.645 375.357 173.002 374.942 173.358C375.256 179.313 381.81 181.881 383.71 187.182C380.671 187.746 379.382 182.679 375.909 185.438C376.79 189.498 381.325 191.495 382.264 195.629C380.054 196.318 379.152 194.796 378.116 193.924C372.006 188.777 365.54 184.057 359.813 178.441C358.1 176.761 356.297 174.199 352.935 175.986C353.041 176.793 352.908 177.59 353.241 178.042C357.9 184.365 359.94 192.209 365.982 197.861C372.887 204.32 378.871 211.764 385.22 218.811C385.914 219.581 387.109 220.398 385.526 222.094C379.794 218.277 373.803 214.764 368.546 210.142C362.294 204.645 356.043 199.147 349.746 193.702C348.429 192.563 346.954 190.622 345.059 192.226C343.271 193.74 344.544 195.587 345.562 197.13C346.109 197.96 346.791 198.704 347.429 199.472C353.816 207.151 360.215 214.82 366.584 222.515C367.213 223.274 368.493 223.899 367.416 225.74C357.344 216.839 349.104 206.684 340.96 195.482ZM539.616 76.9174C539.622 76.7509 539.589 76.5697 539.645 76.4221C539.699 76.2794 539.846 76.0631 539.95 76.064C542.149 76.0824 543.336 77.9231 544.995 78.9156C546.216 79.6457 547.435 80.1913 548.657 79.15C549.868 78.1175 549.006 77.0352 548.484 76.0112C548.111 75.2813 547.731 74.5558 547.309 73.7424C548.408 72.8567 549.645 72.2395 550.327 71.2426C553.091 67.2046 549.469 59.7123 544.558 59.6535C542.401 59.6277 540.93 58.9143 539.879 57.4528C537.573 54.2469 535.244 54.1788 533.024 56.9479C530.592 56.5148 529.496 53.5266 527.058 54.7836C525.536 56.3331 527.585 57.735 526.889 59.1929C525.572 60.0781 523.345 58.2625 522.513 60.4393C521.716 62.5262 523.395 63.8498 524.464 65.259C526.485 67.9231 528.62 70.5007 530.859 73.3045C529.174 73.8403 528.549 73.2484 527.901 72.763C522.702 68.866 517.521 64.9449 512.304 61.0714C510.885 60.0181 509.269 58.1431 507.525 59.838C505.499 61.8081 508.083 62.9513 509.031 64.3029C510.991 67.0989 514.097 68.9869 515.687 72.3301C506.072 75.3188 502.976 62.5649 493.987 63.697C494.281 69.0619 500.069 71.0656 501.093 76.1459C496.612 75.1171 494.736 69.3809 488.498 71.1674C496.496 83.5744 507.204 93.068 515.214 104.756C513.433 104.158 512.046 103.135 510.715 102.042C502.967 95.6796 494.171 90.8323 486.08 85.0028C479.977 80.605 478.824 86.7119 476.534 89.007C474.274 91.2729 477.366 93.3983 479.111 95.0308C484.947 100.49 490.893 105.833 496.728 111.293C497.93 112.417 499.569 113.45 499.463 116.073C491.893 111.754 486.99 104.535 479.65 101.375C474.75 108.539 477.312 114.404 482.149 119.742C479.828 120.882 476.016 117.848 476.738 121.816C477.381 125.348 479.716 129.616 483.489 130.287C486.818 130.879 488.785 132.53 491.076 134.377C494.56 137.187 497.574 140.707 502.803 143.124C502.15 136.334 496.097 133.928 494.679 128.78C497.247 128.408 498.859 132.584 501.592 129.671C500.81 125.781 496.358 123.893 495.668 119.074C506.232 125.388 513.726 134.48 523.98 140.18C520.998 131.103 517.161 122.872 510.282 116.039C503.481 109.284 497.444 101.76 491.072 94.5728C491.43 94.1911 491.788 93.8093 492.146 93.4276C495.039 95.2653 497.996 97.0105 500.813 98.9577C510.426 105.603 518.707 113.857 527.667 121.293C529.097 122.479 530.891 124.633 532.809 122.77C534.689 120.943 532.782 119.081 531.54 117.578C525.917 110.772 520.201 104.042 514.604 97.2161C512.809 95.0277 510.418 93.2034 509.117 89.9083C512.303 90.6171 513.6 92.6112 515.231 94.1992C527.732 106.372 537.265 120.887 547.476 134.872C548.543 136.335 549.167 138.726 552.106 137.973C553.367 134.314 550.571 132.117 548.883 129.703C538.083 114.263 525.984 99.8287 514.182 85.1637C513.213 83.959 511.478 83.0976 511.923 80.4077C515.657 82.1909 517.824 85.3672 520.41 87.9335C525.139 92.6246 529.636 97.5474 534.311 102.293C535.512 103.512 536.887 105.607 538.864 103.853C540.663 102.257 538.721 100.889 537.831 99.6095C536.857 98.21 535.297 97.1158 535.325 95.0267C537.624 95.009 538.394 96.7059 539.561 97.7696C543.493 101.355 547.349 105.025 551.29 108.6C552.279 109.496 553.581 110.391 554.804 109.091C556.123 107.69 554.785 106.605 553.911 105.705C548.226 99.8482 542.485 94.0467 536.768 88.2209C534.621 86.0329 532.492 83.8281 529.799 81.0599C533.074 81.1014 534.314 82.7662 535.699 84.0542C540.82 88.8173 545.855 93.6722 550.969 98.443C552.342 99.7239 553.646 101.702 556.407 99.4972C552.673 90.814 545.443 84.7108 539.616 76.9174ZM345.771 281.771C340.912 277.977 336.841 272.776 329.293 277.685C324.369 280.887 322.276 283.149 323.706 288.839C324.233 290.933 324.992 292.99 325.307 295.114C327.062 306.971 328.713 318.844 330.399 330.711C330.393 325.392 333.233 321.993 337.23 319.087C344.603 313.725 353.112 310.712 361.357 307.161C370.404 303.264 374.425 304.709 378.938 313.686C381.936 319.649 385.464 325.283 388.832 331.023C390.453 333.787 392.763 335.565 395.716 336.451C400.291 337.823 404.925 338.998 410.164 340.429C408.128 335.918 405.752 332.401 403.201 328.935C397.392 321.04 389.193 315.007 385.052 305.849C383.929 303.364 382.318 301.925 379.837 300.923C367.892 296.096 356.706 289.874 345.771 281.771ZM414.745 336.82C417.971 340.738 418.911 346.226 423.831 350.037C430.01 342.499 438.106 337.794 446.514 333.476C448.183 332.619 449.52 330.812 450.599 329.172C453.246 325.151 455.708 321.003 458.124 316.837C458.84 315.602 459.902 314.133 458.948 312.675C457.891 311.059 455.99 311.278 454.37 311.478C434.958 313.873 415.931 311.526 397.08 306.927C395.642 306.576 394.201 305.894 392.14 308.304C399.508 317.416 408.473 325.669 414.745 336.82ZM493.813 324.659C501.813 330.091 509.238 336.515 518.78 339.885C521.475 333.201 521.63 326.911 520.57 320.666C519.292 313.143 517.361 305.733 515.971 298.227C515.134 293.709 513.164 293.398 509.438 295.364C498.063 301.365 486.011 305.609 473.459 308.391C470.216 309.11 467.629 310.533 465.817 313.427C460.162 322.461 456.199 332.629 447.539 339.88C450.869 341.449 452.764 339.869 454.493 338.006C458.109 334.109 461.522 330.013 465.277 326.258C477.612 313.921 479.339 313.847 493.813 324.659ZM494.079 764.583C499.211 764.252 503.31 762.539 506.669 758.116C509.521 754.359 513.468 751.277 517.366 748.508C523.555 744.113 523.786 744.011 519.849 736.579C513.824 739.021 506.324 737.445 501.484 743.614C497.282 748.97 492.925 754.204 488.759 759.587C487.447 761.283 485.377 762.57 484.874 765.306C487.954 765.066 490.586 764.861 494.079 764.583ZM319.265 739.701C322.115 737.496 322.16 734.158 322.472 731.08C323.499 720.935 323.418 720.926 313.202 720.994C299.041 721.089 297.091 723.792 301.164 737.692C301.211 737.852 301.244 738.016 301.294 738.175C303.975 746.695 305.466 747.568 314.183 745.72C312.737 741.557 316.563 741.482 319.265 739.701ZM545.322 732.907C546.033 730.245 547.554 727.732 546.832 724.35C544.228 724.23 541.615 724.013 539.001 724.005C523.572 723.954 522.69 725.409 527.116 740.757C528.515 745.609 530.862 747.482 535.92 747.114C539.286 746.87 541.07 745.829 541.926 742.561C542.721 739.523 543.992 736.61 545.322 732.907ZM708.368 263.227C707.398 262.327 706.505 261.321 705.443 260.546C701.104 257.376 696.519 257.667 693.366 261.23C690.638 264.314 690.647 269.562 693.385 272.683C697.123 276.945 702.185 277.887 706.225 275.072C711.101 271.675 711.689 269.104 708.368 263.227ZM551.586 651.019C551.944 648.848 551.325 647.457 548.849 647.337C543.029 647.057 537.359 645.819 531.7 644.539C529.443 644.029 528.262 645.04 527.734 647.163C527.185 649.369 528.434 650.177 530.262 650.603C535.59 651.845 540.928 653.047 546.239 654.357C548.791 654.986 550.427 654.116 551.586 651.019ZM290.488 752.869C285.386 755.729 281.238 759.705 276.29 764.508C284.731 763.135 291.673 759.81 299.586 761.183C299.244 757.328 298.958 754.118 298.649 750.632C295.98 751.336 293.583 751.968 290.488 752.869ZM320.389 651.824C319.988 650.435 319.214 649.351 317.641 649.458C311.296 649.886 304.956 650.392 298.53 650.875C298.278 655.306 300.028 657.109 304.062 656.762C308.328 656.394 312.602 656.093 316.877 655.845C319.039 655.72 320.235 654.705 320.389 651.824ZM523.846 750.359C518.237 752.251 514.91 756.73 511.113 761.122C523.829 763.068 523.829 763.068 527.838 761.025C525.42 757.971 524.76 754.308 523.846 750.359ZM621.943 229.464C619.842 234.241 623.722 244.878 628.899 248.537C632.32 237.299 630.812 232.728 621.943 229.464ZM262.597 230.586C263.619 228.066 261.622 227.779 260.082 227.41C257.88 226.883 255.843 227.083 254.398 229.275C251.613 233.498 250.785 238.379 249.099 243.371C256.937 238.999 257.925 238.071 262.597 230.586ZM314.376 715.704C317.011 715.284 319.951 716.657 322.351 714.576C321.968 711.74 320.133 711.419 317.978 711.385C313.013 711.308 308.023 711.771 303.096 710.737C300.881 710.273 299.954 711.738 299.815 713.506C299.644 715.677 301.485 715.63 302.968 715.654C306.451 715.713 309.936 715.693 314.376 715.704ZM307.949 757.806C310.083 757.856 312.218 757.938 314.352 757.945C316.198 757.952 317.728 757.436 317.381 755.142C317.135 753.511 316.833 751.855 314.446 752.024C312.156 752.186 309.848 752.075 307.549 752.124C305.971 752.158 304.567 752.491 304.381 754.451C304.191 756.456 305.062 757.576 307.949 757.806ZM516.242 723.927C514.251 726.909 512.261 729.891 510.195 732.985C520.511 731.921 521.624 730.394 518.629 720.82C517.847 721.839 517.248 722.621 516.242 723.927ZM539.185 756.083C540.276 755.377 541.09 754.284 540.009 753.281C537.641 751.084 534.726 752.376 532.039 752.576C530.975 752.655 530.243 753.663 530.639 754.743C531.755 757.785 534.368 756.656 536.542 756.65C537.19 756.648 537.838 756.471 539.185 756.083ZM541.232 718.844C543.27 718.744 545.397 719.167 548.6 717.586C539.858 716.796 532.355 718.278 524.984 716.685C529.82 719.49 535.153 718.544 541.232 718.844Z"/>
<path d="M227.209 393.982C228.054 396.79 229.703 399.099 228.391 402.733C222.695 398.255 223.417 390.859 218.963 386.405C214.548 381.989 209.986 377.972 204.157 375.669C198.301 373.356 192.154 371.783 185.89 367.897C187.86 373.428 190.822 377.254 193.766 380.821C215.377 407.004 225.71 437.965 232.367 470.539C232.999 473.631 233.73 476.712 234.132 479.835C234.372 481.697 234.933 484.296 232.075 484.619C229.478 484.911 229.534 482.342 229.257 480.684C227.226 468.541 224.863 456.43 221.055 444.749C213.282 420.903 202.81 398.425 186.49 378.942C181.179 372.603 176.92 365.326 173.759 357.556C173.334 356.51 172.777 355.406 173.451 354.133C175.121 352.985 176.21 354.184 177.176 355.3C183.544 362.662 192.211 366.306 201.043 369.185C213.72 373.317 223.246 380.301 227.209 393.982Z"/>
<path d="M147.92 450.887C145.145 453.252 143.734 456.859 139.811 457.38C139.1 455.067 140.688 454.056 141.696 452.862C147.114 446.45 150.503 439.559 150.011 430.671C149.535 422.078 152.371 414.269 159.496 408.618C161.406 407.103 163.142 405.161 165.836 406.118C166.718 407.817 165.771 408.555 164.835 409.29C157.537 415.024 154.654 422.853 155.245 431.749C155.748 439.327 153.563 445.473 147.92 450.887Z"/>
<path d="M644.191 486.545C640.689 487.76 639.139 486.636 640.425 483.395C652.44 453.12 666.211 423.82 688.278 399.269C692.111 395.004 696.087 390.789 702.261 389.204C698.439 399.284 694.171 409.014 690.028 418.935C687.571 414.395 688.929 410.123 689.697 405.378C686.356 409.655 682.826 413.797 679.708 418.231C666.628 436.831 656.11 456.786 648.339 478.181C647.323 480.977 645.779 483.58 644.191 486.545Z"/>
<path d="M630.763 458.055C629.969 453.113 628.971 449.707 623.145 448.323C615.938 446.609 615.409 443.394 620.117 437.639C634.697 419.815 651.158 403.773 667.751 387.866C669.439 386.248 669.66 386.318 673.395 385.766C673.965 388.801 671.548 390.152 669.987 391.82C655.321 407.495 639.434 422.019 625.837 438.701C625.012 439.713 624.269 440.792 623.435 441.911C624.968 444.604 626.841 444.796 629.336 443.607C633.999 441.385 638.701 439.289 642.804 436.046C644.558 434.66 646.432 433.219 648.841 433.263C649.964 435.417 648.455 436.228 647.408 437.214C647.047 437.555 646.595 437.797 646.217 438.123C642.206 441.575 635.114 443.257 634.2 447.917C633.139 453.321 636.116 459.508 637.288 465.366C637.697 467.41 639.04 469.336 638.074 472.416C633.257 468.563 632.617 463.189 630.763 458.055Z"/>
<path d="M420.408 384.238C418.748 387.17 416.477 387.715 413.827 386.961C411.224 386.221 410.289 384.028 409.979 381.667C409.513 378.123 409.892 374.592 412.659 372.017C415.987 368.919 420.713 370.662 421.575 375.137C422.155 378.147 421.703 381.052 420.408 384.238Z"/>
<path d="M420.072 521.884C423.375 525.664 422.669 529.632 421.341 533.408C420.082 536.985 416.11 538.028 413.21 535.937C410.343 533.87 409.957 529.198 412.139 524.52C413.768 521.026 416.167 519.866 420.072 521.884Z"/>
<path d="M419.843 598.979C422.151 602.825 422.491 606.45 420.537 610.129C419.21 612.627 417.028 613.518 414.301 613.103C411.566 612.688 410.501 610.747 410.079 608.281C408.863 601.161 413.364 596.607 419.843 598.979Z"/>
<path d="M414.05 685.451C414.181 686.521 414.299 687.195 414.233 687.849C413.855 691.556 412.692 694.809 408.5 695.589C405.798 696.091 403.271 695.137 402.342 692.492C400.97 688.583 401.95 684.813 404.925 681.932C407.322 679.61 410.943 680.992 414.05 685.451Z"/>
<path d="M420.249 458.914C415.481 455.636 414.5 451.826 416.91 447.357C418.69 444.055 422.849 443.675 425.075 446.611C428.354 450.936 426.024 457.438 420.249 458.914Z"/>
<path d="M432.853 154.813C437.599 150.791 441.716 150.921 444.694 154.87C447.334 158.37 446.432 162.726 442.496 165.184C439.587 167.001 436.702 166.651 434.163 164.528C431.027 161.904 430.66 158.663 432.853 154.813ZM437.932 161.355C440.221 161.604 441.484 160.591 441.08 158.294C440.869 157.101 439.621 156.267 438.409 156.776C436.358 157.637 435.726 159.128 437.932 161.355Z"/>
</g>
<defs>
<clipPath id="clip0_302_13">
<rect width="832" height="779" fill="white"/>
</clipPath>
</defs>
</svg>
