<svg width="1878" height="381" viewBox="0 0 1878 381" fill="#C46D5E" xmlns="http://www.w3.org/2000/svg">
<path d="M1.88328 255.832C1.60724 257.044 3.76677 244.164 1.88328 255.832C4.0661 246.248 5.9148 236.589 8.01484 226.986C15.2742 193.789 25.3168 161.467 41.1531 131.327C49.3626 115.703 58.1443 100.078 68.8753 86.1542C83.3023 67.4352 100.883 51.6167 121.862 39.9355C135.59 32.2918 150.309 28.3207 165.666 25.9647C182.254 23.4198 196.716 29.2006 209.591 38.4129C223.87 48.6307 230.321 63.4638 232.255 81.0634C234.042 97.3201 232.486 113.236 229.707 128.962C227.632 140.71 223.168 152.076 215.657 161.881C208.506 171.216 192.297 174.223 182.128 167.536C178.205 164.956 174.571 161.835 171.18 158.571C165.841 153.431 165.756 146.882 169.709 140.65C177.184 128.861 185.027 117.214 191.334 104.805C196.281 95.071 199.416 84.3853 195.09 73.0731C192.426 66.1078 186.363 60.3395 177.378 62.7643C168.04 65.2842 160.757 70.4623 153.921 76.6416C141.339 88.0147 131.994 101.984 123.314 116.359C115.593 129.144 108.583 142.357 100.94 155.19C88.3386 176.349 79.1312 199.108 69.9769 221.814C65.6377 232.577 63.4783 244.301 61.0845 255.747C57.6345 272.242 56.9538 288.779 62.9615 305.014C68.3703 319.631 77.5548 330.669 93.1365 334.343C98.4168 335.588 104.54 334.511 110.034 333.345C122.271 330.748 132.487 323.707 142.077 316.183C151.754 308.59 161.142 300.451 169.638 291.576C179.57 281.2 188.812 270.089 197.609 258.72C210.085 242.597 222.263 226.211 233.851 209.442C243.728 195.149 252.216 179.898 262.043 165.567C268.283 156.466 275.976 148.372 282.789 139.648C290.851 129.325 300.834 121.259 311.546 113.904C322.304 106.517 334.345 103.593 347.12 103.016C359.359 102.464 370.24 113.151 370.968 125.836C371.178 129.49 371.471 133.241 370.907 136.819C369.479 145.879 364.189 148.889 354.035 149.97C352.057 150.18 350.024 149.846 348.042 150.036C345.003 150.326 343.417 149.51 342.497 146.178C341.244 141.641 337.355 140.544 332.86 143.549C325.03 148.785 320.017 156.462 315.065 164.078C306.217 177.684 300.514 192.737 297.342 208.558C295.265 218.917 293.446 229.532 296.023 240.187C296.432 241.879 296.866 243.649 297.722 245.133C302.625 253.628 308.248 254.042 317.408 245.961C327.489 237.066 333.751 225.519 337.8 212.91C338.642 210.286 337.036 206.6 335.887 203.666C332.904 196.045 330.466 188.436 333.946 180.384C339.098 168.463 349.404 163.296 362.065 167.315C365.232 168.32 367.511 172.37 369.967 175.22C370.715 176.087 370.711 177.616 371.015 178.852C373.014 186.971 376.257 188.689 384.518 186.069C387.275 185.194 390.079 184.471 392.849 183.636C400.432 181.349 403.381 174.655 407.026 168.644C416.506 153.013 426.683 137.934 440.138 125.325C452.046 114.165 465.552 106.036 481.787 103.116C504.882 98.9625 520.051 120.244 516.734 138.357C515.637 144.345 511.596 149.123 505.599 150.854C499.67 152.565 493.091 148.737 489.126 142.438C484.764 135.507 482.584 135.189 476.693 140.842C467.698 149.473 460.731 159.566 454.788 170.51C447.103 184.663 440.603 199.283 436.653 214.893C434.147 224.796 432.99 234.731 439.915 243.838C444.002 249.215 448.518 250.956 454.19 247.958C471.334 238.895 483.549 225.706 490.138 207.071C494.509 194.711 499.93 182.657 505.728 170.883C515.948 150.129 527.423 129.975 537.175 109.013C542.68 97.1799 546.259 84.3681 549.865 71.7568C554.061 57.0842 557.254 42.1272 561.042 27.3345C563.727 16.8467 569.113 12.6896 581.147 14.4815C595.933 16.6832 602.565 26.7915 607.112 39.4476C609.617 46.4206 607.085 52.9804 605.7 59.5444C601.873 77.6916 594.068 94.4781 586.832 111.393C581.088 124.822 574.861 138.11 567.863 150.921C559.007 167.135 550.041 183.428 539.418 198.486C532.28 208.605 525.443 218.63 521.098 230.165C519.421 234.617 518.682 239.507 518.164 244.268C517.974 246.023 519.29 248.359 520.653 249.665C521.213 250.202 523.904 249.016 525.294 248.107C535.582 241.376 542.052 231.201 547.813 220.899C554.599 208.767 560.464 196.052 565.835 183.216C571.77 169.033 578.841 155.509 588.272 143.491C597.09 132.251 606.93 121.749 619.346 114.191C627.426 109.274 635.583 104.718 645.712 105.934C653.984 106.928 662.368 107.023 670.625 108.102C678.57 109.14 689.3 120.752 689.844 129.55C690.569 141.26 691.463 153.432 683.921 163.593C678.449 170.966 672.486 178.142 665.808 184.41C658 191.739 649.333 198.194 640.732 204.617C636.253 207.962 631.353 210.994 626.215 213.145C619.202 216.082 615.563 221.412 614.424 228.263C613.267 235.216 612.935 242.65 619.38 247.636C621.42 249.214 625.378 250.51 627.362 249.584C635.887 245.608 644.926 241.883 652.098 236.014C673.392 218.587 689.097 196.281 701.762 172.168C713.161 150.464 722.757 127.812 733.11 105.559C735.479 100.468 737.959 95.4028 739.905 90.1469C742.545 83.0183 739.481 78.6095 731.792 78.0134C712.63 76.5281 694.009 78.9184 676.233 86.4172C672.575 87.9602 669.416 90.6443 665.902 92.575C656.927 97.5061 651.024 98.4506 645.361 90.2752C643.194 87.1475 643.515 81.1808 644.673 77.062C649.328 60.5081 662.128 52.1349 677.67 48.2227C688.781 45.426 700.368 44.3235 711.81 43.0989C722.428 41.9624 733.132 41.573 743.807 41.0617C746.683 40.924 749.683 42.1189 752.474 41.6965C759.6 40.6178 761.243 34.5017 762.933 28.8387C763.937 25.4743 763.98 21.8238 764.978 18.457C767.267 10.7366 771.096 8.37041 778.742 7.90194C787.381 7.37267 795.148 9.58919 802.238 14.1419C804.272 15.4479 806.235 17.9203 806.815 20.2155C808.039 25.0643 808.357 30.1455 808.995 35.138C809.693 40.6048 813.336 43.9362 818.778 43.9984C819.778 44.0098 820.781 43.9424 821.777 44.0087C834.893 44.8826 835.654 41.8788 838.92 29.2459C840.078 24.7664 840.304 20.0493 841.017 15.4502C841.661 11.2949 847.929 5.69779 852.112 6.07107C859.913 6.76714 868.019 6.86169 874.242 12.7692C879.548 17.8053 882.326 23.7489 882.109 31.3902C881.723 44.984 886.661 49.838 900.449 49.9357C906.698 49.98 912.996 49.69 919.191 48.9122C928.117 47.7914 937.303 47.4567 945.463 42.9661C948.404 41.3478 951.141 39.3572 953.963 37.5241C960.831 33.0619 967.311 32.3248 970.081 36.9994C972.184 40.548 972.719 45.6609 972.293 49.9114C971.761 55.2086 968.89 59.6803 963.883 62.7556C954.94 68.2483 945.061 71.3336 934.995 72.785C918.031 75.2312 900.893 76.6043 883.788 77.8832C875.506 78.5024 873.741 84.636 871.246 90.4212C866.05 102.47 861.105 114.628 855.799 126.627C851.596 136.133 847.505 145.745 842.478 154.819C834.225 169.718 824.924 184.038 816.695 198.95C810.828 209.582 805.972 220.775 800.715 231.741C798.9 235.526 799.814 239.167 803.049 241.349C806.314 243.551 808.739 240.6 811.021 238.501C823.499 227.03 830.504 211.95 837.923 197.217C848.297 176.616 859.844 156.718 873.542 138.183C878.542 131.419 884.328 124.779 891.053 119.852C901.34 112.315 912.593 105.34 925.43 103.545C934.765 102.241 944.613 102.876 954.002 104.234C961.633 105.338 968.973 116.632 968.999 124.438C969.006 126.605 969.013 128.771 968.998 130.938C968.948 138.098 963.903 143.629 956.75 143.892C955.04 143.955 953.096 142.955 951.583 141.955C948.34 139.812 945.451 137.118 942.154 135.072C937.097 131.934 933.516 135.923 930.888 138.897C925.105 145.44 919.7 152.416 914.922 159.727C904.72 175.34 894.896 191.219 889.914 209.487C887.686 217.655 885.021 225.996 888.125 234.317C891.133 242.38 897.787 250.285 905.291 247.721C910.967 245.781 917.638 242.517 920.614 237.794C926.87 227.863 930.744 216.462 936.071 205.904C939.601 198.91 942.969 191.434 948.144 185.754C958.938 173.909 966.622 160.412 971.561 145.508C974.784 135.781 976.042 125.385 977.951 115.245C978.874 110.346 981.948 105.679 988.176 105.767C998.173 105.909 1006.19 110.747 1011.99 117.182C1017.97 123.83 1020.05 132.643 1018.43 142.896C1015.38 162.159 1009 179.998 999.836 196.865C995.086 205.603 988.604 213.401 982.877 221.604C981.025 224.256 978.594 226.638 977.355 229.539C976.487 231.57 976.433 234.637 977.369 236.594C978.867 239.728 982.138 239.767 985.095 238.379C992.705 234.806 998.002 228.626 1002.99 222.135C1015.34 206.04 1024.09 188.034 1031.46 169.229C1033.39 164.322 1036.09 159.524 1043.07 159.906C1050.67 160.323 1056.05 167.569 1054.42 175.229C1051.09 190.911 1042.79 204.282 1035.49 218.206C1027.24 233.939 1016.11 247.274 1003.2 259.145C993.063 268.464 981.931 276.625 968.287 280.157C958.883 282.592 950.253 281.369 944.095 272.66C943.337 271.587 942.247 270.746 941.303 269.806C936.599 265.117 934.496 264.972 929.327 269.199C922.401 274.863 914.933 279.704 906.067 281.379C889.769 284.457 873.347 285.36 859.211 274.807C853.042 270.201 848.457 263.455 843.235 257.609C840.939 255.038 838.848 252.286 835.864 248.638C827.958 256.894 820.818 264.823 813.145 272.198C807.813 277.322 801.928 281.923 794.229 283.327C779.443 286.024 765.054 282.08 759.561 265.38C755.612 253.378 755.685 253.402 746.059 261.269C736.95 268.715 727.169 275.568 715.744 278.915C701.428 283.11 690.946 283.065 681.185 270.691C678.976 267.89 676.801 265.062 674.667 262.204C671.865 258.45 668.967 257.925 664.939 260.557C651.287 269.478 637.078 277.151 620.925 280.601C606.12 283.764 591.976 282.423 579.875 272.8C575.172 269.061 571.725 263.57 568.25 258.504C564.389 252.876 562.371 249.768 554.028 257.389C545.912 264.802 538.087 272.708 529.151 279.002C518.782 286.306 506.822 288.118 495.278 281.44C491.316 279.149 488.208 274.853 485.591 270.89C481.817 265.175 478.548 263.259 473.017 267.153C460.975 275.633 446.96 277.714 433.237 280.872C417.691 284.45 397.134 276.162 390.033 262.031C386.925 255.847 386.598 247.962 386.243 240.788C385.932 234.5 387.146 228.098 388.055 221.799C389.042 214.961 383.234 212.625 377.805 214.613C368.815 217.906 361.646 221.987 358.33 232.515C355.56 241.308 350.185 249.818 344.167 256.933C332.639 270.564 319.281 282.274 301.355 287.265C289.5 290.566 277.519 291.778 265.745 287.871C255.934 284.615 248.99 277.652 244.952 267.969C244.148 266.041 242.983 264.267 242.041 262.394C238.689 255.725 234.174 255.101 229.628 260.916C216.434 277.797 202.422 293.927 186.859 308.691C181.273 313.99 176.012 319.63 170.484 324.991C153.598 341.367 135.33 355.906 113.722 365.609C101.363 371.159 88.8034 376.732 74.7814 375.953C47.1008 374.415 24.815 363.685 10.9426 338.363C5.96344 329.274 4.34876 319.359 1.96275 309.574C2.4624 312.074 1.44697 307.459 1.96275 309.574C-1.00002 300.5 -0.000197887 267.5 1.88328 255.832ZM783.97 164.318C788.641 154.28 793.622 144.373 797.906 134.174C804.042 119.568 809.747 104.778 815.462 89.9999C817.169 85.5857 815.455 82.0209 810.84 81.0724C806.399 80.1596 801.738 80.3249 797.175 79.9962C794.29 79.7884 792.947 81.0202 791.892 83.875C782.441 109.448 772.333 134.756 759.983 159.102C751.553 175.72 743.097 192.325 734.556 208.886C729.769 218.168 724.706 227.308 719.984 236.622C719.335 237.902 719.942 239.82 719.967 241.442C721.373 241.084 722.881 240.942 724.168 240.333C734.206 235.587 741.564 227.673 748.231 219.154C754.1 211.656 759.762 203.95 764.918 195.951C771.446 185.823 777.37 175.305 783.97 164.318ZM641.973 149.544C639.877 153.29 637.34 156.873 635.87 160.85C635.132 162.847 635.512 166.353 636.862 167.755C638.612 169.572 641.58 171.094 644.671 168.785C654.258 161.625 662.056 152.988 667.36 142.192C668.443 139.99 669.519 137.327 667.125 135.862C664.974 134.547 661.93 133.691 659.484 134.044C650.742 135.306 647.366 143.099 641.973 149.544Z"/>
<path d="M1876 182.5C1875.5 185.5 1873.53 190.137 1873.1 191.076C1864.89 208.951 1853.93 225.058 1841.34 240.05C1834.67 247.992 1827.65 255.688 1820.31 263.006C1815.61 267.69 1810.61 272.811 1804.71 275.416C1789.3 282.228 1771.58 281.552 1765.89 262.009C1762.84 251.529 1762.45 240.341 1763.69 228.995C1765.63 211.256 1771.79 195.269 1780.05 179.837C1785.05 170.482 1790.46 161.346 1795.45 151.979C1797.47 148.181 1798.97 144.083 1800.4 140.012C1800.91 138.573 1800.48 136.808 1800.48 135.191C1799.97 134.869 1799.46 134.546 1798.94 134.224C1793.16 138.456 1786.94 142.216 1781.71 147.039C1774.78 153.416 1768.13 160.229 1762.24 167.555C1746.69 186.881 1737.37 209.507 1730.17 232.912C1726.45 245.019 1725.05 257.828 1721.74 270.087C1720.83 273.461 1717.1 278.144 1714.18 278.528C1704.36 279.818 1694.07 280.007 1685.5 273.674C1681.61 270.795 1678.68 266.613 1675.07 262.762C1669.17 266.893 1663.57 271.652 1657.24 275.057C1644.13 282.112 1630.27 285.346 1615.85 278.919C1608.4 275.595 1603.98 269.235 1601.01 261.814C1600.35 260.176 1599.64 258.563 1599 256.919C1597.54 253.167 1595.33 253.09 1592.24 255.191C1583.32 261.259 1574.34 267.241 1565.31 273.159C1556.73 278.787 1546.95 280.232 1537.82 276.612C1532.42 274.47 1527.99 268.878 1524.15 264.021C1519.23 257.786 1519.4 257.727 1513.95 263.326C1508.24 269.193 1502.51 275.757 1495.43 279.373C1487.95 283.198 1479.3 284.934 1470.06 283.275C1460.37 281.534 1453.65 276.72 1449.99 268.27C1446.02 259.095 1445.03 249.275 1446.86 239.185C1448.31 231.201 1448.91 223.065 1450.03 215.016C1450.51 211.582 1448.11 210.224 1445.8 210.168C1441.6 210.067 1437.3 210.581 1433.2 211.518C1431.88 211.821 1430.63 214.112 1430.06 215.743C1425.54 228.628 1421.2 241.597 1413 252.761C1402.49 267.077 1390.13 279.204 1372.14 283.327C1354.2 287.437 1337.48 285.198 1323.91 271.36C1315.44 262.711 1311.51 251.783 1310.15 240.077C1309.34 233.178 1310.24 226.1 1309.96 219.119C1309.11 197.976 1314.15 177.992 1324.26 159.833C1336.15 138.478 1352.84 121.351 1376.94 113.753C1386.42 110.765 1396.57 108.243 1406.38 108.333C1427.35 108.526 1437.1 119.972 1437.93 140.854C1438.18 147.213 1433.27 152.065 1426.92 151.897C1422.95 151.792 1418.89 151.064 1415.07 149.928C1410.76 148.646 1407.77 145.87 1407.91 140.718C1407.94 139.511 1407.09 137.916 1406.13 137.199C1405.66 136.848 1403.6 137.802 1402.93 138.677C1397.19 146.111 1390.49 153.081 1386.23 161.304C1378.58 176.065 1371.83 191.371 1365.86 206.895C1362.14 216.57 1359.76 226.949 1358.29 237.228C1357.38 243.622 1358.03 251.007 1365.13 254.908C1366.38 255.594 1368.51 255.471 1369.93 254.928C1379.65 251.208 1387.34 244.979 1391.83 235.441C1395.15 228.378 1397.82 221.008 1401.09 213.919C1403.13 209.495 1401.27 205.955 1399.04 202.649C1392.68 193.26 1391.44 183.139 1394.27 172.419C1396.27 164.811 1404.24 158.588 1413.08 158.109C1418.28 157.827 1423.61 158.183 1428.75 159.035C1435.32 160.124 1438.2 165.31 1439.96 171.155C1440.98 174.528 1442.21 177.908 1442.65 181.372C1443.31 186.664 1446.75 186.748 1450.39 185.773C1460.39 183.091 1468.64 177.688 1473.79 168.493C1480.72 156.12 1484.82 142.816 1486.03 128.636C1486.54 122.626 1486.69 116.458 1488.29 110.723C1489.04 108.044 1492.66 104.618 1495.31 104.298C1504.73 103.163 1522.16 106.108 1528.15 117.847C1530.15 121.748 1531.69 126.327 1531.82 130.644C1532.16 142.223 1530.7 153.628 1525.36 164.219C1519.37 176.103 1513.73 188.173 1507.47 199.91C1501.2 211.671 1494.31 223.108 1487.76 234.723C1486.75 236.521 1485.71 238.444 1485.35 240.43C1485.05 242.029 1485.24 244.81 1486.14 245.28C1487.51 245.99 1489.99 245.701 1491.46 244.878C1502.53 238.683 1509.53 228.461 1515.84 218.078C1526.36 200.778 1535.99 182.937 1545.97 165.311C1550.16 157.903 1554.78 150.685 1558.32 142.973C1561.28 136.518 1564.4 129.789 1562.1 122.128C1560.9 118.13 1564.53 112.225 1568.9 111.041C1576.3 109.04 1583.78 109.16 1590.95 112.024C1600.33 115.774 1604.92 123.58 1605.85 133.01C1607.34 148.155 1605.69 163.006 1597.82 176.531C1586.98 195.153 1576.06 213.725 1565.19 232.328C1564.06 234.267 1562.79 236.184 1562.05 238.278C1561.56 239.694 1561.89 241.402 1561.85 242.979C1563.78 242.937 1566.15 243.608 1567.57 242.737C1576.84 237.061 1584.25 229.301 1590.72 220.67C1602.55 204.899 1612.64 188.053 1620.96 170.181C1632.66 145.022 1643.01 119.326 1651.01 92.7217C1651.98 89.5064 1653.11 86.3259 1654.39 83.2242C1655.73 79.9961 1655.12 78.1663 1651.39 77.8367C1649.8 77.6968 1648.24 77.0469 1646.67 77.0381C1634.33 76.9693 1621.99 76.7883 1609.67 77.0635C1598.8 77.3063 1589.77 81.4273 1582.74 90.2033C1581.15 92.1898 1576.71 93.273 1574.04 92.693C1570.02 91.8231 1567.48 88.201 1567.03 83.8405C1564.88 63.2029 1574.37 52.0274 1592.61 45.1636C1598.09 43.1052 1604.26 42.4104 1610.17 42.1089C1628.99 41.148 1647.85 40.8226 1666.67 39.9376C1677.17 39.4444 1680.82 35.1944 1680.99 24.4232C1681.05 20.5909 1680.91 16.7542 1681.02 12.9244C1681.2 6.76311 1684.42 3.56359 1690.62 2.95244C1692.36 2.60394 1699.82 2.15137 1702 2.5C1705 3 1704.54 3.1893 1707.08 4.00979C1711.3 5.37138 1716.05 5.97351 1719.6 8.35065C1729.11 14.7191 1731.26 24.8414 1730.81 35.4441C1730.67 38.6857 1731.42 40.1774 1734.1 41.0185C1741.41 43.3069 1748.57 41.7244 1755.58 39.6429C1756.98 39.2249 1758.49 37.2036 1758.88 35.6548C1760.18 30.3761 1761.57 25.0088 1761.85 19.6182C1762.21 13.0482 1761.15 6.31942 1767.46 1.70415C1767.61 1.94855 1767.47 1.6947 1767.46 1.70415C1770 0.5 1781.04 0.999993 1788.24 1.31637C1800.65 6.69486 1805.76 16.5288 1807.2 29.0637C1807.33 30.1815 1809.74 31.1852 1811.25 31.9573C1812.89 32.8008 1815.01 32.9269 1816.38 34.038C1821.62 38.3008 1821.53 44.235 1820.37 50.0665C1818.77 58.1974 1812.63 62.5642 1805.66 65.6464C1800.91 67.7464 1798.55 71.1949 1796.9 75.8786C1794.42 82.955 1791.3 89.8041 1788.7 96.8397C1787.71 99.5132 1787.39 102.436 1786.76 105.245C1789.73 105.076 1792.86 105.473 1795.62 104.64C1808.59 100.735 1819.87 103.491 1829.91 112.373C1836.3 118.033 1837.84 125.373 1839.31 133.503C1841.6 146.251 1837.84 157.902 1833.66 168.931C1826.07 188.975 1816.35 208.21 1807.67 227.848C1805.48 232.801 1803.92 238.029 1801.94 243.078C1800.85 245.843 1801.79 246.6 1804.16 245.29C1809.19 242.51 1814.82 240.242 1818.88 236.368C1836.72 219.317 1848.52 198.174 1858.01 175.673C1861.78 166.745 1867.36 163.816 1876 167C1878.5 169 1877.23 175.107 1876 182.5ZM1718.45 128.033C1723.3 114.643 1728.29 101.303 1732.94 87.8463C1736.72 76.9073 1736.54 77.0723 1724.77 76.8906C1719.92 76.8158 1718.26 79.5465 1717.04 83.2308C1716.24 85.656 1715.99 88.2896 1715 90.6175C1707.02 109.292 1699.59 128.242 1690.67 146.462C1681.92 164.331 1671.69 181.475 1661.99 198.872C1657.13 207.571 1651.83 216.02 1647.12 224.793C1645.27 228.25 1643.21 232.305 1647.93 237.151C1654.73 232.165 1662.59 228.237 1667.94 222.12C1680.27 208.028 1690.3 192.17 1697.96 174.989C1704.81 159.638 1711.36 144.153 1718.45 128.033Z"/>
<path d="M1143.05 380.069C1144.1 380.225 1141.6 379.402 1143.05 380.069C1132.92 378.572 1122.5 378.247 1112.7 375.585C1101.81 372.623 1091.24 368.088 1080.97 363.306C1067.77 357.163 1057.63 346.906 1049.14 335.384C1041.53 325.058 1038.4 313.009 1037.84 300.011C1037.18 284.593 1038.71 269.322 1043.77 255.096C1052.89 229.498 1070.69 211.747 1098.01 206.27C1112.28 203.409 1126.75 204.445 1141.18 208.687C1152.57 212.038 1162.15 217.365 1170.8 225.204C1179.57 233.146 1182.02 243.635 1184.26 254.542C1187.32 269.5 1181.67 283.888 1167.5 290.107C1157.64 294.433 1142.22 292.485 1135.69 286.282C1130.92 281.757 1132.23 276.977 1133.63 271.579C1136.01 262.447 1136.43 253.06 1132.57 244.212C1128.85 235.692 1116.68 229.272 1107.58 231.144C1101.39 232.417 1095.35 234.698 1089.44 237.021C1080.08 240.698 1073.98 248.104 1070.65 257.112C1067.56 265.477 1064.88 274.379 1064.28 283.199C1063.19 299.138 1070.27 313.128 1078.74 326.032C1086.83 338.36 1099.81 343.842 1113.62 346.885C1129.16 350.311 1144.63 347.729 1159.32 342.725C1168.45 339.616 1177.1 334.463 1185.1 328.962C1189.55 325.895 1192.85 320.579 1195.54 315.658C1198.96 309.41 1201.81 302.712 1203.85 295.893C1207.76 282.876 1209.27 269.605 1206.05 256.052C1202.33 240.393 1199.59 224.477 1195.28 208.991C1191.64 195.908 1185.82 183.444 1181.96 170.41C1176.81 153.018 1171.05 135.569 1168.46 117.723C1165.81 99.4854 1164.31 80.5169 1170.15 62.4007C1175.91 44.4904 1189.09 33.6547 1207.03 29.1399C1218.7 26.2037 1230.68 26.4196 1242.73 27.8181C1251.28 28.8099 1259.94 28.7049 1268.09 31.9875C1280.07 36.8177 1289.89 44.3919 1298.19 54.3658C1304.77 62.2697 1309.32 70.9656 1311.36 80.8953C1312.95 88.6735 1314.16 96.5679 1314.9 104.471C1315.67 112.679 1316.03 120.966 1315.88 129.206C1315.77 135.028 1314.9 140.916 1313.65 146.618C1312.07 153.872 1306.58 158.365 1298.22 158.891C1287.57 159.56 1277.15 157.848 1267.5 153.019C1261.57 150.054 1259.02 144.579 1260.81 138.589C1264.16 127.414 1268.67 116.51 1271.06 105.15C1273.14 95.2483 1275.66 84.3938 1267.83 75.4391C1258.13 64.3413 1244.04 64.1611 1235.09 76.7035C1229.01 85.2248 1227.14 94.8112 1230.45 104.814C1237.2 125.184 1244.39 145.404 1251.25 165.738C1254.99 176.823 1258.91 187.884 1261.87 199.187C1266.01 215.048 1270.42 230.972 1272.69 247.154C1274.82 262.444 1275.68 278.197 1274.61 293.571C1273.6 307.929 1268.83 321.736 1259.21 333.416C1247.49 347.65 1234.28 360.067 1217.15 367.175C1201.9 373.51 1186.57 380.317 1169.43 380.057C1170.14 379.263 1168.43 380.041 1169.43 380.057C1163.05 380.437 1150.2 380.069 1143.05 380.069Z"/>
</svg>
