<svg width="512" height="512" viewBox="0 0 512 512" fill="none" xmlns="http://www.w3.org/2000/svg">
<path fill-rule="evenodd" clip-rule="evenodd" d="M425.195 20.926C430.386 18.2768 435.027 15.908 437.136 14.7998C439.658 13.549 443.327 12.3822 446.292 12.4445C447.716 12.4745 448.592 12.7799 449.098 13.1132C449.492 13.3725 450.043 13.8836 450.42 15.2762C451.962 20.9628 451.421 24.5095 450.312 26.6044C449.272 28.5696 447.198 30.2615 443.273 31.1225C435.907 32.738 431.273 38.2763 428.291 42.8136C426.926 44.8903 425.738 47.0288 424.756 48.7964C424.689 48.9183 424.622 49.0384 424.556 49.1566C424.508 49.2428 424.461 49.328 424.414 49.4121C423.264 51.4757 422.541 52.6839 421.976 53.3603C421.625 53.7807 421.3 54.1833 420.986 54.5719C419.581 56.3101 418.401 57.7709 416.129 59.3169C413.443 61.1444 408.959 63.1945 400.804 64.5283C390.321 64.5076 383.46 71.758 379.42 76.9836C378.344 78.3752 377.388 79.731 376.576 80.8949L376.265 81.341C376.071 81.6187 375.889 81.8791 375.718 82.1239C370.312 78.36 362.411 72.9288 356.447 68.8293C355.391 68.1033 354.396 67.4191 353.486 66.7933L351.154 65.1553C350.982 65.0344 350.807 64.92 350.63 64.812C351.985 62.971 354.959 60.3687 359.554 57.4674C361.389 56.309 362.874 55.3269 364.325 54.3675C368.382 51.6849 372.169 49.1803 382.576 43.4983C385.347 41.9856 386.367 38.5133 384.854 35.7427C383.341 32.9721 379.869 31.9524 377.098 33.465C366.245 39.391 362.048 42.1664 357.915 44.8993C356.507 45.8306 355.106 46.757 353.452 47.8014C348.261 51.0782 343.557 54.8344 340.944 58.7161C339.639 60.655 338.382 63.3252 338.657 66.3842C338.661 66.4227 338.664 66.461 338.668 66.4993C338.389 66.8031 338.127 67.1285 337.883 67.4751L221.553 233.092C219.874 232.689 217.01 231.389 213.077 227.559C210.084 224.644 208.131 220.973 205.714 216.429L205.419 215.874C203.074 211.47 200.16 206.084 195.177 202.158C190.231 197.598 178.914 191.909 166.559 194.955C159.237 196.761 153.87 199.966 149.687 204.115C145.611 208.159 142.868 212.904 140.528 217.335C137.854 222.398 135.141 230.728 133.025 238.283C130.885 245.924 129.155 253.507 128.585 257.362C128.207 259.92 126.515 264.841 123.446 270.067C120.399 275.255 116.383 280.073 111.819 282.957C109.677 284.31 106.174 286.137 101.508 288.57C100.628 289.028 99.7076 289.508 98.747 290.01C92.8472 293.096 85.764 296.867 78.4821 301.262C64.094 309.945 48.1773 321.492 39.0998 335.739C35.3471 341.628 32.431 347.127 30.2141 352.335C28.9777 355.239 30.33 358.596 33.2344 359.833C36.1389 361.069 39.4957 359.717 40.732 356.812C42.6699 352.26 45.2769 347.317 48.7404 341.881C56.3173 329.99 70.2684 319.57 84.3886 311.049C91.3609 306.841 98.192 303.201 104.045 300.14C104.938 299.673 105.817 299.215 106.677 298.767C111.296 296.36 115.343 294.252 117.925 292.62C124.578 288.417 129.729 281.942 133.302 275.857C136.854 269.81 139.237 263.48 139.894 259.033C140.359 255.883 141.94 248.837 144.033 241.366C146.149 233.809 148.591 226.545 150.636 222.674C152.882 218.422 154.963 214.984 157.738 212.231C160.406 209.584 163.919 207.38 169.296 206.054C177.118 204.125 184.749 208.007 187.518 210.646C187.664 210.785 187.817 210.916 187.977 211.039C190.88 213.271 192.843 216.579 195.328 221.246C195.491 221.552 195.657 221.864 195.825 222.182C198.044 226.373 200.778 231.539 205.102 235.749C207.247 237.838 209.415 239.581 211.568 240.958C208.047 239.733 204.004 239.464 199.18 240.424C193.014 241.65 182.707 244.603 170.479 254.134C158.313 263.616 144.499 279.41 130.912 305.941C129.591 308.52 130.41 311.679 132.816 313.293L232.005 379.813C233.105 380.551 234.369 380.856 235.595 380.768C238.039 380.801 240.323 379.252 241.112 376.804C243.706 368.75 247.68 359.714 254.502 352.824C259.719 347.556 266.499 343.147 275.899 337.035L277.21 336.181C281.597 333.327 291.665 326.251 298.076 317.888C300.183 315.14 301.347 312.958 302.478 309.803C303.194 307.803 302.742 305.569 301.303 304.005C299.864 302.441 297.676 301.805 295.623 302.353C294.845 302.561 294.248 302.897 294.081 302.991L294.07 302.997C293.802 303.148 293.555 303.306 293.36 303.435C292.965 303.698 292.529 304.014 292.108 304.327C291.257 304.961 290.214 305.777 289.193 306.579L288.682 306.981L288.682 306.981C286.68 308.555 284.991 309.883 284.257 310.36C284.124 310.447 283.995 310.539 283.87 310.636C282.364 311.805 280.298 313.236 278.318 314.491C276.232 315.815 274.65 316.682 274.003 316.945C265.275 320.497 253.013 320.284 243.227 315.07C241.189 313.77 238.105 311.757 236.284 309.444C234.685 307.413 233.181 305.073 232.002 301.835L235.798 296.431C236.949 299.404 238.302 301.764 239.871 303.707C242.228 306.626 244.996 308.379 246.842 309.549C247.19 309.769 247.505 309.968 247.778 310.151C250.443 311.931 255.902 313.702 261.93 313.802C268.223 313.906 275.926 312.203 282.381 305.998C287.141 301.423 290.605 299.307 293.171 298.305C295.615 297.351 297.594 297.266 299.797 297.42C302.891 297.637 306.811 300.56 307.563 304.337C307.579 304.421 307.598 304.506 307.619 304.59C308.112 306.588 307.476 309.745 305.44 313.671C303.512 317.388 300.863 320.759 299.088 322.638C298.961 322.772 298.841 322.912 298.727 323.058C297.138 325.105 293.623 328.611 289.257 332.526C284.98 336.362 280.217 340.296 276.366 343.155C273.259 345.462 270.547 347.351 268.113 349.046C267.232 349.66 266.387 350.248 265.573 350.822C262.729 352.827 260.057 354.787 258.025 356.888C255.662 359.051 253.671 361.978 252.017 364.945C250.281 368.057 248.724 371.565 247.38 375.046C244.701 381.987 242.707 389.24 241.796 393.872C240.384 401.043 238.642 413.977 237.179 425.351C236.762 428.599 236.358 431.789 235.99 434.696L235.986 434.734C235.712 436.894 235.459 438.896 235.235 440.649C234.967 442.738 234.736 444.506 234.55 445.856C234.456 446.531 234.377 447.085 234.311 447.513C234.278 447.727 234.25 447.899 234.227 448.031C234.222 448.064 234.217 448.093 234.212 448.119L234.2 448.186C234.193 448.222 234.189 448.239 234.189 448.242C233.529 451.359 231.335 458.652 228.099 465.194C221.861 477.806 207.618 495.013 185.689 498.075C174.31 499.664 165.75 498.367 158.333 495.67C150.935 492.981 144.515 488.863 137.133 484.128L136.523 483.736C121.544 474.131 72.4191 439.921 59.6453 429.168C47.0389 418.557 39.7472 408.165 37.6933 397.839C36.4738 391.708 36.0121 389.092 35.8173 387.281C35.6806 386.01 35.6749 385.201 35.6636 383.61C35.6593 382.992 35.654 382.256 35.64 381.329C35.5922 378.173 32.9948 375.653 29.8385 375.701C26.6822 375.748 24.1622 378.346 24.21 381.502C24.2196 382.14 24.2235 382.728 24.2272 383.287C24.2391 385.11 24.2491 386.62 24.4516 388.504C24.7112 390.917 25.2851 394.054 26.4816 400.069C29.2596 414.035 38.7577 426.528 52.2836 437.914C65.642 449.159 115.274 483.69 130.353 493.359L131.332 493.988C138.42 498.538 145.806 503.279 154.428 506.414C163.632 509.76 174.078 511.238 187.27 509.397C214.482 505.597 231.263 484.582 238.346 470.262C242.037 462.799 244.53 454.591 245.372 450.61C245.622 449.429 246.058 446.119 246.573 442.101C246.807 440.278 247.062 438.264 247.335 436.104L247.338 436.08C247.701 433.211 248.096 430.085 248.517 426.809C249.995 415.317 251.689 402.8 253.012 396.08C253.791 392.12 255.596 385.505 258.044 379.163C259.265 376.003 260.604 373.016 262.001 370.513C263.436 367.939 264.752 366.203 265.815 365.256C265.935 365.149 266.051 365.036 266.161 364.919C267.321 363.695 269.155 362.283 272.159 360.166C272.891 359.65 273.682 359.098 274.529 358.509L274.533 358.506L274.534 358.505C276.997 356.79 279.921 354.753 283.181 352.333C287.37 349.222 292.408 345.055 296.888 341.037C301.17 337.198 305.269 333.206 307.581 330.292C309.937 327.763 313.15 323.632 315.587 318.935C317.962 314.356 320.203 308.09 318.749 301.982C316.847 292.747 308.302 286.556 300.595 286.017C297.363 285.79 293.55 285.886 289.014 287.657C284.599 289.38 279.892 292.534 274.459 297.757C270.722 301.349 266.238 302.44 262.119 302.372C260.049 302.338 258.149 302.007 256.641 301.589C255.89 301.382 255.27 301.162 254.806 300.968C254.375 300.788 254.167 300.668 254.132 300.648C254.127 300.645 254.126 300.644 254.129 300.646C253.533 300.248 253.009 299.91 252.54 299.607C250.838 298.508 249.853 297.872 248.765 296.526C247.462 294.912 245.841 291.904 244.529 285.308C244.465 284.987 244.375 284.677 244.262 284.38L377.214 95.1009C377.214 95.1005 377.214 95.1001 377.214 95.0997C377.24 95.0968 377.266 95.0937 377.291 95.0905C378.793 94.9041 379.927 94.2543 380.619 93.7677C381.92 92.8519 382.953 91.5683 383.624 90.692C384.275 89.8411 384.978 88.8317 385.65 87.8664C385.719 87.768 385.788 87.6698 385.855 87.5725L385.949 87.4389C386.747 86.2958 387.569 85.1328 388.464 83.9752C392.234 79.098 396.167 75.8316 401.067 75.9637C401.416 75.9731 401.765 75.9505 402.11 75.8963C411.743 74.3796 418.068 71.8242 422.56 68.7676C426.354 66.1859 428.645 63.3143 430.08 61.516C430.328 61.2056 430.55 60.9272 430.75 60.6878C432.134 59.0299 433.378 56.8107 434.4 54.9765C434.515 54.7695 434.63 54.5631 434.744 54.3573C435.749 52.55 436.727 50.7908 437.844 49.0922C440.404 45.1966 442.888 42.9099 445.722 42.2884C451.995 40.9125 457.404 37.6409 460.415 31.9522C463.357 26.3932 463.436 19.5957 461.453 12.2842C460.421 8.47744 458.336 5.50827 455.383 3.56479C452.543 1.69521 449.361 1.07525 446.532 1.01576C441.009 0.899612 435.415 2.8816 431.978 4.59788C431.958 4.6081 431.937 4.61844 431.917 4.62891C431.901 4.63689 431.886 4.64495 431.87 4.65308C430.137 5.56526 425.689 7.83694 420.573 10.4495C412.964 14.3357 403.878 18.9761 400.053 21.0179C397.268 22.5042 396.215 25.9667 397.702 28.7515C399.188 31.5364 402.651 32.589 405.435 31.1027C409.344 29.0166 417.82 24.6902 425.19 20.9286L425.195 20.926ZM346.137 75.6128C346.405 75.7973 346.682 75.9879 346.968 76.1842L366.764 90.0894L356.063 105.324L335.442 90.8392L346.137 75.6128ZM220.225 298.714L199.603 284.229L210.602 268.571L231.223 283.055L220.225 298.714ZM220.565 254.386L217.172 259.216L237.794 273.701L250.935 254.993L230.313 240.508L229.586 241.544C229.39 241.896 229.158 242.227 228.892 242.532L221.269 253.384C221.075 253.736 220.84 254.072 220.565 254.386ZM236.884 231.154L250.025 212.445L270.647 226.93L257.506 245.638L236.884 231.154ZM269.737 184.382L256.595 203.091L277.217 217.575L290.358 198.867L269.737 184.382ZM276.307 175.028L289.448 156.319L310.07 170.804L296.929 189.513L276.307 175.028ZM309.16 128.256L296.019 146.965L316.64 161.45L329.781 142.741L309.16 128.256ZM315.73 118.902L328.871 100.193L349.493 114.678L336.352 133.387L315.73 118.902ZM208.169 251.888C208.13 251.872 208.091 251.857 208.052 251.842C206.712 251.327 204.724 250.976 201.409 251.635C196.58 252.596 188.031 254.947 177.506 263.15C167.56 270.902 155.63 284.054 143.447 306.659L232.677 366.5C235.581 359.278 239.84 351.386 246.379 344.781C251.468 339.643 257.706 335.283 264.796 330.625C255.753 331.318 246.032 329.581 237.618 325.033C237.499 324.968 237.382 324.9 237.267 324.827C237.189 324.777 237.104 324.723 237.012 324.665C235.11 323.46 230.439 320.5 227.303 316.516C225.94 314.785 224.592 312.831 223.367 310.51C220.683 311.295 217.68 310.896 215.213 309.163L191.474 292.488C187.168 289.464 186.13 283.523 189.154 279.218L208.31 251.946C208.263 251.926 208.216 251.907 208.169 251.888Z" fill="#C46D5E"/>
<path d="M224.741 403.465C228.709 402.282 230.63 399.422 230.044 394.787C228.586 388.511 221.073 387.798 217.889 391.572C215.65 394.226 214.987 397.23 216.973 400.315C218.78 403.12 221.523 404.424 224.741 403.465Z" fill="#C46D5E"/>
<path d="M210.77 424.845C211.356 429.481 209.435 432.34 205.467 433.523C202.249 434.482 199.506 433.179 197.699 430.373C195.713 427.288 196.376 424.284 198.615 421.63C201.798 417.856 209.311 418.569 210.77 424.845Z" fill="#C46D5E"/>
<path d="M188.601 452.565C189.188 457.201 187.266 460.06 183.299 461.243C180.08 462.203 177.337 460.899 175.531 458.093C173.544 455.008 174.208 452.004 176.446 449.35C179.63 445.577 187.143 446.289 188.601 452.565Z" fill="#C46D5E"/>
<path d="M163.078 350.711C161.324 353.336 157.775 354.042 155.15 352.289L142.722 343.987C139.241 341.663 134.538 342.58 132.186 346.041L115.497 370.597C113.132 374.078 114.036 378.818 117.517 381.184L164.131 412.863C167.612 415.228 172.352 414.324 174.718 410.843L191.287 386.462C193.666 382.962 192.737 378.193 189.218 375.842L177.221 367.826C174.597 366.073 173.891 362.523 175.644 359.899C177.398 357.274 180.947 356.568 183.572 358.322L195.569 366.337C204.366 372.216 206.689 384.136 200.741 392.888L184.172 417.269C178.258 425.971 166.408 428.232 157.706 422.317L111.091 390.638C102.389 384.724 100.128 372.874 106.043 364.172L122.731 339.616C128.612 330.962 140.371 328.67 149.071 334.482L161.499 342.783C164.124 344.536 164.831 348.086 163.078 350.711Z" fill="#C46D5E"/>
</svg>
