<svg width="512" height="512" viewBox="0 0 512 512" fill="none" xmlns="http://www.w3.org/2000/svg">
<path d="M300.532 97.3225H299.792L299.841 97.1469C299.395 97.0574 298.933 97.0105 298.459 97.0105H299.879L301.408 91.5225C302.001 89.3933 302.588 87.2872 303.172 85.1931C303.774 83.0316 304.374 80.8828 304.975 78.7345C306.53 73.1792 305.274 69.5846 301.339 68.369C297.022 67.0354 293.835 69.3375 292.239 74.9342C292.138 75.29 292.036 75.6458 291.934 76.0013C291.733 76.7019 291.531 77.4022 291.329 78.1024C291.094 78.9132 290.859 79.7238 290.624 80.5343C289.28 85.1704 287.936 89.8065 286.722 94.4763C286.176 96.5751 285.387 97.3866 283.118 97.3746C265.379 97.2808 247.64 97.2881 229.902 97.3677C227.731 97.3774 226.784 96.7767 226.222 94.5736C224.912 89.4401 223.439 84.3477 221.967 79.2555L221.966 79.25L221.965 79.2489L221.949 79.1932C221.47 77.5359 220.991 75.8788 220.518 74.2201C219.682 71.2932 218.35 68.8153 214.966 68.2162C209.586 67.2638 205.987 71.6045 207.533 77.4639C208.725 81.9841 210.031 86.4745 211.373 91.09L211.374 91.0944L211.375 91.0977L211.376 91.0996L211.377 91.1024L211.378 91.1074L211.381 91.118C211.974 93.1572 212.574 95.2211 213.175 97.3225L208.324 97.3226C205.151 97.3235 201.978 97.3201 198.804 97.3167C190.752 97.308 182.7 97.2993 174.648 97.3604C170.609 97.3909 167.898 99.9951 167.714 103.609C167.536 107.1 170.208 110.079 174.075 110.555C175.096 110.68 176.135 110.664 177.172 110.647C177.524 110.642 177.877 110.636 178.228 110.636C203.913 110.637 229.599 110.637 255.284 110.637L300.719 110.638C303.476 109.698 305.459 107.086 305.459 104.01C305.459 100.866 303.386 98.2062 300.532 97.3225Z" fill="#C46D5E"/>
<path d="M442.766 321.773C442.765 329.572 440.612 336.075 436.684 340.896C434.25 342.678 430.842 342.737 428.317 340.819C425.836 338.934 424.965 335.717 425.943 332.927C428.244 330.435 429.449 326.848 429.45 322.283C429.459 256.593 429.46 190.904 429.449 125.214C429.447 115.728 424.34 110.647 414.792 110.646L397.716 110.643C394.95 109.708 392.959 107.092 392.959 104.01C392.959 100.896 394.993 98.2565 397.806 97.348C403.215 97.3038 408.624 97.2428 414.033 97.1603C431.119 96.8997 442.999 109.914 442.914 125.952C442.663 172.983 442.701 220.015 442.739 267.047L442.739 267.453C442.754 285.56 442.768 303.666 442.766 321.773Z" fill="#C46D5E"/>
<path d="M143.764 253.579C125.254 254.637 111.879 246.238 107.182 230.894C103.804 219.862 107.294 208.02 116.034 200.86C119.289 198.192 123.177 198.265 125.704 201.04C128.198 203.779 128.349 207.714 125.273 210.317C118.746 215.842 117.672 223.935 121.302 230.534C125.203 237.627 133.674 241.589 142.171 240.262C150.972 238.887 157.336 233.044 158.394 225.366C159.559 216.918 155.59 210.678 146.762 207.079C142.014 205.143 140.017 202.032 141.164 198.36C142.353 194.554 145.725 192.847 150.21 194.208C152.157 194.799 154.023 195.655 156.021 196.572C156.957 197.002 157.922 197.445 158.939 197.88V193.331C158.939 188.215 158.936 183.098 158.934 177.982C158.929 165.217 158.923 152.452 158.954 139.687C158.971 132.577 163.019 129.828 169.526 132.463C180.286 136.819 190.087 142.677 198.145 151.167C209.428 163.056 211.857 177.211 204.99 190.792C202.62 195.479 199.12 197.03 195.311 195.082C191.745 193.258 190.771 189.586 192.99 185.118C197.268 176.506 195.735 168.766 189.732 161.656C185.117 156.191 179.347 152.228 172.266 148.582V153.331C172.265 160.017 172.273 166.702 172.281 173.388V173.391C172.3 189.022 172.319 204.653 172.232 220.283C172.142 236.191 163.283 248.274 148.989 252.442C147.845 252.776 146.669 253.005 145.358 253.261L145.354 253.262C144.847 253.361 144.319 253.464 143.764 253.579Z" fill="#C46D5E"/>
<path d="M155.822 281.289L178.395 281.289C211.686 281.289 235.527 281.289 273.518 281.297C273.835 281.297 274.153 281.29 274.471 281.283C276.082 281.247 277.696 281.211 279.194 282.102C281.861 283.69 283.073 285.986 282.564 289.061C282.05 292.172 280.019 293.901 277.041 294.486C276.152 294.661 275.22 294.636 274.292 294.611L274.277 294.61L274.168 294.608L273.934 294.602C273.725 294.597 273.516 294.593 273.309 294.593C221.152 294.597 188.827 294.596 137.563 294.596H133.993C133.723 294.596 133.453 294.599 133.183 294.603L133.157 294.603C132.824 294.608 132.49 294.612 132.158 294.61C131.799 294.608 131.44 294.599 131.083 294.574C127.172 294.302 124.403 291.601 124.337 288.037C124.268 284.334 127.162 281.382 131.293 281.327C136.947 281.251 142.603 281.264 148.404 281.278H148.555C150.949 281.284 153.368 281.29 155.822 281.289Z" fill="#C46D5E"/>
<path d="M259.467 140.072C260.93 140.085 262.42 140.098 263.947 140.092H263.955C265.712 140.093 303.318 140.112 304.891 140.517C308.298 141.395 309.947 143.814 309.704 147.295C309.459 150.79 307.439 152.838 303.961 153.309C302.98 153.442 301.978 153.433 300.979 153.424L300.635 153.421L300.517 153.42L300.365 153.419L252.992 153.422C252.764 153.422 252.535 153.424 252.307 153.426H252.306C251.564 153.431 250.822 153.437 250.084 153.381C246.266 153.092 243.751 150.671 243.567 147.157C243.378 143.53 245.879 140.469 249.822 140.216C252.98 140.014 256.153 140.042 259.465 140.072H259.467Z" fill="#C46D5E"/>
<path d="M274.758 257.903H273.587C274.097 257.893 274.766 257.88 275.627 257.865C280 257.784 283.041 254.716 282.892 250.945C282.745 247.216 279.899 244.735 275.59 244.587C275.3 244.577 275.01 244.579 274.719 244.581L274.552 244.583L274.343 244.583L262.783 244.583C235.471 244.583 220.564 244.583 189.47 244.586C189.309 244.586 189.148 244.584 188.987 244.583L188.955 244.583C188.292 244.575 187.627 244.568 186.979 244.666C183.696 245.162 181.721 247.109 181.343 250.376C180.968 253.617 182.354 255.977 185.431 257.308C186.903 257.945 188.419 257.924 189.938 257.904L190.257 257.9C190.423 257.898 190.589 257.896 190.755 257.896C213.337 257.904 235.919 257.904 258.721 257.903L273.587 257.903C270.992 257.953 272.518 257.933 273.73 257.916L273.737 257.916L274.238 257.909C274.508 257.906 274.709 257.903 274.758 257.903Z" fill="#C46D5E"/>
<path d="M301.959 186.441C301.959 186.441 294.476 186.429 298.958 186.441L301.959 186.441Z" fill="#C46D5E"/>
<path d="M301.959 186.449L298.958 186.441L285.902 186.44C274.877 186.439 266.559 186.438 251.945 186.446C246.658 186.45 243.658 188.815 243.584 192.953C243.509 197.112 246.58 199.739 251.713 199.742C256.876 199.745 260.858 199.748 264.049 199.75L272.995 199.756C274.43 199.757 275.679 199.757 276.927 199.757L280.844 199.756C283.34 199.755 286.402 199.752 291.015 199.748L291.244 199.748L302.142 199.739C307.154 199.735 309.956 197.325 310.026 193.185C310.098 188.889 307.235 186.462 301.959 186.449Z" fill="#C46D5E"/>
<path d="M100.186 337.041L143.736 337.048C183.693 337.054 223.543 337.06 263.364 337.068C266.803 337.512 269.459 340.451 269.459 344.01C269.459 346.82 267.804 349.244 265.415 350.358C264.52 350.357 263.623 350.356 262.724 350.355C262.024 350.355 261.322 350.354 260.619 350.354C257.497 350.354 254.391 350.354 251.298 350.353L251.005 350.353C238.269 350.349 225.745 350.346 213.222 350.397C212.956 350.398 212.664 350.353 212.364 350.306C211.342 350.147 210.235 349.975 209.788 351.592C208.275 357.071 206.747 362.546 205.211 368.048L205.19 368.122L205.173 368.185C204.604 370.224 204.034 372.266 203.463 374.313C203.771 374.373 204.02 374.43 204.232 374.479C204.469 374.533 204.659 374.577 204.833 374.601C204.929 374.614 205.019 374.622 205.11 374.622C213.775 374.626 222.439 374.627 231.104 374.628H231.399C239.716 374.629 248.032 374.63 256.349 374.633C258.773 375.733 260.459 378.175 260.459 381.01C260.459 384.61 257.742 387.575 254.247 387.967C237.477 387.968 220.707 387.957 203.937 387.947L202.82 387.946C200.913 387.945 199.566 387.97 198.919 390.445C196.481 399.774 193.831 409.049 191.182 418.322L191.135 418.487C190.801 419.654 190.468 420.821 190.135 421.988C189.537 424.084 189.839 425.147 192.313 424.924C193.823 424.787 195.366 424.837 196.88 424.968C200.645 425.293 202.764 427.624 202.93 431.173C203.097 434.732 201.175 437.462 197.466 437.867C194.379 438.204 191.252 438.201 188.129 438.197C187.233 438.196 186.336 438.195 185.442 438.202L184.994 438.206H184.983C179.593 438.248 174.2 438.291 168.812 438.184C163.97 438.087 160.9 435.378 160.899 431.475C160.898 427.514 163.92 425 168.811 424.896C175.65 424.749 175.652 424.745 177.415 418.361L177.429 418.313C177.844 416.811 178.258 415.309 178.673 413.807C179.546 410.643 180.418 407.48 181.29 404.316L181.299 404.283L181.302 404.274L181.302 404.271C185.849 387.774 190.396 371.277 195.074 354.816C196.061 351.341 196.025 350.224 191.806 350.251C166.853 350.407 141.898 350.386 116.943 350.364L116.723 350.364C110.847 350.359 104.97 350.354 99.0943 350.351C80.9561 350.343 70.1548 339.544 70.1537 321.442C70.1526 303.514 70.1682 285.586 70.184 267.658V267.649C70.2254 220.445 70.2668 173.241 70.0005 126.039C69.9086 109.725 82.0116 96.5691 98.7974 97.1953C109.424 97.5917 120.068 97.5026 130.713 97.4135C136.01 97.369 141.308 97.3247 146.604 97.3402C152.079 97.3562 155.462 101.161 154.027 105.722C152.792 109.644 149.636 110.668 145.839 110.657C132.685 110.62 119.531 110.629 106.377 110.637H106.287C103.811 110.638 101.335 110.64 98.8587 110.641C88.3076 110.646 83.4676 115.523 83.4672 126.145C83.4651 182.006 83.4656 237.867 83.4661 293.728L83.4662 320.718C83.4663 332.396 88.08 337.009 100.186 337.041Z" fill="#C46D5E"/>
<path d="M332.692 363.786L333.028 363.787H333.067C348.043 363.797 362.875 363.808 377.707 363.7C380.767 363.678 381.553 364.512 381.501 367.533L381.495 367.903C381.341 377.028 381.341 377.031 371.834 377.031C367.276 377.031 362.717 377.023 358.159 377.015C345.257 376.992 332.356 376.97 319.456 377.127C315.899 377.171 314.986 376.077 315.356 372.8C315.547 371.12 315.495 369.41 315.444 367.703C315.435 367.395 315.425 367.087 315.418 366.78C315.41 366.471 315.403 366.162 315.4 365.854C315.387 364.747 315.431 363.749 317.274 363.781C322.434 363.779 327.572 363.783 332.692 363.786Z" fill="#C46D5E"/>
<path fill-rule="evenodd" clip-rule="evenodd" d="M331.339 270.97C340.396 263.903 350.093 262.58 360.09 267.481C369.672 272.178 374.58 280.363 374.704 291.112C374.841 302.85 367.031 313.107 355.734 316.431C344.376 319.773 332.266 315.059 326.002 304.857C319.857 294.848 321.05 282.001 328.943 273.336C329.44 272.792 329.973 272.281 330.58 271.7L330.87 271.423C330.977 271.321 331.085 271.216 331.197 271.108L331.339 270.97ZM359.432 298.265C354.181 304.556 347.572 305.993 341.615 302.352C336.018 298.932 333.733 291.881 336.278 285.89C339.159 279.109 347.327 275.975 353.984 279.096C361.086 282.425 363.423 290.32 359.432 298.265Z" fill="#C46D5E"/>
<path fill-rule="evenodd" clip-rule="evenodd" d="M327.942 440.712C331.016 441.264 334.124 441.821 337.183 443.01C338.052 443.01 338.631 443.01 339.421 442.841C339.83 442.817 340.229 442.764 340.625 442.712C341.791 442.559 342.925 442.409 344.199 443.01C347.663 443.01 350.77 443.01 354.126 442.833C354.853 442.651 355.544 442.654 356.235 442.657C357.11 442.66 357.985 442.663 358.935 442.293C369.39 441.57 378.99 438.839 388.079 434.428C423.526 417.227 431.73 380.85 425.608 356.549C422.57 344.491 415.874 334.212 409.024 324.073C404.904 317.975 401.509 311.526 398.611 304.759C396.714 300.33 396.749 296.065 398.309 291.635C399.985 286.873 401.251 282.007 401.026 276.901C400.084 255.583 389.986 240.118 371.217 230.257L371.159 230.226C371.076 230.183 370.994 230.141 370.912 230.1C370.824 230.056 370.736 230.012 370.649 229.969L370.647 229.969L370.646 229.968C369.298 229.301 368.144 228.729 368.152 226.564C368.24 202.317 368.227 178.069 368.215 153.822L368.209 141.798C368.208 140.317 368.238 139.247 370.159 138.688C373.77 137.638 375.053 134.772 374.67 131.151C374.62 130.678 374.572 130.204 374.524 129.73L374.518 129.672V129.671C374.269 127.211 374.02 124.744 373.498 122.341C372.971 119.913 373.524 119.258 376.034 119.302C381.416 119.396 381.418 119.249 381.418 113.791V112.243C381.418 106.167 381.387 105.789 375.402 106.286C371.287 106.627 371.132 104.35 370.948 101.662L370.939 101.529C370.76 98.9326 372.097 99.178 373.412 99.4192C373.987 99.5249 374.559 99.6296 374.997 99.495C375.937 99.2057 377.056 99.3182 378.064 99.464C380.772 99.8556 381.851 98.7793 381.436 96.0717C381.357 95.5532 381.378 95.0193 381.399 94.4854C381.409 94.2405 381.418 93.9955 381.418 93.7521C381.418 86.2224 381.407 85.9722 374.106 86.3208C370.083 86.5129 368.503 85.5684 368.354 81.2391C368.134 74.8992 365.67 73.0338 359.223 73.0267C357.616 73.025 356.01 73.0223 354.404 73.0197C348.42 73.0096 342.435 72.9996 336.451 73.0377C331.476 73.0695 329.153 75.1774 328.502 80.0874C328.35 81.2373 328.221 82.3958 328.18 83.5537C328.106 85.6234 327.196 86.5592 325.052 86.2468C324.358 86.1458 323.646 86.1719 322.934 86.1981C322.724 86.2058 322.513 86.2135 322.303 86.218C322.191 86.2203 322.079 86.2218 321.968 86.2218C318.716 86.2219 317.078 86.2219 316.252 87.0435C315.413 87.8779 315.413 89.5599 315.413 92.9503V92.9518C315.412 96.2073 315.412 97.8285 316.22 98.6364C317.022 99.4379 318.62 99.4387 321.803 99.4404L321.858 99.4406C324.15 99.4417 325.285 99.4423 325.745 100.001C326.197 100.55 326 101.635 325.611 103.784L325.557 104.081C325.27 105.668 324.794 106.299 323.156 106.187C321.71 106.088 320.255 106.114 318.801 106.141L318.766 106.142C318.3 106.15 317.834 106.158 317.369 106.163L317.317 106.163L317.228 106.163H317.159C316.322 106.161 315.412 106.16 315.446 107.402C315.479 108.611 315.388 109.851 315.298 111.089C315.101 113.785 314.905 116.47 315.987 118.804C316.474 119.857 318.139 119.691 319.899 119.516C320.94 119.413 322.014 119.306 322.898 119.446C323.054 119.471 323.198 119.568 323.346 119.667C323.416 119.714 323.487 119.762 323.56 119.802C323.421 120.995 323.279 122.186 323.137 123.378L323.137 123.381C322.807 126.152 322.477 128.924 322.189 131.7C321.876 134.704 322.968 137.374 325.789 138.286C328.358 139.116 328.639 140.433 328.633 142.73C328.563 170.34 328.549 197.951 328.65 225.56C328.659 228.14 327.857 229.252 325.52 230.378C299.976 242.684 290.224 272.515 298.716 292.138C300.585 296.455 299.875 300.84 298.107 305.254C295.102 312.756 290.757 319.446 286.411 326.138L286.405 326.146C284.807 328.607 283.208 331.069 281.675 333.572C275.861 343.068 270.79 352.943 269.779 364.246C266.61 399.687 287.234 429.41 321.418 439.307C323.555 439.926 325.74 440.318 327.942 440.712ZM290.14 345.238C279.646 363.163 280.485 381.237 289.773 399.624C294.478 407.842 300.438 414.616 308.441 419.106C334.3 433.613 360.777 434.055 386.705 420.036C407.525 408.78 418.114 384.005 413.238 361.436C410.86 350.433 404.663 341.244 398.504 332.113L397.996 331.36C393.38 324.511 389.568 317.275 386.334 309.677C383.134 302.16 383.146 294.701 385.867 287.115C387.044 283.833 387.903 280.494 387.877 276.952C387.695 252.716 364.342 234.005 340.666 238.98C315.153 244.34 303.464 271.455 311.366 288.822C314.203 295.059 313.593 301.849 310.965 308.4C307.79 316.312 303.896 323.792 299.162 330.872C296.02 335.571 292.996 340.36 290.14 345.238ZM354.989 163.524V163.578C354.976 182.774 354.964 201.809 355.074 220.843C355.094 224.352 354.671 226.266 350.634 225.129C349.867 224.913 349.017 224.956 348.183 224.999C348.049 225.006 347.916 225.012 347.783 225.018C347.711 225.021 347.638 225.024 347.566 225.026L347.541 225.027C341.777 225.209 341.776 225.209 341.776 219.168C341.776 213.118 341.78 207.069 341.783 201.019C341.795 181.686 341.806 162.353 341.696 143.021C341.677 139.721 342.65 138.618 345.786 139.076C346.563 139.19 347.361 139.16 348.158 139.13H348.16C348.525 139.116 348.889 139.102 349.251 139.102C352.085 139.101 353.521 139.101 354.249 139.821C354.996 140.56 354.996 142.059 354.996 145.096V145.097C354.996 151.259 354.993 157.4 354.989 163.524ZM338.78 105.01C338.713 105.554 338.645 106.099 338.578 106.646C338.474 107.485 338.371 108.328 338.268 109.177C338.075 110.632 337.892 112.059 337.712 113.466C337.264 116.962 336.831 120.333 336.314 123.691C336.038 125.49 336.657 125.909 338.321 125.893C345.007 125.829 351.694 125.819 358.38 125.897C360.282 125.92 360.716 125.416 360.448 123.439C359.147 113.867 358.011 104.271 356.881 94.6753L356.868 94.5659C355.886 86.2349 355.886 86.2305 347.274 86.2305C347.184 86.2305 347.095 86.2308 347.005 86.2316L346.817 86.2334C346.572 86.2363 346.327 86.241 346.082 86.2457C345.192 86.2627 344.302 86.2797 343.418 86.2114C341.706 86.0793 340.921 86.5984 340.726 88.4929C340.215 93.4565 339.6 98.4093 338.968 103.497L338.78 105.01Z" fill="#C46D5E"/>
</svg>
