<svg width="512" height="512" viewBox="0 0 512 512" fill="none" xmlns="http://www.w3.org/2000/svg">
<path d="M327.268 111.91C329.81 111.911 331.991 111.882 334.171 111.918C341.366 112.036 345.923 116.085 346.923 123.211C348.167 132.076 349.41 140.942 350.674 149.805C350.856 151.08 351.153 152.34 351.385 153.545C353.117 153.466 352.73 152.364 352.804 151.643C354.269 137.314 355.784 122.989 357.11 108.646C357.706 102.202 359.524 96.7411 366.36 94.5204C374.017 92.0328 381.513 96.6084 383.243 104.827C384.389 110.268 385.506 115.718 386.458 121.195C386.817 123.26 387.626 123.886 389.754 123.851C398.231 123.709 406.712 123.873 415.19 123.741C417.519 123.705 418.245 124.28 418.243 126.721C418.233 135.94 418.331 135.94 409.163 135.94C402.259 135.94 395.354 135.967 388.45 135.932C381.114 135.895 376.666 132.325 375.123 125.195C373.921 119.642 372.823 114.068 371.69 108.5C371.502 107.577 371.648 106.236 370.44 106.181C368.938 106.113 369.465 107.582 369.38 108.405C367.919 122.492 366.516 136.584 365.063 150.672C364.84 152.832 364.674 155.045 364.065 157.111C362.454 162.57 357.149 166.085 351.284 165.837C345.729 165.602 340.642 161.679 339.671 156.105C337.989 146.456 336.592 136.751 335.384 127.031C335.043 124.294 334.096 123.68 331.543 123.752C325.249 123.928 318.945 123.744 312.648 123.847C310.676 123.879 309.957 123.422 309.914 121.258C309.729 111.908 309.647 111.91 318.91 111.91C321.575 111.91 324.24 111.91 327.268 111.91Z" fill="#C46D5E"/>
<path d="M406.082 182.029C405.523 178.688 406.68 177.525 409.761 177.938C412.486 178.302 416.153 176.797 417.745 178.573C419.091 180.076 418.164 183.651 418.174 186.31C418.197 192.73 418.12 199.152 418.219 205.571C418.248 207.412 417.788 207.994 415.834 208.044C406.08 208.29 406.082 208.358 406.082 198.722C406.082 193.27 406.082 187.819 406.082 182.029Z" fill="#C46D5E"/>
<path d="M346.142 182.598C346.142 190.22 346.048 197.488 346.195 204.75C346.244 207.126 345.858 208.088 343.136 208.062C333.994 207.976 333.993 208.099 333.993 198.854C333.993 193.284 334.261 187.696 333.898 182.15C333.657 178.451 334.977 177.437 338.339 177.948C339.523 178.128 340.787 178.15 341.962 177.944C345.554 177.317 346.793 178.821 346.142 182.598Z" fill="#C46D5E"/>
<path d="M390.51 177.977C393.573 177.462 394.313 178.523 394.242 181.27C394.036 189.254 394.082 197.248 394.225 205.235C394.266 207.478 393.673 208.043 391.425 208.049C382.049 208.076 382.049 208.162 382.049 198.723C382.049 192.912 382.212 187.095 381.979 181.294C381.866 178.489 382.758 177.606 385.437 177.941C386.986 178.135 388.58 177.977 390.51 177.977Z" fill="#C46D5E"/>
<path d="M360.156 177.978C363.616 178.157 367.688 176.66 369.58 178.561C371.479 180.468 370.086 184.537 370.131 187.655C370.217 193.587 370.063 199.524 370.205 205.454C370.256 207.572 369.538 208.008 367.547 208.037C358.018 208.178 358.019 208.24 358.019 198.871C358.019 192.816 358.011 186.761 358.027 180.706C358.03 179.44 357.613 177.841 360.156 177.978Z" fill="#C46D5E"/>
<path d="M309.968 184.763C309.968 177.976 309.968 177.976 316.403 177.977C322.127 177.977 322.127 177.977 322.127 183.611C322.127 190.877 322.051 198.144 322.176 205.408C322.211 207.487 321.613 208.181 319.541 208.026C317.253 207.855 314.926 207.812 312.646 208.034C310.214 208.271 309.891 207.178 309.927 205.102C310.04 198.443 309.968 191.782 309.968 184.763Z" fill="#C46D5E"/>
<path d="M250.048 155.598C250.049 147.81 250.059 148.046 257.562 147.711C261.285 147.545 262.184 148.622 262.044 152.238C261.745 159.955 261.948 159.787 254.066 160.043C250.766 160.151 249.44 159.237 250.048 155.598Z" fill="#C46D5E"/>
<path d="M250.54 172.083C253.834 171.872 256.847 171.915 259.856 171.814C261.393 171.763 262.128 172.268 261.956 173.858C261.917 174.215 261.947 174.58 261.952 174.942C262.083 184.81 261.739 185.07 251.758 184.025C250.224 183.865 249.999 183.265 250.039 182.011C250.143 178.768 250.188 175.523 250.54 172.083Z" fill="#C46D5E"/>
<path d="M261.952 201.488C261.951 207.986 261.951 207.986 255.767 207.986C250.049 207.986 250.049 207.986 250.048 202.098C250.048 195.868 250.048 195.868 256.241 195.868C256.362 195.868 256.482 195.868 256.603 195.868C261.951 195.868 261.951 195.868 261.952 201.488Z" fill="#C46D5E"/>
<path d="M177.976 198.863C177.976 198.295 177.883 197.995 177.991 197.821C180.654 193.527 184.779 196.851 188.127 195.941C190.256 195.363 189.854 197.307 189.891 198.549C190.181 208.287 190.178 208.204 180.456 208.05C178.275 208.016 177.811 207.276 177.944 205.344C178.086 203.301 177.976 201.241 177.976 198.863Z" fill="#C46D5E"/>
<path d="M177.977 178.191C177.977 171.838 177.977 171.838 184.068 171.838C189.896 171.838 189.896 171.838 189.896 177.698C189.896 183.974 189.896 183.974 183.469 183.974C177.977 183.973 177.977 183.973 177.977 178.191Z" fill="#C46D5E"/>
<path d="M177.977 157.025C177.977 147.664 177.977 147.764 186.991 147.745C189.445 147.74 189.95 148.504 189.953 150.809C189.963 160.505 190.043 160.42 180.179 160.026C178.022 159.94 177.815 159.006 177.977 157.025Z" fill="#C46D5E"/>
<path d="M114.076 171.838C116.931 171.439 117.983 172.113 117.936 175.04C117.79 184.061 117.935 183.954 108.978 184.042C106.386 184.068 105.463 183.299 105.872 180.815C105.93 180.462 105.88 180.091 105.88 179.729C105.876 171.838 105.876 171.838 114.076 171.838Z" fill="#C46D5E"/>
<path d="M109.265 159.96C106.691 160.308 105.82 159.614 105.811 157.103C105.777 147.266 105.675 147.314 115.603 147.765C117.303 147.843 118.086 148.251 117.863 150.017C117.788 150.612 117.851 151.225 117.851 151.83C117.859 159.96 117.859 159.96 109.265 159.96Z" fill="#C46D5E"/>
<path d="M105.88 200.177C105.383 196.834 106.259 195.649 109.68 195.769C117.852 196.057 117.71 195.854 117.929 204.112C118.011 207.188 117.367 208.674 114.075 207.993C113.844 207.945 113.593 207.986 113.352 207.986C105.88 207.987 105.88 207.987 105.88 200.177Z" fill="#C46D5E"/>
<path fill-rule="evenodd" clip-rule="evenodd" d="M363.152 416.977C402.577 408.098 418.944 363.298 394.455 330.645C383.241 316.965 368.898 309.854 351.573 310.122C318.115 310.641 294.03 339.492 298.822 372.625C303.17 402.685 333.565 423.64 363.152 416.977ZM343.504 323.083C330.642 326.113 321.013 333.304 314.721 345.282C307.425 360.619 308.466 375.24 318.203 388.708C327.975 402.224 341.751 407.754 358.204 405.631C378.007 403.075 393.24 385.922 394.09 365.926C394.94 345.919 381.315 328.163 361.659 323.358C358.749 322.647 357.909 322.911 357.971 326.107C358.109 333.169 358.085 340.235 358.06 347.3C358.051 350.047 358.041 352.794 358.041 355.541C358.041 364.11 358.039 364.11 349.809 364.247C349.689 364.249 349.566 364.251 349.442 364.253C346.687 364.299 346.022 363.557 346.058 360.841C346.147 354.242 346.142 347.642 346.138 341.042C346.134 335.771 346.13 330.5 346.174 325.23C346.192 323.017 345.585 322.592 343.504 323.083Z" fill="#C46D5E"/>
<path fill-rule="evenodd" clip-rule="evenodd" d="M153.959 253.093V258.909C153.959 267.94 153.957 268.088 145.057 267.95C142.128 267.905 141.77 268.95 141.796 271.476C141.888 280.325 141.875 289.174 141.861 298.024C141.857 301.174 141.852 304.324 141.852 307.474C141.852 316.072 141.854 316.2 150.419 316.05C153.29 315.999 154.036 316.794 154.025 319.661C153.941 343.207 153.948 366.753 153.955 390.299C153.957 396.812 153.959 403.326 153.959 409.839C153.959 418.069 153.962 418.069 162.017 418.237L162.388 418.245C165.201 418.304 165.955 417.597 165.944 414.724C165.843 388.879 165.859 363.033 165.875 337.188C165.878 333.337 165.88 329.487 165.882 325.636C165.883 324.784 165.805 323.863 165.726 322.937C165.528 320.592 165.327 318.216 166.388 316.832C167.528 315.347 169.946 315.652 172.315 315.952C173.242 316.069 174.162 316.185 174.994 316.192C177.372 316.214 178.078 315.539 178.053 313.12C177.962 304.153 177.975 295.185 177.988 286.216C177.992 283.064 177.997 279.911 177.997 276.759C177.997 272.384 177.997 270.212 176.911 269.129C175.839 268.06 173.71 268.051 169.479 268.034C169.404 268.034 169.329 268.03 169.253 268.027C169.084 268.018 168.915 268.01 168.753 268.04C166.204 268.508 165.781 267.214 165.828 264.978C165.897 261.676 165.889 258.373 165.88 255.07C165.872 252.191 165.865 249.312 165.909 246.434C165.937 244.613 165.506 243.965 163.524 243.893C158.736 243.72 156.344 243.617 155.15 244.762C153.958 245.904 153.959 248.29 153.959 253.093ZM157.679 279.955C156.556 280.084 155.425 280.213 154.356 280.255C154.034 285.284 153.904 290.111 154.009 294.934C154.029 295.834 153.907 296.836 153.786 297.838C153.509 300.126 153.232 302.414 154.629 303.507C155.863 304.473 157.94 304.314 160.064 304.152C161.197 304.065 162.344 303.978 163.383 304.06C165.546 304.23 165.986 303.362 165.905 301.405C165.829 299.597 165.847 297.784 165.864 295.972C165.88 294.284 165.896 292.595 165.837 290.91C165.798 289.782 165.942 288.522 166.085 287.266C166.396 284.547 166.703 281.852 165.145 280.579C163.56 279.285 160.646 279.617 157.679 279.955Z" fill="#C46D5E"/>
<path fill-rule="evenodd" clip-rule="evenodd" d="M129.921 359.323C129.93 359.061 129.939 358.771 129.939 358.441C129.939 355.333 129.943 352.25 129.946 349.187C129.956 341.043 129.965 333.033 129.907 325.024C129.901 324.182 130.008 323.271 130.116 322.358C130.375 320.155 130.636 317.935 129.318 316.627C127.983 315.302 125.43 315.649 123.069 315.97C122.437 316.056 121.819 316.14 121.242 316.19C118.132 316.457 117.781 315.108 117.794 312.482C117.865 297.244 117.857 282.005 117.849 266.766C117.847 262.019 117.845 257.271 117.845 252.524C117.845 243.993 117.843 243.993 109.6 243.883C109.482 243.881 109.363 243.88 109.242 243.878C106.486 243.841 105.815 244.623 105.831 247.326C105.934 264.9 105.912 282.474 105.891 300.049C105.888 302.339 105.885 304.63 105.882 306.92C105.881 307.725 105.952 308.597 106.024 309.476C106.208 311.752 106.396 314.07 105.352 315.356C104.104 316.893 101.692 316.579 99.3344 316.273C98.4335 316.156 97.5404 316.039 96.723 316.028C94.2928 315.994 93.7498 316.751 93.7723 319.07C93.8487 326.954 93.8416 334.838 93.8345 342.723C93.8309 346.709 93.8274 350.695 93.8346 354.681C93.8361 355.547 93.7544 356.485 93.6722 357.428C93.4684 359.766 93.2624 362.13 94.3206 363.493C95.4828 364.991 97.9677 364.666 100.379 364.35C101.273 364.233 102.157 364.118 102.959 364.097C105.472 364.031 105.955 364.922 105.94 367.213C105.848 381.263 105.857 395.315 105.925 409.365C105.929 410.2 105.818 411.124 105.707 412.053C105.439 414.298 105.167 416.565 106.507 417.639C107.669 418.571 109.649 418.429 111.679 418.284C112.79 418.205 113.915 418.124 114.93 418.217C117.333 418.438 117.919 417.608 117.9 415.249C117.787 401.078 117.819 386.906 117.867 372.734C117.87 371.93 117.768 371.042 117.666 370.151C117.419 367.987 117.169 365.803 118.401 364.747C119.771 363.574 122.554 363.859 125.024 364.113C125.504 364.162 125.972 364.21 126.415 364.246C129.365 364.485 130.4 363.427 129.953 360.606C129.892 360.219 129.905 359.821 129.921 359.323ZM105.921 339.328C105.914 340.617 105.908 341.927 105.908 343.269C105.908 347.751 105.908 349.948 107.006 351.022C108.061 352.056 110.131 352.053 114.19 352.047C114.34 352.047 114.491 352.041 114.642 352.035C114.976 352.023 115.311 352.01 115.637 352.057C117.354 352.303 117.928 351.646 117.877 349.879C117.789 346.875 117.807 343.869 117.824 340.862C117.831 339.644 117.838 338.427 117.838 337.21C117.838 332.381 117.838 329.973 116.636 328.823C115.427 327.668 113.002 327.785 108.138 327.993C106.43 328.067 105.827 328.476 105.873 330.236C105.951 333.223 105.936 336.211 105.921 339.328Z" fill="#C46D5E"/>
<path fill-rule="evenodd" clip-rule="evenodd" d="M237.924 311.987C237.92 315.349 237.916 318.728 237.916 322.132C237.916 325.168 237.916 326.644 238.654 327.361C239.351 328.039 240.707 328.039 243.346 328.04C243.688 328.04 244.032 328.054 244.376 328.069C245.13 328.101 245.884 328.134 246.612 328.011C249.614 327.506 250.127 328.881 250.116 331.608C250.018 357.534 250.035 383.461 250.089 409.387C250.091 410.213 249.981 411.128 249.87 412.047C249.598 414.3 249.323 416.582 250.686 417.663C251.839 418.578 253.783 418.434 255.784 418.287C256.919 418.203 258.072 418.118 259.108 418.224C261.684 418.487 261.998 417.361 261.987 415.155C261.925 402.517 261.931 389.879 261.938 377.241C261.94 373.281 261.942 369.321 261.942 365.362C261.942 362.389 261.946 359.417 261.95 356.445C261.962 347.908 261.974 339.37 261.889 330.834C261.867 328.605 262.428 327.8 264.707 327.997C265.951 328.104 267.205 328.079 268.46 328.054C269.511 328.034 270.562 328.013 271.608 328.07C273.405 328.167 274.142 327.734 274.13 325.711C274.043 311.294 274.053 296.877 274.122 282.46C274.131 280.613 273.72 279.833 271.729 279.969C270.55 280.05 269.364 280.027 268.177 280.004C266.937 279.98 265.697 279.956 264.466 280.05C262.299 280.216 261.875 279.345 261.899 277.36C261.974 271.335 261.963 265.309 261.951 259.283C261.947 257.071 261.942 254.858 261.942 252.646C261.942 248.252 261.942 246.065 260.848 244.975C259.744 243.875 257.524 243.896 253.061 243.896C250.744 243.896 249.943 244.417 249.995 246.894C250.131 253.338 250.1 259.786 250.069 266.234C250.061 267.783 250.054 269.332 250.048 270.881C250.046 271.714 250.125 272.623 250.206 273.537C250.403 275.793 250.604 278.076 249.572 279.307C248.303 280.823 245.808 280.492 243.401 280.173C242.549 280.06 241.708 279.948 240.936 279.92C238.205 279.821 237.842 280.867 237.863 283.25C237.946 292.78 237.935 302.311 237.924 311.987ZM250.077 308.475C250.073 310.516 250.069 312.579 250.072 314.673C251.739 316.501 253.644 316.302 255.544 316.105C256.555 316 257.563 315.895 258.534 316.095C261.103 316.624 262.213 315.732 262.007 312.854C261.813 310.161 261.857 307.451 261.901 304.741C261.919 303.577 261.938 302.413 261.938 301.251C261.938 296.504 261.939 294.153 260.763 293.01C259.589 291.867 257.24 291.933 252.542 292.022C250.371 292.063 249.995 292.824 250.024 294.743C250.093 299.281 250.085 303.82 250.077 308.475Z" fill="#C46D5E"/>
<path fill-rule="evenodd" clip-rule="evenodd" d="M201.253 351.254C200.47 352.049 198.88 352.049 195.65 352.048C189.882 352.049 189.882 352.049 189.882 357.619C189.882 360.648 189.88 363.678 189.879 366.707C189.876 374.941 189.873 383.175 189.893 391.409C189.895 392.177 189.829 393.008 189.763 393.844C189.591 396.015 189.417 398.224 190.413 399.466C191.395 400.69 193.376 400.469 195.399 400.243C196.415 400.13 197.44 400.015 198.355 400.082C198.837 400.117 199.33 400.14 199.807 400.079C201.602 399.849 202.076 400.699 202.042 402.381C202.005 404.21 202.019 406.041 202.033 407.872C202.052 410.403 202.071 412.933 201.956 415.458C201.851 417.76 202.579 418.465 204.788 418.199C205.853 418.071 207.049 418.204 208.223 418.334C210.316 418.567 212.341 418.792 213.443 417.518C214.427 416.381 214.243 414.253 214.058 412.102C213.969 411.07 213.88 410.033 213.918 409.098C213.956 408.172 213.843 407.162 213.731 406.155C213.494 404.034 213.259 401.933 214.445 400.69C215.79 399.281 218.272 399.614 220.63 399.932C221.381 400.033 222.12 400.132 222.805 400.173C225.701 400.346 226.132 399.246 226.103 396.673C226.005 387.843 226.019 379.011 226.034 370.18C226.039 367.021 226.044 363.862 226.044 360.704C226.044 352.074 226.04 351.912 217.506 352.133C214.364 352.215 213.825 351.225 213.835 348.307C213.923 323.058 213.916 297.808 213.909 272.559C213.907 265.714 213.905 258.868 213.905 252.023C213.905 244.112 213.899 244.112 206.393 243.878C206.224 243.873 206.051 243.867 205.874 243.862C202.597 243.758 201.925 244.72 201.937 247.869C202.034 273.46 202.026 299.052 202.017 324.644C202.015 331.752 202.013 338.861 202.013 345.969C202.013 348.963 202.013 350.483 201.253 351.254ZM213.881 371.675C213.889 369.766 213.897 367.837 213.896 365.878C213.992 364.317 213.263 364.157 212.293 364.171C211.75 364.179 211.205 364.195 210.66 364.212C209.023 364.26 207.383 364.309 205.77 364.131C202.886 363.813 201.675 364.548 201.944 367.752C202.17 370.433 202.118 373.137 202.066 375.841C202.043 377.012 202.021 378.183 202.021 379.352C202.021 383.844 202.021 386.08 203.139 387.188C204.266 388.305 206.532 388.275 211.085 388.254C213.277 388.244 214.007 387.744 213.952 385.457C213.842 380.908 213.861 376.356 213.881 371.675Z" fill="#C46D5E"/>
<path fill-rule="evenodd" clip-rule="evenodd" d="M386.667 291.85C393.813 299.954 404.866 300.101 413.482 292.011C419.923 283.8 419.543 273.843 412.716 267.184C406.21 260.838 395.876 260.343 388.909 266.044C380.9 272.598 379.894 284.17 386.667 291.85ZM405.705 281.914C406.643 278.795 405.64 276.189 402.317 274.502C396.729 273.843 393.16 277.095 394.401 281.457C395.167 284.151 396.973 285.784 399.901 285.891C402.809 285.997 404.899 284.596 405.705 281.914Z" fill="#C46D5E"/>
<path fill-rule="evenodd" clip-rule="evenodd" d="M370.036 281.447C370.833 273.245 365.766 265.942 356.765 262.656C356.674 262.639 356.584 262.622 356.497 262.606C355.634 262.444 354.985 262.323 354.33 262.25C346.878 261.416 340.95 264.228 336.982 270.409C332.908 276.755 332.953 283.561 337.131 289.857C341.201 295.989 347.189 298.807 354.594 297.751C363.094 296.539 369.211 289.937 370.036 281.447ZM349.354 274.803C345.172 276.867 344.976 283.252 349.749 285.487C349.789 285.495 349.827 285.503 349.866 285.512C350.902 285.73 351.714 285.901 352.519 285.872C355.119 285.777 356.917 284.318 357.664 281.977C358.441 279.539 358.017 277.145 355.812 275.437C353.811 273.885 351.638 273.676 349.354 274.803Z" fill="#C46D5E"/>
<path fill-rule="evenodd" clip-rule="evenodd" d="M305.834 262.171C296.418 260.926 287.808 267.85 286.214 278.204C285.638 289.038 292.909 297.338 303.27 298.03C312.536 298.65 320.909 291.246 321.98 281.487C323.011 272.102 315.813 263.491 305.834 262.171ZM304.823 285.846C308.073 285.506 309.724 283.274 309.822 278.833C307.764 274.428 304.782 273.035 301.453 274.743C298.572 276.222 297.52 278.727 298.418 281.732C299.321 284.757 301.609 286.182 304.823 285.846Z" fill="#C46D5E"/>
<path fill-rule="evenodd" clip-rule="evenodd" d="M238.067 110.466C237.024 119.708 244.133 128.29 254.223 129.646C265.043 130.269 273.315 123.018 274.01 112.595C274.627 103.35 266.992 94.7518 257.429 93.9207C247.679 93.0735 239.215 100.307 238.067 110.466ZM261.531 109.834C260.364 106.69 257.828 105.552 254.236 106.21C249.356 107.885 248.89 114.054 252.436 116.563C254.777 118.22 257.171 118.279 259.499 116.592C261.86 114.88 262.491 112.42 261.531 109.834Z" fill="#C46D5E"/>
<path fill-rule="evenodd" clip-rule="evenodd" d="M166.746 117.133C169.973 127.562 180.742 132.308 191.84 127.974C200.636 122.838 204.025 113.933 200.682 105.302C197.59 97.3178 188.745 92.4711 180.467 94.2255C169.928 96.459 163.611 107.004 166.746 117.133ZM178.107 111.196C177.727 115.228 180.071 117.504 185.118 117.676C188.538 116.518 190.206 114.346 189.742 110.99C189.379 108.365 187.809 106.603 185.082 106.124C181.506 105.496 178.433 107.747 178.107 111.196Z" fill="#C46D5E"/>
<path fill-rule="evenodd" clip-rule="evenodd" d="M124.789 124.338C130.328 118.582 131.312 110.413 127.269 102.665C122.692 95.9751 116.619 92.886 108.781 94.1812C100.938 95.4771 95.099 101.754 94.0083 109.577C92.9661 117.053 97.1142 124.636 104.104 128.034C110.962 131.368 119.491 129.844 124.789 124.338ZM117.463 109.954C116.23 106.454 113.195 105.338 108.612 106.941C105.654 109.396 105.147 112.204 107.013 115.139C108.618 117.662 111.124 118.43 113.989 117.354C117.01 116.219 118.51 112.928 117.463 109.954Z" fill="#C46D5E"/>
<path fill-rule="evenodd" clip-rule="evenodd" d="M72 93.0909C72 81.4427 81.4427 72 93.0909 72H133.091C144.739 72 154.182 81.4427 154.182 93.0909V210.909C154.182 222.557 144.739 232 133.091 232H93.0909C81.4427 232 72 222.557 72 210.909V93.0909ZM93.0909 82.1818C87.066 82.1818 82.1818 87.066 82.1818 93.0909V210.909C82.1818 216.934 87.066 221.818 93.0909 221.818H133.091C139.116 221.818 144 216.934 144 210.909V93.0909C144 87.066 139.116 82.1818 133.091 82.1818H93.0909Z" fill="#C46D5E"/>
<path fill-rule="evenodd" clip-rule="evenodd" d="M215.273 93.0909C215.273 81.4427 224.715 72 236.364 72H276.364C288.012 72 297.455 81.4427 297.455 93.0909V210.909C297.455 222.557 288.012 232 276.364 232H236.364C224.715 232 215.273 222.557 215.273 210.909V93.0909ZM236.364 82.1818C230.339 82.1818 225.455 87.066 225.455 93.0909V210.909C225.455 216.934 230.339 221.818 236.364 221.818H276.364C282.389 221.818 287.273 216.934 287.273 210.909V93.0909C287.273 87.066 282.389 82.1818 276.364 82.1818H236.364Z" fill="#C46D5E"/>
<path fill-rule="evenodd" clip-rule="evenodd" d="M287.273 93.0909C287.273 81.4427 296.715 72 308.364 72H405.818C408.63 72 410.909 74.2793 410.909 77.0909C410.909 79.9025 408.63 82.1818 405.818 82.1818H308.364C302.339 82.1818 297.455 87.066 297.455 93.0909V210.909C297.455 216.934 302.339 221.818 308.364 221.818H434.909C437.721 221.818 440 224.097 440 226.909C440 229.721 437.721 232 434.909 232H308.364C296.715 232 287.273 222.557 287.273 210.909V93.0909Z" fill="#C46D5E"/>
<path fill-rule="evenodd" clip-rule="evenodd" d="M144 93.0909C144 81.4427 153.443 72 165.091 72H204.364C216.012 72 225.455 81.4427 225.455 93.0909V210.909C225.455 222.557 216.012 232 204.364 232H165.091C153.443 232 144 222.557 144 210.909V93.0909ZM165.091 82.1818C159.066 82.1818 154.182 87.066 154.182 93.0909V210.909C154.182 216.934 159.066 221.818 165.091 221.818H204.364C210.389 221.818 215.273 216.934 215.273 210.909V93.0909C215.273 87.066 210.389 82.1818 204.364 82.1818H165.091Z" fill="#C46D5E"/>
<path fill-rule="evenodd" clip-rule="evenodd" d="M72 94.5455C72 82.094 82.0939 72 94.5455 72H417.455C429.906 72 440 82.0939 440 94.5455V153.267C440 156.079 437.721 158.358 434.909 158.358C432.097 158.358 429.818 156.079 429.818 153.267V94.5455C429.818 87.7172 424.283 82.1818 417.455 82.1818H94.5455C87.7172 82.1818 82.1818 87.7172 82.1818 94.5455V322.043C82.1818 324.854 79.9025 327.134 77.0909 327.134C74.2793 327.134 72 324.854 72 322.043V94.5455ZM434.909 172.287C437.721 172.287 440 174.566 440 177.378V417.455C440 429.906 429.906 440 417.455 440H94.5455C82.0939 440 72 429.906 72 417.455V345.455C72 342.643 74.2793 340.364 77.0909 340.364C79.9025 340.364 82.1818 342.643 82.1818 345.455V417.455C82.1818 424.283 87.7172 429.818 94.5455 429.818H417.455C424.283 429.818 429.818 424.283 429.818 417.455V177.378C429.818 174.566 432.097 172.287 434.909 172.287Z" fill="#C46D5E"/>
</svg>
