<svg width="512" height="512" viewBox="0 0 512 512" fill="none" xmlns="http://www.w3.org/2000/svg">
<path d="M258.049 52C261.609 54.2225 262.658 57.2552 262.447 61.1466C262.167 66.3054 262.428 71.4915 262.361 76.6646C262.305 81.0415 259.821 83.8085 256.079 83.8576C252.325 83.9069 249.703 81.1362 249.645 76.8271C249.568 70.9908 249.662 65.1524 249.61 59.3156C249.582 56.2583 250.606 53.8937 253.551 52.2757C254.977 52 256.343 52 258.049 52Z" fill="#C46D5E"/>
<path d="M348.566 302.387C371.515 274.262 380.459 242.435 375.765 206.743C375.216 202.565 377.343 199.291 380.993 198.689C384.668 198.083 387.674 200.463 388.325 204.741C395.909 254.592 374.337 307.813 327.564 337.327C319.928 342.146 311.922 346.243 303.403 349.232C301.116 350.035 300.269 351.195 300.58 353.498C300.72 354.541 300.616 355.62 300.601 356.682C300.533 361.617 298.926 363.63 293.992 364.463C271.913 368.192 249.824 371.857 227.739 375.551C224.995 376.01 222.265 376.566 219.513 376.971C214.679 377.683 211.507 375.051 211.424 370.142C211.327 364.433 211.292 358.718 211.455 353.013C211.514 350.926 210.795 350.006 208.896 349.333C200.002 346.181 191.655 341.894 183.738 336.772C179.471 334.011 178.314 330.501 180.488 327.152C182.65 323.821 186.358 323.369 190.6 326.064C199.36 331.628 208.63 336.113 218.516 339.259C222.506 340.529 224.329 343.012 224.183 347.209C224.036 351.454 224.35 355.72 224.082 359.952C223.9 362.83 224.977 363.16 227.42 362.742C244.006 359.903 260.607 357.155 277.203 354.374C279.033 354.068 280.862 353.457 282.685 353.478C286.919 353.527 288.318 351.795 287.959 347.504C287.534 342.415 289.02 340.712 293.942 339.1C315.512 332.036 333.615 319.814 348.566 302.387Z" fill="#C46D5E"/>
<path d="M139.7 190.719C132.068 217.9 133.679 244.258 143.979 270.141C144.466 271.366 145.061 272.587 145.3 273.867C145.942 277.312 144.03 280.345 140.806 281.269C137.698 282.159 134.749 280.661 133.176 277.173C129.293 268.568 126.571 259.57 124.745 250.331C111.471 183.163 150.798 116.901 216.066 96.428C242.094 88.2637 268.204 88.2007 294.377 95.8081C297.375 96.6797 299.817 98.0456 300.492 101.32C301.504 106.224 296.888 109.866 291.454 108.289C283.671 106.031 275.793 104.429 267.722 103.608C213.894 98.1313 162.018 130.263 142.937 181C141.774 184.094 140.815 187.266 139.7 190.719Z" fill="#C46D5E"/>
<path d="M189.791 164.26C179.327 176.103 172.276 189.393 169.019 204.624C168.308 207.944 166.952 210.725 163.206 211.292C160.432 211.712 158.3 210.466 156.841 208.136C155.433 205.891 156.059 203.483 156.619 201.185C163.185 174.227 177.994 153.077 201.315 137.984C210.951 131.747 221.441 127.486 232.58 124.793C233.479 124.575 234.399 124.435 235.314 124.296C239.274 123.693 242.43 125.664 243.153 129.179C243.831 132.471 241.854 135.618 238.13 136.562C231.073 138.352 224.136 140.396 217.543 143.58C207.036 148.652 197.849 155.448 189.791 164.26Z" fill="#C46D5E"/>
<path d="M224.426 382.293C246.971 378.506 269.187 374.824 291.397 371.105C296.193 370.302 299.544 372.074 300.356 375.995C301.142 379.793 298.587 382.792 293.703 383.618C269.019 387.795 244.332 391.954 219.64 396.083C215.487 396.778 212.179 394.625 211.503 390.977C210.832 387.355 213.257 384.26 217.427 383.485C219.641 383.074 221.871 382.748 224.426 382.293Z" fill="#C46D5E"/>
<path d="M229.865 400.464C250.59 397.014 270.978 393.647 291.358 390.24C296.182 389.434 299.508 391.164 300.345 395.081C301.159 398.886 298.608 401.914 293.743 402.737C269.06 406.914 244.373 411.071 219.682 415.203C215.516 415.901 212.212 413.787 211.511 410.144C210.814 406.523 213.229 403.378 217.385 402.617C221.423 401.877 225.477 401.224 229.865 400.464Z" fill="#C46D5E"/>
<path d="M121.355 309.303C119.133 310.525 117.239 311.758 115.203 312.679C111.917 314.166 108.692 313.059 107.034 310.089C105.404 307.169 106.083 303.568 109.075 301.73C114.694 298.277 120.426 294.995 126.224 291.85C129.366 290.147 132.764 291.232 134.531 294.063C136.401 297.058 135.724 300.652 132.535 302.74C129.004 305.05 125.266 307.043 121.355 309.303Z" fill="#C46D5E"/>
<path d="M394.247 311.367C389.538 308.63 385.045 306.117 380.618 303.493C376.599 301.111 375.402 297.561 377.348 294.221C379.297 290.877 382.874 290.189 386.995 292.496C391.6 295.076 396.156 297.746 400.722 300.395C405.593 303.222 406.955 306.244 405.043 309.904C403.058 313.703 399.65 314.232 394.247 311.367Z" fill="#C46D5E"/>
<path d="M106.31 139.984C108.965 134.545 111.879 133.603 116.863 136.398C121.692 139.106 126.494 141.864 131.262 144.677C135.287 147.052 136.529 150.576 134.654 153.92C132.768 157.286 129.105 158.061 125.05 155.794C119.987 152.965 114.998 150.002 109.956 147.133C107.28 145.61 105.917 143.431 106.31 139.984Z" fill="#C46D5E"/>
<path d="M186.652 91.1462C187.396 92.5794 188.126 93.6976 188.599 94.9158C189.831 98.0909 188.785 100.707 186.063 102.458C183.287 104.242 180.133 104.061 178.22 101.416C173.895 95.4371 170.325 88.9405 167.119 82.2994C165.761 79.4873 167.629 76.0618 170.609 74.816C173.861 73.4566 176.704 74.3102 178.543 77.2216C181.356 81.676 183.877 86.3157 186.652 91.1462Z" fill="#C46D5E"/>
<path d="M428 224.122C427.376 228.72 424.774 230.544 420.583 230.515C414.882 230.476 409.18 230.55 403.48 230.491C398.913 230.443 396.057 227.809 396.183 223.922C396.303 220.187 399.058 217.802 403.481 217.758C409.182 217.703 414.883 217.778 420.584 217.734C424.78 217.701 427.379 219.522 428 224.122Z" fill="#C46D5E"/>
<path d="M92.1861 230.506C86.6672 230.28 83.9605 228.05 84.0004 224.062C84.0404 220.068 86.8983 217.773 91.9379 217.75C97.3659 217.725 102.794 217.715 108.222 217.754C112.925 217.787 115.747 220.15 115.818 224.013C115.891 228.021 112.992 230.468 108.043 230.498C102.88 230.53 97.716 230.506 92.1861 230.506Z" fill="#C46D5E"/>
<path fill-rule="evenodd" clip-rule="evenodd" d="M415.356 61.1568C415.371 57.2767 414.498 54.2359 410.942 52C408.701 52 406.813 52 404.827 52.2933C403.448 52.9183 402.177 53.2962 400.885 53.5749C390.678 55.776 380.469 57.9735 370.261 60.1709C353.686 63.7389 337.111 67.3068 320.539 70.8906C314.442 72.209 313.341 73.635 313.34 79.7877C313.336 97.5465 313.337 115.305 313.337 133.064C313.338 139.609 313.338 146.155 313.338 152.7L313.338 157.163L312.044 156.664C311.832 156.582 311.638 156.507 311.45 156.435C311.353 156.397 311.259 156.361 311.164 156.324C310.925 156.231 310.687 156.135 310.45 156.038C309.953 155.836 309.455 155.633 308.946 155.468C298.592 152.117 289.398 154.294 282.04 162.163C274.673 170.04 273.087 179.433 277.218 189.471C281.751 200.486 293.649 206.834 305 204.577C317.418 202.109 326.028 192.061 326.066 179.706C326.104 167.31 326.102 154.913 326.1 142.517C326.099 132.203 326.097 121.889 326.118 111.575C326.119 111.291 326.088 110.997 326.058 110.701C325.927 109.439 325.794 108.159 328.073 107.682C347.144 103.689 366.195 99.5977 385.33 95.4889C391.007 94.2699 396.692 93.0493 402.386 91.8291V137.934C401.89 137.747 401.404 137.56 400.926 137.376C399.915 136.986 398.933 136.608 397.938 136.269C382.185 130.9 365.396 142.034 364.35 158.535C363.443 172.856 374.393 185.256 388.473 185.847C403.145 186.464 415.237 175.054 415.263 160.365C415.286 147.056 415.284 133.746 415.282 120.437C415.28 100.677 415.277 80.9167 415.356 61.1568ZM326.007 92.5624C326.059 95.481 327.231 95.1774 329.422 94.3667C329.81 94.2894 330.182 94.2158 330.542 94.1447L330.543 94.1445C331.816 93.8927 332.928 93.6725 334.037 93.4338L334.898 93.2486C356.472 88.6049 378.046 83.9613 399.616 79.3001C399.867 79.2458 400.135 79.2161 400.403 79.1864C401.519 79.0626 402.638 78.9383 402.569 77.0425C402.479 74.5878 402.498 72.1292 402.518 69.6009L402.518 69.5936C402.527 68.5024 402.535 67.3982 402.535 66.2757C395.959 67.6862 389.422 69.0922 382.914 70.4922L382.907 70.4935C366.941 73.9276 351.143 77.3257 335.332 80.6678L335.089 80.7192C330.479 81.6934 328.163 82.1826 327.022 83.6109C325.871 85.0516 325.914 87.4476 326.001 92.2603L326.007 92.5624ZM311.984 173.91C314.251 180.239 313.242 185.384 309.007 189.001C304.92 192.492 300.29 193.251 295.324 191.053C290.591 188.958 287.668 184.126 287.875 178.955C288.1 173.373 291.913 168.685 297.456 167.177C303.095 165.642 308.165 167.924 311.984 173.91ZM396.228 149.391C391.054 146.519 386.071 147.073 381.23 150.972C376.475 156.448 375.795 161.987 379.05 167.158C381.971 171.798 387.663 174.141 392.812 172.727C398.193 171.25 401.401 167.651 402.395 162.214C403.288 157.326 400.675 151.86 396.228 149.391Z" fill="#C46D5E"/>
<path fill-rule="evenodd" clip-rule="evenodd" d="M247.777 458.827C248.547 458.937 249.402 459.059 250 460C253.84 460 257.31 460 260.877 459.7C275.751 457.69 287.758 444.231 287.691 428.612C287.671 423.895 288.943 422.219 293.511 421.801C298.524 421.342 301.065 418.194 300.401 414.42C299.688 410.37 296.242 408.563 291.185 409.416C282.798 410.831 274.408 412.22 266.017 413.608C260.816 414.469 255.615 415.33 250.415 416.197L249.284 416.385C238.685 418.152 228.086 419.919 217.495 421.734C213.286 422.455 210.861 425.541 211.494 429.164C212.132 432.82 215.436 434.946 219.583 434.346C220.237 434.252 220.886 434.09 221.521 433.904C223.697 433.271 224.611 433.878 225.293 436.286C228.487 447.555 235.757 455.045 246.966 458.667C247.213 458.747 247.489 458.786 247.777 458.827ZM259.209 447C268.83 445.176 274.88 437.628 275.111 426.81C275.059 424.705 274.106 425.033 273.243 425.33C273.022 425.405 272.808 425.479 272.616 425.51C269.053 426.082 265.493 426.671 261.933 427.26C254.932 428.417 247.932 429.575 240.913 430.609C237.466 431.117 237.009 432.357 238.318 435.394C241.851 443.593 250.689 448.615 259.209 447Z" fill="#C46D5E"/>
<path fill-rule="evenodd" clip-rule="evenodd" d="M160.438 354.813C160.322 357.462 160.395 360.069 160.466 362.643C160.594 367.268 160.72 371.785 159.744 376.249C156.612 390.575 142.334 399.157 128.155 395.348C114.39 391.65 106.324 376.792 110.646 363.098C115.041 349.172 130.093 341.798 143.816 346.859C144.62 347.155 145.409 347.492 146.29 347.867L146.296 347.869C146.734 348.056 147.194 348.251 147.69 348.457L147.69 331.985C147.69 318.317 147.69 304.778 147.69 291.24C147.69 283.8 148.582 282.64 155.724 280.859C157.713 280.363 159.702 279.867 161.691 279.371L163.456 278.931C176.413 275.699 189.371 272.468 202.335 269.262C207.978 267.867 211.35 270.487 211.393 276.324C211.449 284.024 211.435 291.724 211.396 299.424C211.372 304.04 209.992 305.897 205.486 307.042C191.642 310.557 177.787 314.029 163.909 317.406C161.432 318.009 160.269 318.778 160.338 321.757C160.522 329.639 160.492 337.526 160.461 345.564V345.566C160.45 348.623 160.438 351.703 160.438 354.813ZM143.504 361.361C148.122 366.737 148.89 371.714 146.087 376.856C143.618 381.386 138.547 384.027 133.471 383.425C128.257 382.807 123.946 378.978 122.579 373.75C121.263 368.721 123.413 363.2 127.853 360.2C132.652 356.959 137.97 357.294 143.504 361.361ZM198.335 283.416C187.997 285.979 177.638 288.547 166.958 291.188C163.634 292.088 162.003 292.53 161.203 293.596C160.433 294.622 160.433 296.227 160.433 299.377C160.433 299.668 160.446 299.962 160.458 300.255C160.486 300.896 160.513 301.536 160.41 302.155C159.925 305.039 161.34 305.084 163.533 304.515C171.71 302.392 179.902 300.323 188.104 298.297L188.179 298.278C199.3 295.53 199.304 295.529 198.545 284.098C198.54 284.021 198.513 283.946 198.463 283.802C198.431 283.708 198.388 283.586 198.335 283.416Z" fill="#C46D5E"/>
<path fill-rule="evenodd" clip-rule="evenodd" d="M215.432 251.754C216.078 254.072 216.731 256.416 217.415 258.795C223.994 281.756 230.452 304.417 236.894 327.083C237.942 330.771 240.299 332.548 244.162 332.521C251.991 332.464 259.821 332.449 267.65 332.526C271.695 332.566 274.051 330.72 275.148 326.855C283.39 297.822 291.646 268.793 299.992 239.79C300.955 236.443 300.57 233.712 297.703 231.694C294.932 229.745 292.304 230.477 289.637 232.32C280.458 238.664 269.733 238.727 260.665 232.394C257.355 230.083 254.538 230.119 251.242 232.426C242.217 238.745 231.361 238.654 222.278 232.274C219.606 230.397 216.981 229.718 214.221 231.662C211.345 233.689 210.959 236.455 211.981 239.775C213.194 243.72 214.302 247.697 215.432 251.754ZM227.868 248.879C230.194 257.134 232.416 265.018 234.741 273.21C236.154 278.108 237.545 282.952 238.928 287.764C240.824 294.365 242.703 300.906 244.595 307.443C244.939 308.63 245.19 309.95 245.442 311.274C246.051 314.468 246.664 317.685 248.588 319.122C250.378 320.458 253.293 320.218 256.273 319.972C257.87 319.84 259.486 319.706 260.957 319.814C263.553 320.003 264.256 318.883 264.864 316.638C266.468 310.713 268.178 304.817 269.889 298.921C270.758 295.928 271.626 292.935 272.48 289.938C275.192 280.429 277.889 270.917 280.622 261.279C281.791 257.156 282.967 253.011 284.153 248.833C278.954 249.507 274.113 249.987 269.239 249.267C267.102 248.952 265.043 248.108 263.031 247.284C260.682 246.322 258.397 245.386 256.131 245.35C253.764 245.312 251.39 246.29 248.947 247.296C246.904 248.137 244.812 248.998 242.637 249.301C237.779 249.978 232.955 249.462 227.868 248.879Z" fill="#C46D5E"/>
</svg>
